# MagicaVoxel @ Ephtracy

# group
g PlayerWithSword

# material
mtllib PlayerWithSword.mtl
usemtl palette

# normals
vn -1 0 0
vn 1 0 0
vn 0 0 1
vn 0 0 -1
vn 0 -1 0
vn 0 1 0

# texcoords
vt 0.974609 0.5
vt 0.982422 0.5

# verts
v -5 8 1
v -5 8 -1
v -5 9 1
v -5 9 -1
v -2 0 2
v -2 0 -2
v -2 1 2
v -2 1 -2
v -2 9 1
v -2 9 -1
v -2 40 1
v -2 40 -1
v -1 1 1
v -1 1 -1
v -1 8 1
v -1 8 -1
v -1 40 1
v -1 40 -1
v -1 42 1
v -1 42 -1
v 1 1 1
v 1 1 -1
v 1 8 1
v 1 8 -1
v 1 40 1
v 1 40 -1
v 1 42 1
v 1 42 -1
v 2 0 2
v 2 0 -2
v 2 1 2
v 2 1 -2
v 2 9 1
v 2 9 -1
v 2 40 1
v 2 40 -1
v 5 8 1
v 5 8 -1
v 5 9 1
v 5 9 -1
v -2 0 2
v -2 1 2
v 2 0 2
v 2 1 2
v -5 8 1
v -5 9 1
v -2 9 1
v -2 40 1
v -1 1 1
v -1 8 1
v -1 40 1
v -1 42 1
v 1 1 1
v 1 8 1
v 1 40 1
v 1 42 1
v 2 9 1
v 2 40 1
v 5 8 1
v 5 9 1
v -5 8 -1
v -5 9 -1
v -2 9 -1
v -2 40 -1
v -1 1 -1
v -1 8 -1
v -1 40 -1
v -1 42 -1
v 1 1 -1
v 1 8 -1
v 1 40 -1
v 1 42 -1
v 2 9 -1
v 2 40 -1
v 5 8 -1
v 5 9 -1
v -2 0 -2
v -2 1 -2
v 2 0 -2
v 2 1 -2
v -2 0 2
v 2 0 2
v -2 0 -2
v 2 0 -2
v -5 8 1
v -1 8 1
v 1 8 1
v 5 8 1
v -5 8 -1
v -1 8 -1
v 1 8 -1
v 5 8 -1
v -2 1 2
v 2 1 2
v -1 1 1
v 1 1 1
v -1 1 -1
v 1 1 -1
v -2 1 -2
v 2 1 -2
v -5 9 1
v -2 9 1
v 2 9 1
v 5 9 1
v -5 9 -1
v -2 9 -1
v 2 9 -1
v 5 9 -1
v -2 40 1
v -1 40 1
v 1 40 1
v 2 40 1
v -2 40 -1
v -1 40 -1
v 1 40 -1
v 2 40 -1
v -1 42 1
v 1 42 1
v -1 42 -1
v 1 42 -1

# faces
f 3/2/1 2/2/1 1/2/1
f 4/2/1 2/2/1 3/2/1
f 7/2/1 6/2/1 5/2/1
f 8/2/1 6/2/1 7/2/1
f 11/1/1 10/1/1 9/1/1
f 12/1/1 10/1/1 11/1/1
f 15/2/1 14/2/1 13/2/1
f 16/2/1 14/2/1 15/2/1
f 19/1/1 18/1/1 17/1/1
f 20/1/1 18/1/1 19/1/1
f 21/2/2 22/2/2 23/2/2
f 23/2/2 22/2/2 24/2/2
f 25/1/2 26/1/2 27/1/2
f 27/1/2 26/1/2 28/1/2
f 29/2/2 30/2/2 31/2/2
f 31/2/2 30/2/2 32/2/2
f 33/1/2 34/1/2 35/1/2
f 35/1/2 34/1/2 36/1/2
f 37/2/2 38/2/2 39/2/2
f 39/2/2 38/2/2 40/2/2
f 43/2/3 42/2/3 41/2/3
f 44/2/3 42/2/3 43/2/3
f 47/2/3 46/2/3 45/2/3
f 50/2/3 47/2/3 45/2/3
f 51/1/3 48/1/3 47/1/3
f 53/2/3 50/2/3 49/2/3
f 54/2/3 47/2/3 50/2/3
f 54/2/3 50/2/3 53/2/3
f 55/1/3 52/1/3 51/1/3
f 55/1/3 51/1/3 47/1/3
f 56/1/3 52/1/3 55/1/3
f 57/2/3 47/2/3 54/2/3
f 57/1/3 55/1/3 47/1/3
f 58/1/3 55/1/3 57/1/3
f 59/2/3 57/2/3 54/2/3
f 60/2/3 57/2/3 59/2/3
f 61/2/4 62/2/4 63/2/4
f 61/2/4 63/2/4 66/2/4
f 63/1/4 64/1/4 67/1/4
f 65/2/4 66/2/4 69/2/4
f 66/2/4 63/2/4 70/2/4
f 69/2/4 66/2/4 70/2/4
f 67/1/4 68/1/4 71/1/4
f 63/1/4 67/1/4 71/1/4
f 71/1/4 68/1/4 72/1/4
f 70/2/4 63/2/4 73/2/4
f 63/1/4 71/1/4 73/1/4
f 73/1/4 71/1/4 74/1/4
f 70/2/4 73/2/4 75/2/4
f 75/2/4 73/2/4 76/2/4
f 77/2/4 78/2/4 79/2/4
f 79/2/4 78/2/4 80/2/4
f 83/2/5 82/2/5 81/2/5
f 84/2/5 82/2/5 83/2/5
f 89/2/5 86/2/5 85/2/5
f 90/2/5 86/2/5 89/2/5
f 91/2/5 88/2/5 87/2/5
f 92/2/5 88/2/5 91/2/5
f 93/2/6 94/2/6 95/2/6
f 95/2/6 94/2/6 96/2/6
f 93/2/6 95/2/6 97/2/6
f 96/2/6 94/2/6 98/2/6
f 93/2/6 97/2/6 99/2/6
f 97/2/6 98/2/6 99/2/6
f 98/2/6 94/2/6 100/2/6
f 99/2/6 98/2/6 100/2/6
f 101/2/6 102/2/6 105/2/6
f 105/2/6 102/2/6 106/2/6
f 103/2/6 104/2/6 107/2/6
f 107/2/6 104/2/6 108/2/6
f 109/1/6 110/1/6 113/1/6
f 113/1/6 110/1/6 114/1/6
f 111/1/6 112/1/6 115/1/6
f 115/1/6 112/1/6 116/1/6
f 117/1/6 118/1/6 119/1/6
f 119/1/6 118/1/6 120/1/6
