# MagicaVoxel @ Ephtracy

# group
g ShamanHeal

# material
mtllib ShamanHeal.mtl
usemtl palette

# normals
vn -1 0 0
vn 1 0 0
vn 0 0 1
vn 0 0 -1
vn 0 -1 0
vn 0 1 0

# texcoords
vt 0.443359 0.5
vt 0.748047 0.5
vt 0.880859 0.5

# verts
v -2 4 4
v -2 4 3
v -2 4 -1
v -2 4 -2
v -2 5 4
v -2 5 3
v -2 5 -1
v -2 5 -2
v -1 3 4
v -1 3 3
v -1 4 5
v -1 4 4
v -1 4 3
v -1 4 2
v -1 4 -0
v -1 4 -1
v -1 4 -2
v -1 4 -3
v -1 5 5
v -1 5 4
v -1 5 3
v -1 5 2
v -1 5 -0
v -1 5 -1
v -1 5 -2
v -1 5 -3
v -1 6 4
v -1 6 3
v 0 4 2
v 0 4 1
v 0 4 -3
v 0 4 -4
v 0 5 2
v 0 5 1
v 0 5 -3
v 0 5 -4
v 1 4 1
v 1 4 -0
v 1 5 1
v 1 5 -0
v -1 4 -1
v -1 4 -2
v -1 5 -1
v -1 5 -2
v 0 4 3
v 0 4 2
v 0 4 -2
v 0 4 -3
v 0 5 3
v 0 5 2
v 0 5 -2
v 0 5 -3
v 1 3 4
v 1 3 3
v 1 4 5
v 1 4 4
v 1 4 3
v 1 4 2
v 1 4 1
v 1 4 -0
v 1 4 -1
v 1 4 -3
v 1 4 -4
v 1 5 5
v 1 5 4
v 1 5 3
v 1 5 2
v 1 5 1
v 1 5 -0
v 1 5 -1
v 1 5 -3
v 1 5 -4
v 1 6 4
v 1 6 3
v 2 4 4
v 2 4 3
v 2 4 1
v 2 4 -0
v 2 5 4
v 2 5 3
v 2 5 1
v 2 5 -0
v -1 4 5
v -1 5 5
v 0 4 5
v 0 5 5
v 1 4 5
v 1 5 5
v -2 4 4
v -2 5 4
v -1 3 4
v -1 4 4
v -1 5 4
v -1 6 4
v 0 4 4
v 0 5 4
v 0 6 4
v 1 3 4
v 1 4 4
v 1 5 4
v 1 6 4
v 2 4 4
v 2 5 4
v 0 4 2
v 0 5 2
v 1 4 2
v 1 5 2
v 1 4 1
v 1 5 1
v 2 4 1
v 2 5 1
v -1 4 -0
v -1 5 -0
v 0 4 -0
v 0 5 -0
v 1 4 -0
v 1 5 -0
v -2 4 -1
v -2 5 -1
v -1 4 -1
v -1 5 -1
v -1 4 -2
v -1 5 -2
v 0 4 -2
v 0 5 -2
v 0 4 -3
v 0 5 -3
v 1 4 -3
v 1 5 -3
v -2 4 3
v -2 5 3
v -1 3 3
v -1 4 3
v -1 5 3
v -1 6 3
v 0 4 3
v 0 5 3
v 0 6 3
v 1 3 3
v 1 4 3
v 1 5 3
v 1 6 3
v 2 4 3
v 2 5 3
v -1 4 2
v -1 5 2
v 0 4 2
v 0 5 2
v 0 4 1
v 0 5 1
v 1 4 1
v 1 5 1
v 1 4 -0
v 1 5 -0
v 2 4 -0
v 2 5 -0
v -1 4 -1
v -1 5 -1
v 0 4 -1
v 0 5 -1
v 1 4 -1
v 1 5 -1
v -2 4 -2
v -2 5 -2
v -1 4 -2
v -1 5 -2
v -1 4 -3
v -1 5 -3
v 0 4 -3
v 0 5 -3
v 0 4 -4
v 0 5 -4
v 1 4 -4
v 1 5 -4
v -1 3 4
v 1 3 4
v -1 3 3
v 1 3 3
v -1 4 5
v 0 4 5
v 1 4 5
v -2 4 4
v -1 4 4
v 0 4 4
v 1 4 4
v 2 4 4
v -2 4 3
v -1 4 3
v 0 4 3
v 1 4 3
v 2 4 3
v -1 4 2
v 0 4 2
v 1 4 2
v 0 4 1
v 1 4 1
v 2 4 1
v -1 4 -0
v 0 4 -0
v 1 4 -0
v 2 4 -0
v -2 4 -1
v -1 4 -1
v 0 4 -1
v 1 4 -1
v -2 4 -2
v -1 4 -2
v 0 4 -2
v -1 4 -3
v 0 4 -3
v 1 4 -3
v 0 4 -4
v 1 4 -4
v -1 5 5
v 0 5 5
v 1 5 5
v -2 5 4
v -1 5 4
v 0 5 4
v 1 5 4
v 2 5 4
v -2 5 3
v -1 5 3
v 0 5 3
v 1 5 3
v 2 5 3
v -1 5 2
v 0 5 2
v 1 5 2
v 0 5 1
v 1 5 1
v 2 5 1
v -1 5 -0
v 0 5 -0
v 1 5 -0
v 2 5 -0
v -2 5 -1
v -1 5 -1
v 0 5 -1
v 1 5 -1
v -2 5 -2
v -1 5 -2
v 0 5 -2
v -1 5 -3
v 0 5 -3
v 1 5 -3
v 0 5 -4
v 1 5 -4
v -1 6 4
v 0 6 4
v 1 6 4
v -1 6 3
v 0 6 3
v 1 6 3

# faces
f 5/2/1 2/2/1 1/2/1
f 6/2/1 2/2/1 5/2/1
f 7/3/1 4/3/1 3/3/1
f 8/3/1 4/3/1 7/3/1
f 12/3/1 10/3/1 9/3/1
f 13/3/1 10/3/1 12/3/1
f 19/1/1 12/1/1 11/1/1
f 20/1/1 12/1/1 19/1/1
f 21/3/1 14/3/1 13/3/1
f 22/3/1 14/3/1 21/3/1
f 23/2/1 16/2/1 15/2/1
f 24/2/1 16/2/1 23/2/1
f 25/2/1 18/2/1 17/2/1
f 26/2/1 18/2/1 25/2/1
f 27/2/1 21/2/1 20/2/1
f 28/2/1 21/2/1 27/2/1
f 33/1/1 30/1/1 29/1/1
f 34/1/1 30/1/1 33/1/1
f 35/1/1 32/1/1 31/1/1
f 36/1/1 32/1/1 35/1/1
f 39/2/1 38/2/1 37/2/1
f 40/2/1 38/2/1 39/2/1
f 41/3/2 42/3/2 43/3/2
f 43/3/2 42/3/2 44/3/2
f 45/3/2 46/3/2 49/3/2
f 49/3/2 46/3/2 50/3/2
f 47/2/2 48/2/2 51/2/2
f 51/2/2 48/2/2 52/2/2
f 53/3/2 54/3/2 56/3/2
f 56/3/2 54/3/2 57/3/2
f 55/2/2 56/2/2 64/2/2
f 64/2/2 56/2/2 65/2/2
f 58/1/2 59/1/2 67/1/2
f 67/1/2 59/1/2 68/1/2
f 60/3/2 61/3/2 69/3/2
f 69/3/2 61/3/2 70/3/2
f 62/1/2 63/1/2 71/1/2
f 71/1/2 63/1/2 72/1/2
f 65/3/2 66/3/2 73/3/2
f 73/3/2 66/3/2 74/3/2
f 75/2/2 76/2/2 79/2/2
f 79/2/2 76/2/2 80/2/2
f 77/2/2 78/2/2 81/2/2
f 81/2/2 78/2/2 82/2/2
f 85/1/3 84/1/3 83/1/3
f 86/1/3 84/1/3 85/1/3
f 87/2/3 86/2/3 85/2/3
f 88/2/3 86/2/3 87/2/3
f 92/2/3 90/2/3 89/2/3
f 93/2/3 90/2/3 92/2/3
f 95/3/3 92/3/3 91/3/3
f 96/2/3 94/2/3 93/2/3
f 97/2/3 94/2/3 96/2/3
f 98/3/3 95/3/3 91/3/3
f 99/3/3 95/3/3 98/3/3
f 100/3/3 97/3/3 96/3/3
f 101/3/3 97/3/3 100/3/3
f 102/2/3 100/2/3 99/2/3
f 103/2/3 100/2/3 102/2/3
f 106/1/3 105/1/3 104/1/3
f 107/1/3 105/1/3 106/1/3
f 110/2/3 109/2/3 108/2/3
f 111/2/3 109/2/3 110/2/3
f 114/2/3 113/2/3 112/2/3
f 115/2/3 113/2/3 114/2/3
f 116/3/3 115/3/3 114/3/3
f 117/3/3 115/3/3 116/3/3
f 120/3/3 119/3/3 118/3/3
f 121/3/3 119/3/3 120/3/3
f 124/2/3 123/2/3 122/2/3
f 125/2/3 123/2/3 124/2/3
f 128/1/3 127/1/3 126/1/3
f 129/1/3 127/1/3 128/1/3
f 130/2/4 131/2/4 133/2/4
f 133/2/4 131/2/4 134/2/4
f 132/3/4 133/3/4 136/3/4
f 134/2/4 135/2/4 137/2/4
f 137/2/4 135/2/4 138/2/4
f 132/3/4 136/3/4 139/3/4
f 136/3/4 137/3/4 139/3/4
f 137/3/4 138/3/4 139/3/4
f 139/3/4 138/3/4 140/3/4
f 140/3/4 138/3/4 141/3/4
f 141/3/4 138/3/4 142/3/4
f 140/2/4 141/2/4 143/2/4
f 143/2/4 141/2/4 144/2/4
f 145/3/4 146/3/4 147/3/4
f 147/3/4 146/3/4 148/3/4
f 149/1/4 150/1/4 151/1/4
f 151/1/4 150/1/4 152/1/4
f 153/2/4 154/2/4 155/2/4
f 155/2/4 154/2/4 156/2/4
f 157/2/4 158/2/4 159/2/4
f 159/2/4 158/2/4 160/2/4
f 159/3/4 160/3/4 161/3/4
f 161/3/4 160/3/4 162/3/4
f 163/3/4 164/3/4 165/3/4
f 165/3/4 164/3/4 166/3/4
f 167/2/4 168/2/4 169/2/4
f 169/2/4 168/2/4 170/2/4
f 171/1/4 172/1/4 173/1/4
f 173/1/4 172/1/4 174/1/4
f 177/3/5 176/3/5 175/3/5
f 178/3/5 176/3/5 177/3/5
f 183/1/5 180/1/5 179/1/5
f 184/2/5 181/2/5 180/2/5
f 184/1/5 180/1/5 183/1/5
f 185/2/5 181/2/5 184/2/5
f 187/2/5 183/2/5 182/2/5
f 188/2/5 183/2/5 187/2/5
f 190/2/5 186/2/5 185/2/5
f 191/2/5 186/2/5 190/2/5
f 192/3/5 189/3/5 188/3/5
f 193/3/5 189/3/5 192/3/5
f 195/1/5 194/1/5 193/1/5
f 196/1/5 194/1/5 195/1/5
f 200/2/5 197/2/5 196/2/5
f 201/2/5 197/2/5 200/2/5
f 203/2/5 199/2/5 198/2/5
f 204/3/5 200/3/5 199/3/5
f 204/2/5 199/2/5 203/2/5
f 205/3/5 200/3/5 204/3/5
f 206/3/5 203/3/5 202/3/5
f 207/3/5 203/3/5 206/3/5
f 209/2/5 208/2/5 207/2/5
f 210/2/5 208/2/5 209/2/5
f 212/1/5 211/1/5 210/1/5
f 213/1/5 211/1/5 212/1/5
f 214/1/6 215/1/6 218/1/6
f 215/2/6 216/2/6 219/2/6
f 218/1/6 215/1/6 219/1/6
f 219/2/6 216/2/6 220/2/6
f 217/2/6 218/2/6 222/2/6
f 222/2/6 218/2/6 223/2/6
f 220/2/6 221/2/6 225/2/6
f 225/2/6 221/2/6 226/2/6
f 223/3/6 224/3/6 227/3/6
f 227/3/6 224/3/6 228/3/6
f 228/1/6 229/1/6 230/1/6
f 230/1/6 229/1/6 231/1/6
f 231/2/6 232/2/6 235/2/6
f 235/2/6 232/2/6 236/2/6
f 233/2/6 234/2/6 238/2/6
f 234/3/6 235/3/6 239/3/6
f 238/2/6 234/2/6 239/2/6
f 239/3/6 235/3/6 240/3/6
f 237/3/6 238/3/6 241/3/6
f 241/3/6 238/3/6 242/3/6
f 242/2/6 243/2/6 244/2/6
f 244/2/6 243/2/6 245/2/6
f 245/1/6 246/1/6 247/1/6
f 247/1/6 246/1/6 248/1/6
f 249/2/6 250/2/6 252/2/6
f 250/3/6 251/3/6 253/3/6
f 252/2/6 250/2/6 253/2/6
f 253/3/6 251/3/6 254/3/6
