# MagicaVoxel @ Ephtracy

# group
g house1

# material
mtllib house1.mtl
usemtl palette

# normals
vn -1 0 0
vn 1 0 0
vn 0 0 1
vn 0 0 -1
vn 0 -1 0
vn 0 1 0

# texcoords
vt 0.970703 0.5
vt 0.974609 0.5
vt 0.978516 0.5
vt 0.982422 0.5
vt 0.986328 0.5

# verts
v -21 7 14
v -21 7 6
v -21 7 -6
v -21 7 -14
v -21 15 14
v -21 15 6
v -21 15 -6
v -21 15 -14
v -21 22 21
v -21 22 -21
v -21 23 21
v -21 23 -21
v -20 0 20
v -20 0 -20
v -20 7 14
v -20 7 6
v -20 7 -6
v -20 7 -14
v -20 15 14
v -20 15 6
v -20 15 -6
v -20 15 -14
v -20 22 20
v -20 22 -20
v -20 23 20
v -20 23 -20
v -20 24 20
v -20 24 -20
v -19 24 19
v -19 24 -19
v -19 25 19
v -19 25 -19
v -18 7 21
v -18 7 20
v -18 15 21
v -18 15 20
v -18 25 18
v -18 25 -18
v -18 26 18
v -18 26 -18
v -17 26 17
v -17 26 -17
v -17 27 17
v -17 27 -17
v -16 27 16
v -16 27 -16
v -16 28 16
v -16 28 -16
v -15 28 15
v -15 28 -15
v -15 29 15
v -15 29 -15
v -14 8 -20
v -14 8 -21
v -14 16 -20
v -14 16 -21
v -14 29 14
v -14 29 -14
v -14 30 14
v -14 30 -14
v -13 30 13
v -13 30 -13
v -13 31 13
v -13 31 -13
v -12 31 12
v -12 31 -12
v -12 32 12
v -12 32 -12
v -11 32 11
v -11 32 -11
v -11 33 11
v -11 33 -11
v -10 33 10
v -10 33 -10
v -10 34 10
v -10 34 -10
v -9 34 9
v -9 34 -9
v -9 35 9
v -9 35 -9
v -8 35 8
v -8 35 -8
v -8 36 8
v -8 36 -8
v -7 36 7
v -7 36 -7
v -7 37 7
v -7 37 -7
v -6 37 6
v -6 37 -6
v -6 38 6
v -6 38 -6
v -5 0 21
v -5 0 20
v -5 7 22
v -5 7 21
v -5 8 22
v -5 8 21
v -5 15 21
v -5 15 20
v -5 38 5
v -5 38 -5
v -5 39 5
v -5 39 -5
v -4 39 4
v -4 39 -4
v -4 40 4
v -4 40 -4
v -3 40 3
v -3 40 -3
v -3 41 3
v -3 41 -3
v -2 41 2
v -2 41 -2
v -2 42 2
v -2 42 -2
v -1 42 1
v -1 42 -1
v -1 43 1
v -1 43 -1
v 6 8 -20
v 6 8 -21
v 6 16 -20
v 6 16 -21
v 10 7 21
v 10 7 20
v 10 15 21
v 10 15 20
v -10 7 21
v -10 7 20
v -10 15 21
v -10 15 20
v -6 8 -20
v -6 8 -21
v -6 16 -20
v -6 16 -21
v -3 7 22
v -3 7 21
v -3 8 22
v -3 8 21
v 1 42 1
v 1 42 -1
v 1 43 1
v 1 43 -1
v 2 41 2
v 2 41 -2
v 2 42 2
v 2 42 -2
v 3 40 3
v 3 40 -3
v 3 41 3
v 3 41 -3
v 4 39 4
v 4 39 -4
v 4 40 4
v 4 40 -4
v 5 0 21
v 5 0 20
v 5 15 21
v 5 15 20
v 5 38 5
v 5 38 -5
v 5 39 5
v 5 39 -5
v 6 37 6
v 6 37 -6
v 6 38 6
v 6 38 -6
v 7 36 7
v 7 36 -7
v 7 37 7
v 7 37 -7
v 8 35 8
v 8 35 -8
v 8 36 8
v 8 36 -8
v 9 34 9
v 9 34 -9
v 9 35 9
v 9 35 -9
v 10 33 10
v 10 33 -10
v 10 34 10
v 10 34 -10
v 11 32 11
v 11 32 -11
v 11 33 11
v 11 33 -11
v 12 31 12
v 12 31 -12
v 12 32 12
v 12 32 -12
v 13 30 13
v 13 30 -13
v 13 31 13
v 13 31 -13
v 14 8 -20
v 14 8 -21
v 14 16 -20
v 14 16 -21
v 14 29 14
v 14 29 -14
v 14 30 14
v 14 30 -14
v 15 28 15
v 15 28 -15
v 15 29 15
v 15 29 -15
v 16 27 16
v 16 27 -16
v 16 28 16
v 16 28 -16
v 17 26 17
v 17 26 -17
v 17 27 17
v 17 27 -17
v 18 7 21
v 18 7 20
v 18 15 21
v 18 15 20
v 18 25 18
v 18 25 -18
v 18 26 18
v 18 26 -18
v 19 24 19
v 19 24 -19
v 19 25 19
v 19 25 -19
v 20 0 20
v 20 0 -20
v 20 7 14
v 20 7 6
v 20 7 -6
v 20 7 -14
v 20 15 14
v 20 15 6
v 20 15 -6
v 20 15 -14
v 20 22 20
v 20 22 -20
v 20 23 20
v 20 23 -20
v 20 24 20
v 20 24 -20
v 21 7 14
v 21 7 6
v 21 7 -6
v 21 7 -14
v 21 15 14
v 21 15 6
v 21 15 -6
v 21 15 -14
v 21 22 21
v 21 22 -21
v 21 23 21
v 21 23 -21
v -5 7 22
v -5 8 22
v -3 7 22
v -3 8 22
v -21 22 21
v -21 23 21
v -18 7 21
v -18 15 21
v -10 7 21
v -10 15 21
v -5 0 21
v -5 7 21
v -5 8 21
v -5 15 21
v -3 7 21
v -3 8 21
v 5 0 21
v 5 15 21
v 10 7 21
v 10 15 21
v 18 7 21
v 18 15 21
v 21 22 21
v 21 23 21
v -20 0 20
v -20 22 20
v -20 23 20
v -20 24 20
v -18 7 20
v -18 15 20
v -10 7 20
v -10 15 20
v -5 0 20
v -5 15 20
v 5 0 20
v 5 15 20
v 10 7 20
v 10 15 20
v 18 7 20
v 18 15 20
v 20 0 20
v 20 22 20
v 20 23 20
v 20 24 20
v -19 24 19
v -19 25 19
v 19 24 19
v 19 25 19
v -18 25 18
v -18 26 18
v 18 25 18
v 18 26 18
v -17 26 17
v -17 27 17
v 17 26 17
v 17 27 17
v -16 27 16
v -16 28 16
v 16 27 16
v 16 28 16
v -15 28 15
v -15 29 15
v 15 28 15
v 15 29 15
v -21 7 14
v -21 15 14
v -20 7 14
v -20 15 14
v -14 29 14
v -14 30 14
v 14 29 14
v 14 30 14
v 20 7 14
v 20 15 14
v 21 7 14
v 21 15 14
v -13 30 13
v -13 31 13
v 13 30 13
v 13 31 13
v -12 31 12
v -12 32 12
v 12 31 12
v 12 32 12
v -11 32 11
v -11 33 11
v 11 32 11
v 11 33 11
v -10 33 10
v -10 34 10
v 10 33 10
v 10 34 10
v -9 34 9
v -9 35 9
v 9 34 9
v 9 35 9
v -8 35 8
v -8 36 8
v 8 35 8
v 8 36 8
v -7 36 7
v -7 37 7
v 7 36 7
v 7 37 7
v -6 37 6
v -6 38 6
v 6 37 6
v 6 38 6
v -5 38 5
v -5 39 5
v 5 38 5
v 5 39 5
v -4 39 4
v -4 40 4
v 4 39 4
v 4 40 4
v -3 40 3
v -3 41 3
v 3 40 3
v 3 41 3
v -2 41 2
v -2 42 2
v 2 41 2
v 2 42 2
v -1 42 1
v -1 43 1
v 1 42 1
v 1 43 1
v -21 7 -6
v -21 15 -6
v -20 7 -6
v -20 15 -6
v 20 7 -6
v 20 15 -6
v 21 7 -6
v 21 15 -6
v -21 7 6
v -21 15 6
v -20 7 6
v -20 15 6
v 20 7 6
v 20 15 6
v 21 7 6
v 21 15 6
v -1 42 -1
v -1 43 -1
v 1 42 -1
v 1 43 -1
v -2 41 -2
v -2 42 -2
v 2 41 -2
v 2 42 -2
v -3 40 -3
v -3 41 -3
v 3 40 -3
v 3 41 -3
v -4 39 -4
v -4 40 -4
v 4 39 -4
v 4 40 -4
v -5 38 -5
v -5 39 -5
v 5 38 -5
v 5 39 -5
v -6 37 -6
v -6 38 -6
v 6 37 -6
v 6 38 -6
v -7 36 -7
v -7 37 -7
v 7 36 -7
v 7 37 -7
v -8 35 -8
v -8 36 -8
v 8 35 -8
v 8 36 -8
v -9 34 -9
v -9 35 -9
v 9 34 -9
v 9 35 -9
v -10 33 -10
v -10 34 -10
v 10 33 -10
v 10 34 -10
v -11 32 -11
v -11 33 -11
v 11 32 -11
v 11 33 -11
v -12 31 -12
v -12 32 -12
v 12 31 -12
v 12 32 -12
v -13 30 -13
v -13 31 -13
v 13 30 -13
v 13 31 -13
v -21 7 -14
v -21 15 -14
v -20 7 -14
v -20 15 -14
v -14 29 -14
v -14 30 -14
v 14 29 -14
v 14 30 -14
v 20 7 -14
v 20 15 -14
v 21 7 -14
v 21 15 -14
v -15 28 -15
v -15 29 -15
v 15 28 -15
v 15 29 -15
v -16 27 -16
v -16 28 -16
v 16 27 -16
v 16 28 -16
v -17 26 -17
v -17 27 -17
v 17 26 -17
v 17 27 -17
v -18 25 -18
v -18 26 -18
v 18 25 -18
v 18 26 -18
v -19 24 -19
v -19 25 -19
v 19 24 -19
v 19 25 -19
v -20 0 -20
v -20 22 -20
v -20 23 -20
v -20 24 -20
v -14 8 -20
v -14 16 -20
v -6 8 -20
v -6 16 -20
v 6 8 -20
v 6 16 -20
v 14 8 -20
v 14 16 -20
v 20 0 -20
v 20 22 -20
v 20 23 -20
v 20 24 -20
v -21 22 -21
v -21 23 -21
v -14 8 -21
v -14 16 -21
v -6 8 -21
v -6 16 -21
v 6 8 -21
v 6 16 -21
v 14 8 -21
v 14 16 -21
v 21 22 -21
v 21 23 -21
v -5 0 21
v 5 0 21
v -20 0 20
v -5 0 20
v 5 0 20
v 20 0 20
v -20 0 -20
v 20 0 -20
v -5 7 22
v -3 7 22
v -18 7 21
v -10 7 21
v -5 7 21
v -3 7 21
v 10 7 21
v 18 7 21
v -18 7 20
v -10 7 20
v 10 7 20
v 18 7 20
v -21 7 14
v -20 7 14
v 20 7 14
v 21 7 14
v -21 7 6
v -20 7 6
v 20 7 6
v 21 7 6
v -21 7 -6
v -20 7 -6
v 20 7 -6
v 21 7 -6
v -21 7 -14
v -20 7 -14
v 20 7 -14
v 21 7 -14
v -14 8 -20
v -6 8 -20
v 6 8 -20
v 14 8 -20
v -14 8 -21
v -6 8 -21
v 6 8 -21
v 14 8 -21
v -21 22 21
v 21 22 21
v -20 22 20
v 20 22 20
v -20 22 -20
v 20 22 -20
v -21 22 -21
v 21 22 -21
v -5 8 22
v -3 8 22
v -5 8 21
v -3 8 21
v -18 15 21
v -10 15 21
v -5 15 21
v 5 15 21
v 10 15 21
v 18 15 21
v -18 15 20
v -10 15 20
v -5 15 20
v 5 15 20
v 10 15 20
v 18 15 20
v -21 15 14
v -20 15 14
v 20 15 14
v 21 15 14
v -21 15 6
v -20 15 6
v 20 15 6
v 21 15 6
v -21 15 -6
v -20 15 -6
v 20 15 -6
v 21 15 -6
v -21 15 -14
v -20 15 -14
v 20 15 -14
v 21 15 -14
v -14 16 -20
v -6 16 -20
v 6 16 -20
v 14 16 -20
v -14 16 -21
v -6 16 -21
v 6 16 -21
v 14 16 -21
v -21 23 21
v 21 23 21
v -20 23 20
v 20 23 20
v -20 23 -20
v 20 23 -20
v -21 23 -21
v 21 23 -21
v -20 24 20
v 20 24 20
v -19 24 19
v 19 24 19
v -19 24 -19
v 19 24 -19
v -20 24 -20
v 20 24 -20
v -19 25 19
v 19 25 19
v -18 25 18
v 18 25 18
v -18 25 -18
v 18 25 -18
v -19 25 -19
v 19 25 -19
v -18 26 18
v 18 26 18
v -17 26 17
v 17 26 17
v -17 26 -17
v 17 26 -17
v -18 26 -18
v 18 26 -18
v -17 27 17
v 17 27 17
v -16 27 16
v 16 27 16
v -16 27 -16
v 16 27 -16
v -17 27 -17
v 17 27 -17
v -16 28 16
v 16 28 16
v -15 28 15
v 15 28 15
v -15 28 -15
v 15 28 -15
v -16 28 -16
v 16 28 -16
v -15 29 15
v 15 29 15
v -14 29 14
v 14 29 14
v -14 29 -14
v 14 29 -14
v -15 29 -15
v 15 29 -15
v -14 30 14
v 14 30 14
v -13 30 13
v 13 30 13
v -13 30 -13
v 13 30 -13
v -14 30 -14
v 14 30 -14
v -13 31 13
v 13 31 13
v -12 31 12
v 12 31 12
v -12 31 -12
v 12 31 -12
v -13 31 -13
v 13 31 -13
v -12 32 12
v 12 32 12
v -11 32 11
v 11 32 11
v -11 32 -11
v 11 32 -11
v -12 32 -12
v 12 32 -12
v -11 33 11
v 11 33 11
v -10 33 10
v 10 33 10
v -10 33 -10
v 10 33 -10
v -11 33 -11
v 11 33 -11
v -10 34 10
v 10 34 10
v -9 34 9
v 9 34 9
v -9 34 -9
v 9 34 -9
v -10 34 -10
v 10 34 -10
v -9 35 9
v 9 35 9
v -8 35 8
v 8 35 8
v -8 35 -8
v 8 35 -8
v -9 35 -9
v 9 35 -9
v -8 36 8
v 8 36 8
v -7 36 7
v 7 36 7
v -7 36 -7
v 7 36 -7
v -8 36 -8
v 8 36 -8
v -7 37 7
v 7 37 7
v -6 37 6
v 6 37 6
v -6 37 -6
v 6 37 -6
v -7 37 -7
v 7 37 -7
v -6 38 6
v 6 38 6
v -5 38 5
v 5 38 5
v -5 38 -5
v 5 38 -5
v -6 38 -6
v 6 38 -6
v -5 39 5
v 5 39 5
v -4 39 4
v 4 39 4
v -4 39 -4
v 4 39 -4
v -5 39 -5
v 5 39 -5
v -4 40 4
v 4 40 4
v -3 40 3
v 3 40 3
v -3 40 -3
v 3 40 -3
v -4 40 -4
v 4 40 -4
v -3 41 3
v 3 41 3
v -2 41 2
v 2 41 2
v -2 41 -2
v 2 41 -2
v -3 41 -3
v 3 41 -3
v -2 42 2
v 2 42 2
v -1 42 1
v 1 42 1
v -1 42 -1
v 1 42 -1
v -2 42 -2
v 2 42 -2
v -1 43 1
v 1 43 1
v -1 43 -1
v 1 43 -1

# faces
f 5/4/1 2/4/1 1/4/1
f 6/4/1 2/4/1 5/4/1
f 7/4/1 4/4/1 3/4/1
f 8/4/1 4/4/1 7/4/1
f 11/5/1 10/5/1 9/5/1
f 12/5/1 10/5/1 11/5/1
f 15/1/1 14/1/1 13/1/1
f 16/1/1 14/1/1 15/1/1
f 17/1/1 14/1/1 16/1/1
f 18/1/1 14/1/1 17/1/1
f 19/1/1 15/1/1 13/1/1
f 20/1/1 17/1/1 16/1/1
f 21/1/1 17/1/1 20/1/1
f 22/1/1 14/1/1 18/1/1
f 23/1/1 21/1/1 20/1/1
f 23/1/1 22/1/1 21/1/1
f 23/1/1 19/1/1 13/1/1
f 23/1/1 20/1/1 19/1/1
f 24/1/1 14/1/1 22/1/1
f 24/1/1 22/1/1 23/1/1
f 27/5/1 26/5/1 25/5/1
f 28/5/1 26/5/1 27/5/1
f 31/5/1 30/5/1 29/5/1
f 32/5/1 30/5/1 31/5/1
f 35/4/1 34/4/1 33/4/1
f 36/4/1 34/4/1 35/4/1
f 39/5/1 38/5/1 37/5/1
f 40/5/1 38/5/1 39/5/1
f 43/5/1 42/5/1 41/5/1
f 44/5/1 42/5/1 43/5/1
f 47/5/1 46/5/1 45/5/1
f 48/5/1 46/5/1 47/5/1
f 51/5/1 50/5/1 49/5/1
f 52/5/1 50/5/1 51/5/1
f 55/4/1 54/4/1 53/4/1
f 56/4/1 54/4/1 55/4/1
f 59/5/1 58/5/1 57/5/1
f 60/5/1 58/5/1 59/5/1
f 63/5/1 62/5/1 61/5/1
f 64/5/1 62/5/1 63/5/1
f 67/5/1 66/5/1 65/5/1
f 68/5/1 66/5/1 67/5/1
f 71/5/1 70/5/1 69/5/1
f 72/5/1 70/5/1 71/5/1
f 75/5/1 74/5/1 73/5/1
f 76/5/1 74/5/1 75/5/1
f 79/5/1 78/5/1 77/5/1
f 80/5/1 78/5/1 79/5/1
f 83/5/1 82/5/1 81/5/1
f 84/5/1 82/5/1 83/5/1
f 87/5/1 86/5/1 85/5/1
f 88/5/1 86/5/1 87/5/1
f 91/5/1 90/5/1 89/5/1
f 92/5/1 90/5/1 91/5/1
f 96/2/1 94/2/1 93/2/1
f 97/3/1 96/3/1 95/3/1
f 98/2/1 94/2/1 96/2/1
f 98/3/1 96/3/1 97/3/1
f 99/2/1 94/2/1 98/2/1
f 100/2/1 94/2/1 99/2/1
f 103/5/1 102/5/1 101/5/1
f 104/5/1 102/5/1 103/5/1
f 107/5/1 106/5/1 105/5/1
f 108/5/1 106/5/1 107/5/1
f 111/5/1 110/5/1 109/5/1
f 112/5/1 110/5/1 111/5/1
f 115/5/1 114/5/1 113/5/1
f 116/5/1 114/5/1 115/5/1
f 119/5/1 118/5/1 117/5/1
f 120/5/1 118/5/1 119/5/1
f 123/4/1 122/4/1 121/4/1
f 124/4/1 122/4/1 123/4/1
f 127/4/1 126/4/1 125/4/1
f 128/4/1 126/4/1 127/4/1
f 129/4/2 130/4/2 131/4/2
f 131/4/2 130/4/2 132/4/2
f 133/4/2 134/4/2 135/4/2
f 135/4/2 134/4/2 136/4/2
f 137/3/2 138/3/2 139/3/2
f 139/3/2 138/3/2 140/3/2
f 141/5/2 142/5/2 143/5/2
f 143/5/2 142/5/2 144/5/2
f 145/5/2 146/5/2 147/5/2
f 147/5/2 146/5/2 148/5/2
f 149/5/2 150/5/2 151/5/2
f 151/5/2 150/5/2 152/5/2
f 153/5/2 154/5/2 155/5/2
f 155/5/2 154/5/2 156/5/2
f 157/2/2 158/2/2 159/2/2
f 159/2/2 158/2/2 160/2/2
f 161/5/2 162/5/2 163/5/2
f 163/5/2 162/5/2 164/5/2
f 165/5/2 166/5/2 167/5/2
f 167/5/2 166/5/2 168/5/2
f 169/5/2 170/5/2 171/5/2
f 171/5/2 170/5/2 172/5/2
f 173/5/2 174/5/2 175/5/2
f 175/5/2 174/5/2 176/5/2
f 177/5/2 178/5/2 179/5/2
f 179/5/2 178/5/2 180/5/2
f 181/5/2 182/5/2 183/5/2
f 183/5/2 182/5/2 184/5/2
f 185/5/2 186/5/2 187/5/2
f 187/5/2 186/5/2 188/5/2
f 189/5/2 190/5/2 191/5/2
f 191/5/2 190/5/2 192/5/2
f 193/5/2 194/5/2 195/5/2
f 195/5/2 194/5/2 196/5/2
f 197/4/2 198/4/2 199/4/2
f 199/4/2 198/4/2 200/4/2
f 201/5/2 202/5/2 203/5/2
f 203/5/2 202/5/2 204/5/2
f 205/5/2 206/5/2 207/5/2
f 207/5/2 206/5/2 208/5/2
f 209/5/2 210/5/2 211/5/2
f 211/5/2 210/5/2 212/5/2
f 213/5/2 214/5/2 215/5/2
f 215/5/2 214/5/2 216/5/2
f 217/4/2 218/4/2 219/4/2
f 219/4/2 218/4/2 220/4/2
f 221/5/2 222/5/2 223/5/2
f 223/5/2 222/5/2 224/5/2
f 225/5/2 226/5/2 227/5/2
f 227/5/2 226/5/2 228/5/2
f 229/1/2 230/1/2 231/1/2
f 231/1/2 230/1/2 232/1/2
f 232/1/2 230/1/2 233/1/2
f 233/1/2 230/1/2 234/1/2
f 229/1/2 231/1/2 235/1/2
f 232/1/2 233/1/2 236/1/2
f 236/1/2 233/1/2 237/1/2
f 234/1/2 230/1/2 238/1/2
f 236/1/2 237/1/2 239/1/2
f 237/1/2 238/1/2 239/1/2
f 229/1/2 235/1/2 239/1/2
f 235/1/2 236/1/2 239/1/2
f 238/1/2 230/1/2 240/1/2
f 239/1/2 238/1/2 240/1/2
f 241/5/2 242/5/2 243/5/2
f 243/5/2 242/5/2 244/5/2
f 245/4/2 246/4/2 249/4/2
f 249/4/2 246/4/2 250/4/2
f 247/4/2 248/4/2 251/4/2
f 251/4/2 248/4/2 252/4/2
f 253/5/2 254/5/2 255/5/2
f 255/5/2 254/5/2 256/5/2
f 259/3/3 258/3/3 257/3/3
f 260/3/3 258/3/3 259/3/3
f 265/4/3 264/4/3 263/4/3
f 266/4/3 264/4/3 265/4/3
f 271/2/3 268/2/3 267/2/3
f 272/2/3 270/2/3 269/2/3
f 273/2/3 271/2/3 267/2/3
f 273/2/3 272/2/3 271/2/3
f 274/2/3 270/2/3 272/2/3
f 274/2/3 272/2/3 273/2/3
f 277/4/3 276/4/3 275/4/3
f 278/4/3 276/4/3 277/4/3
f 279/5/3 262/5/3 261/5/3
f 280/5/3 262/5/3 279/5/3
f 285/1/3 282/1/3 281/1/3
f 286/1/3 282/1/3 285/1/3
f 287/1/3 285/1/3 281/1/3
f 288/1/3 282/1/3 286/1/3
f 289/1/3 287/1/3 281/1/3
f 289/1/3 288/1/3 287/1/3
f 290/1/3 282/1/3 288/1/3
f 290/1/3 288/1/3 289/1/3
f 292/1/3 282/1/3 290/1/3
f 293/1/3 292/1/3 291/1/3
f 294/1/3 282/1/3 292/1/3
f 294/1/3 292/1/3 293/1/3
f 295/1/3 293/1/3 291/1/3
f 296/1/3 282/1/3 294/1/3
f 297/1/3 295/1/3 291/1/3
f 297/1/3 296/1/3 295/1/3
f 298/1/3 282/1/3 296/1/3
f 298/1/3 296/1/3 297/1/3
f 299/5/3 284/5/3 283/5/3
f 300/5/3 284/5/3 299/5/3
f 303/5/3 302/5/3 301/5/3
f 304/5/3 302/5/3 303/5/3
f 307/5/3 306/5/3 305/5/3
f 308/5/3 306/5/3 307/5/3
f 311/5/3 310/5/3 309/5/3
f 312/5/3 310/5/3 311/5/3
f 315/5/3 314/5/3 313/5/3
f 316/5/3 314/5/3 315/5/3
f 319/5/3 318/5/3 317/5/3
f 320/5/3 318/5/3 319/5/3
f 323/4/3 322/4/3 321/4/3
f 324/4/3 322/4/3 323/4/3
f 327/5/3 326/5/3 325/5/3
f 328/5/3 326/5/3 327/5/3
f 331/4/3 330/4/3 329/4/3
f 332/4/3 330/4/3 331/4/3
f 335/5/3 334/5/3 333/5/3
f 336/5/3 334/5/3 335/5/3
f 339/5/3 338/5/3 337/5/3
f 340/5/3 338/5/3 339/5/3
f 343/5/3 342/5/3 341/5/3
f 344/5/3 342/5/3 343/5/3
f 347/5/3 346/5/3 345/5/3
f 348/5/3 346/5/3 347/5/3
f 351/5/3 350/5/3 349/5/3
f 352/5/3 350/5/3 351/5/3
f 355/5/3 354/5/3 353/5/3
f 356/5/3 354/5/3 355/5/3
f 359/5/3 358/5/3 357/5/3
f 360/5/3 358/5/3 359/5/3
f 363/5/3 362/5/3 361/5/3
f 364/5/3 362/5/3 363/5/3
f 367/5/3 366/5/3 365/5/3
f 368/5/3 366/5/3 367/5/3
f 371/5/3 370/5/3 369/5/3
f 372/5/3 370/5/3 371/5/3
f 375/5/3 374/5/3 373/5/3
f 376/5/3 374/5/3 375/5/3
f 379/5/3 378/5/3 377/5/3
f 380/5/3 378/5/3 379/5/3
f 383/5/3 382/5/3 381/5/3
f 384/5/3 382/5/3 383/5/3
f 387/4/3 386/4/3 385/4/3
f 388/4/3 386/4/3 387/4/3
f 391/4/3 390/4/3 389/4/3
f 392/4/3 390/4/3 391/4/3
f 393/4/4 394/4/4 395/4/4
f 395/4/4 394/4/4 396/4/4
f 397/4/4 398/4/4 399/4/4
f 399/4/4 398/4/4 400/4/4
f 401/5/4 402/5/4 403/5/4
f 403/5/4 402/5/4 404/5/4
f 405/5/4 406/5/4 407/5/4
f 407/5/4 406/5/4 408/5/4
f 409/5/4 410/5/4 411/5/4
f 411/5/4 410/5/4 412/5/4
f 413/5/4 414/5/4 415/5/4
f 415/5/4 414/5/4 416/5/4
f 417/5/4 418/5/4 419/5/4
f 419/5/4 418/5/4 420/5/4
f 421/5/4 422/5/4 423/5/4
f 423/5/4 422/5/4 424/5/4
f 425/5/4 426/5/4 427/5/4
f 427/5/4 426/5/4 428/5/4
f 429/5/4 430/5/4 431/5/4
f 431/5/4 430/5/4 432/5/4
f 433/5/4 434/5/4 435/5/4
f 435/5/4 434/5/4 436/5/4
f 437/5/4 438/5/4 439/5/4
f 439/5/4 438/5/4 440/5/4
f 441/5/4 442/5/4 443/5/4
f 443/5/4 442/5/4 444/5/4
f 445/5/4 446/5/4 447/5/4
f 447/5/4 446/5/4 448/5/4
f 449/5/4 450/5/4 451/5/4
f 451/5/4 450/5/4 452/5/4
f 453/4/4 454/4/4 455/4/4
f 455/4/4 454/4/4 456/4/4
f 457/5/4 458/5/4 459/5/4
f 459/5/4 458/5/4 460/5/4
f 461/4/4 462/4/4 463/4/4
f 463/4/4 462/4/4 464/4/4
f 465/5/4 466/5/4 467/5/4
f 467/5/4 466/5/4 468/5/4
f 469/5/4 470/5/4 471/5/4
f 471/5/4 470/5/4 472/5/4
f 473/5/4 474/5/4 475/5/4
f 475/5/4 474/5/4 476/5/4
f 477/5/4 478/5/4 479/5/4
f 479/5/4 478/5/4 480/5/4
f 481/5/4 482/5/4 483/5/4
f 483/5/4 482/5/4 484/5/4
f 485/1/4 486/1/4 489/1/4
f 489/1/4 486/1/4 490/1/4
f 485/1/4 489/1/4 491/1/4
f 490/1/4 486/1/4 492/1/4
f 485/1/4 491/1/4 493/1/4
f 491/1/4 492/1/4 493/1/4
f 492/1/4 486/1/4 494/1/4
f 493/1/4 492/1/4 494/1/4
f 485/1/4 493/1/4 495/1/4
f 494/1/4 486/1/4 496/1/4
f 485/1/4 495/1/4 497/1/4
f 495/1/4 496/1/4 497/1/4
f 496/1/4 486/1/4 498/1/4
f 497/1/4 496/1/4 498/1/4
f 487/5/4 488/5/4 499/5/4
f 499/5/4 488/5/4 500/5/4
f 503/4/4 504/4/4 505/4/4
f 505/4/4 504/4/4 506/4/4
f 507/4/4 508/4/4 509/4/4
f 509/4/4 508/4/4 510/4/4
f 501/5/4 502/5/4 511/5/4
f 511/5/4 502/5/4 512/5/4
f 516/2/5 514/2/5 513/2/5
f 517/2/5 514/2/5 516/2/5
f 519/1/5 516/1/5 515/1/5
f 519/1/5 518/1/5 517/1/5
f 519/1/5 517/1/5 516/1/5
f 520/1/5 518/1/5 519/1/5
f 525/3/5 522/3/5 521/3/5
f 526/3/5 522/3/5 525/3/5
f 529/4/5 524/4/5 523/4/5
f 530/4/5 524/4/5 529/4/5
f 531/4/5 528/4/5 527/4/5
f 532/4/5 528/4/5 531/4/5
f 537/4/5 534/4/5 533/4/5
f 538/4/5 534/4/5 537/4/5
f 539/4/5 536/4/5 535/4/5
f 540/4/5 536/4/5 539/4/5
f 545/4/5 542/4/5 541/4/5
f 546/4/5 542/4/5 545/4/5
f 547/4/5 544/4/5 543/4/5
f 548/4/5 544/4/5 547/4/5
f 553/4/5 550/4/5 549/4/5
f 554/4/5 550/4/5 553/4/5
f 555/4/5 552/4/5 551/4/5
f 556/4/5 552/4/5 555/4/5
f 559/5/5 558/5/5 557/5/5
f 560/5/5 558/5/5 559/5/5
f 561/5/5 559/5/5 557/5/5
f 562/5/5 558/5/5 560/5/5
f 563/5/5 561/5/5 557/5/5
f 563/5/5 562/5/5 561/5/5
f 564/5/5 558/5/5 562/5/5
f 564/5/5 562/5/5 563/5/5
f 565/3/6 566/3/6 567/3/6
f 567/3/6 566/3/6 568/3/6
f 569/4/6 570/4/6 575/4/6
f 575/4/6 570/4/6 576/4/6
f 571/2/6 572/2/6 577/2/6
f 577/2/6 572/2/6 578/2/6
f 573/4/6 574/4/6 579/4/6
f 579/4/6 574/4/6 580/4/6
f 581/4/6 582/4/6 585/4/6
f 585/4/6 582/4/6 586/4/6
f 583/4/6 584/4/6 587/4/6
f 587/4/6 584/4/6 588/4/6
f 589/4/6 590/4/6 593/4/6
f 593/4/6 590/4/6 594/4/6
f 591/4/6 592/4/6 595/4/6
f 595/4/6 592/4/6 596/4/6
f 597/4/6 598/4/6 601/4/6
f 601/4/6 598/4/6 602/4/6
f 599/4/6 600/4/6 603/4/6
f 603/4/6 600/4/6 604/4/6
f 605/5/6 606/5/6 607/5/6
f 607/5/6 606/5/6 608/5/6
f 605/5/6 607/5/6 609/5/6
f 608/5/6 606/5/6 610/5/6
f 605/5/6 609/5/6 611/5/6
f 609/5/6 610/5/6 611/5/6
f 610/5/6 606/5/6 612/5/6
f 611/5/6 610/5/6 612/5/6
f 613/5/6 614/5/6 615/5/6
f 615/5/6 614/5/6 616/5/6
f 613/5/6 615/5/6 617/5/6
f 616/5/6 614/5/6 618/5/6
f 613/5/6 617/5/6 619/5/6
f 617/5/6 618/5/6 619/5/6
f 618/5/6 614/5/6 620/5/6
f 619/5/6 618/5/6 620/5/6
f 621/5/6 622/5/6 623/5/6
f 623/5/6 622/5/6 624/5/6
f 621/5/6 623/5/6 625/5/6
f 624/5/6 622/5/6 626/5/6
f 621/5/6 625/5/6 627/5/6
f 625/5/6 626/5/6 627/5/6
f 626/5/6 622/5/6 628/5/6
f 627/5/6 626/5/6 628/5/6
f 629/5/6 630/5/6 631/5/6
f 631/5/6 630/5/6 632/5/6
f 629/5/6 631/5/6 633/5/6
f 632/5/6 630/5/6 634/5/6
f 629/5/6 633/5/6 635/5/6
f 633/5/6 634/5/6 635/5/6
f 634/5/6 630/5/6 636/5/6
f 635/5/6 634/5/6 636/5/6
f 637/5/6 638/5/6 639/5/6
f 639/5/6 638/5/6 640/5/6
f 637/5/6 639/5/6 641/5/6
f 640/5/6 638/5/6 642/5/6
f 637/5/6 641/5/6 643/5/6
f 641/5/6 642/5/6 643/5/6
f 642/5/6 638/5/6 644/5/6
f 643/5/6 642/5/6 644/5/6
f 645/5/6 646/5/6 647/5/6
f 647/5/6 646/5/6 648/5/6
f 645/5/6 647/5/6 649/5/6
f 648/5/6 646/5/6 650/5/6
f 645/5/6 649/5/6 651/5/6
f 649/5/6 650/5/6 651/5/6
f 650/5/6 646/5/6 652/5/6
f 651/5/6 650/5/6 652/5/6
f 653/5/6 654/5/6 655/5/6
f 655/5/6 654/5/6 656/5/6
f 653/5/6 655/5/6 657/5/6
f 656/5/6 654/5/6 658/5/6
f 653/5/6 657/5/6 659/5/6
f 657/5/6 658/5/6 659/5/6
f 658/5/6 654/5/6 660/5/6
f 659/5/6 658/5/6 660/5/6
f 661/5/6 662/5/6 663/5/6
f 663/5/6 662/5/6 664/5/6
f 661/5/6 663/5/6 665/5/6
f 664/5/6 662/5/6 666/5/6
f 661/5/6 665/5/6 667/5/6
f 665/5/6 666/5/6 667/5/6
f 666/5/6 662/5/6 668/5/6
f 667/5/6 666/5/6 668/5/6
f 669/5/6 670/5/6 671/5/6
f 671/5/6 670/5/6 672/5/6
f 669/5/6 671/5/6 673/5/6
f 672/5/6 670/5/6 674/5/6
f 669/5/6 673/5/6 675/5/6
f 673/5/6 674/5/6 675/5/6
f 674/5/6 670/5/6 676/5/6
f 675/5/6 674/5/6 676/5/6
f 677/5/6 678/5/6 679/5/6
f 679/5/6 678/5/6 680/5/6
f 677/5/6 679/5/6 681/5/6
f 680/5/6 678/5/6 682/5/6
f 677/5/6 681/5/6 683/5/6
f 681/5/6 682/5/6 683/5/6
f 682/5/6 678/5/6 684/5/6
f 683/5/6 682/5/6 684/5/6
f 685/5/6 686/5/6 687/5/6
f 687/5/6 686/5/6 688/5/6
f 685/5/6 687/5/6 689/5/6
f 688/5/6 686/5/6 690/5/6
f 685/5/6 689/5/6 691/5/6
f 689/5/6 690/5/6 691/5/6
f 690/5/6 686/5/6 692/5/6
f 691/5/6 690/5/6 692/5/6
f 693/5/6 694/5/6 695/5/6
f 695/5/6 694/5/6 696/5/6
f 693/5/6 695/5/6 697/5/6
f 696/5/6 694/5/6 698/5/6
f 693/5/6 697/5/6 699/5/6
f 697/5/6 698/5/6 699/5/6
f 698/5/6 694/5/6 700/5/6
f 699/5/6 698/5/6 700/5/6
f 701/5/6 702/5/6 703/5/6
f 703/5/6 702/5/6 704/5/6
f 701/5/6 703/5/6 705/5/6
f 704/5/6 702/5/6 706/5/6
f 701/5/6 705/5/6 707/5/6
f 705/5/6 706/5/6 707/5/6
f 706/5/6 702/5/6 708/5/6
f 707/5/6 706/5/6 708/5/6
f 709/5/6 710/5/6 711/5/6
f 711/5/6 710/5/6 712/5/6
f 709/5/6 711/5/6 713/5/6
f 712/5/6 710/5/6 714/5/6
f 709/5/6 713/5/6 715/5/6
f 713/5/6 714/5/6 715/5/6
f 714/5/6 710/5/6 716/5/6
f 715/5/6 714/5/6 716/5/6
f 717/5/6 718/5/6 719/5/6
f 719/5/6 718/5/6 720/5/6
f 717/5/6 719/5/6 721/5/6
f 720/5/6 718/5/6 722/5/6
f 717/5/6 721/5/6 723/5/6
f 721/5/6 722/5/6 723/5/6
f 722/5/6 718/5/6 724/5/6
f 723/5/6 722/5/6 724/5/6
f 725/5/6 726/5/6 727/5/6
f 727/5/6 726/5/6 728/5/6
f 725/5/6 727/5/6 729/5/6
f 728/5/6 726/5/6 730/5/6
f 725/5/6 729/5/6 731/5/6
f 729/5/6 730/5/6 731/5/6
f 730/5/6 726/5/6 732/5/6
f 731/5/6 730/5/6 732/5/6
f 733/5/6 734/5/6 735/5/6
f 735/5/6 734/5/6 736/5/6
f 733/5/6 735/5/6 737/5/6
f 736/5/6 734/5/6 738/5/6
f 733/5/6 737/5/6 739/5/6
f 737/5/6 738/5/6 739/5/6
f 738/5/6 734/5/6 740/5/6
f 739/5/6 738/5/6 740/5/6
f 741/5/6 742/5/6 743/5/6
f 743/5/6 742/5/6 744/5/6
f 741/5/6 743/5/6 745/5/6
f 744/5/6 742/5/6 746/5/6
f 741/5/6 745/5/6 747/5/6
f 745/5/6 746/5/6 747/5/6
f 746/5/6 742/5/6 748/5/6
f 747/5/6 746/5/6 748/5/6
f 749/5/6 750/5/6 751/5/6
f 751/5/6 750/5/6 752/5/6
f 749/5/6 751/5/6 753/5/6
f 752/5/6 750/5/6 754/5/6
f 749/5/6 753/5/6 755/5/6
f 753/5/6 754/5/6 755/5/6
f 754/5/6 750/5/6 756/5/6
f 755/5/6 754/5/6 756/5/6
f 757/5/6 758/5/6 759/5/6
f 759/5/6 758/5/6 760/5/6
f 757/5/6 759/5/6 761/5/6
f 760/5/6 758/5/6 762/5/6
f 757/5/6 761/5/6 763/5/6
f 761/5/6 762/5/6 763/5/6
f 762/5/6 758/5/6 764/5/6
f 763/5/6 762/5/6 764/5/6
f 765/5/6 766/5/6 767/5/6
f 767/5/6 766/5/6 768/5/6
