# MagicaVoxel @ Ephtracy

# group
g house2

# material
mtllib house2.mtl
usemtl palette

# normals
vn -1 0 0
vn 1 0 0
vn 0 0 1
vn 0 0 -1
vn 0 -1 0
vn 0 1 0

# texcoords
vt 0.970703 0.5
vt 0.974609 0.5
vt 0.978516 0.5
vt 0.982422 0.5
vt 0.986328 0.5

# verts
v -21 7 14
v -21 7 6
v -21 7 -6
v -21 7 -14
v -21 15 14
v -21 15 6
v -21 15 -6
v -21 15 -14
v -21 22 21
v -21 22 -21
v -21 23 21
v -21 23 -21
v -20 0 20
v -20 0 -20
v -20 7 14
v -20 7 6
v -20 7 -6
v -20 7 -14
v -20 15 14
v -20 15 6
v -20 15 -6
v -20 15 -14
v -20 22 20
v -20 22 -20
v -20 23 20
v -20 23 -20
v -20 24 20
v -20 24 -20
v -19 24 19
v -19 24 -19
v -19 25 19
v -19 25 -19
v -18 7 21
v -18 7 20
v -18 15 21
v -18 15 20
v -18 25 18
v -18 25 -18
v -18 26 18
v -18 26 -18
v -17 26 17
v -17 26 -17
v -17 27 17
v -17 27 -17
v -16 27 16
v -16 27 -16
v -16 28 16
v -16 28 -16
v -15 28 15
v -15 28 -15
v -15 29 15
v -15 29 -15
v -14 8 -20
v -14 8 -21
v -14 16 -20
v -14 16 -21
v -14 29 14
v -14 29 -14
v -14 30 14
v -14 30 2
v -14 30 1
v -14 30 -3
v -14 30 -14
v -14 40 2
v -14 40 1
v -14 40 -3
v -13 30 13
v -13 30 2
v -13 30 -3
v -13 30 -13
v -13 31 13
v -13 31 2
v -13 31 -3
v -13 31 -13
v -12 31 12
v -12 31 2
v -12 31 -3
v -12 31 -12
v -12 32 12
v -12 32 2
v -12 32 -3
v -12 32 -12
v -11 32 11
v -11 32 2
v -11 32 -3
v -11 32 -11
v -11 33 11
v -11 33 2
v -11 33 -3
v -11 33 -11
v -10 33 10
v -10 33 2
v -10 33 -3
v -10 33 -10
v -10 34 10
v -10 34 2
v -10 34 -3
v -10 34 -10
v -9 34 9
v -9 34 2
v -9 34 -3
v -9 34 -9
v -9 35 9
v -9 35 2
v -9 35 -3
v -9 35 -9
v -8 35 8
v -8 35 -8
v -8 36 8
v -8 36 -8
v -7 36 7
v -7 36 -7
v -7 37 7
v -7 37 -7
v -6 37 6
v -6 37 -6
v -6 38 6
v -6 38 -6
v -5 0 21
v -5 0 20
v -5 7 22
v -5 7 21
v -5 8 22
v -5 8 21
v -5 15 21
v -5 15 20
v -5 38 5
v -5 38 -5
v -5 39 5
v -5 39 -5
v -4 39 4
v -4 39 -4
v -4 40 4
v -4 40 -4
v -3 40 3
v -3 40 -3
v -3 41 3
v -3 41 -3
v -2 41 2
v -2 41 -2
v -2 42 2
v -2 42 -2
v -1 42 1
v -1 42 -1
v -1 43 1
v -1 43 -1
v 6 8 -20
v 6 8 -21
v 6 16 -20
v 6 16 -21
v 10 7 21
v 10 7 20
v 10 15 21
v 10 15 20
v -10 7 21
v -10 7 20
v -10 15 21
v -10 15 20
v -9 35 2
v -9 35 1
v -9 35 -3
v -9 40 2
v -9 40 1
v -9 40 -3
v -6 8 -20
v -6 8 -21
v -6 16 -20
v -6 16 -21
v -3 7 22
v -3 7 21
v -3 8 22
v -3 8 21
v 1 42 1
v 1 42 -1
v 1 43 1
v 1 43 -1
v 2 41 2
v 2 41 -2
v 2 42 2
v 2 42 -2
v 3 40 3
v 3 40 -3
v 3 41 3
v 3 41 -3
v 4 39 4
v 4 39 -4
v 4 40 4
v 4 40 -4
v 5 0 21
v 5 0 20
v 5 15 21
v 5 15 20
v 5 38 5
v 5 38 -5
v 5 39 5
v 5 39 -5
v 6 37 6
v 6 37 -6
v 6 38 6
v 6 38 -6
v 7 36 7
v 7 36 -7
v 7 37 7
v 7 37 -7
v 8 35 8
v 8 35 -8
v 8 36 8
v 8 36 -8
v 9 34 9
v 9 34 -9
v 9 35 9
v 9 35 -9
v 10 33 10
v 10 33 -10
v 10 34 10
v 10 34 -10
v 11 32 11
v 11 32 -11
v 11 33 11
v 11 33 -11
v 12 31 12
v 12 31 -12
v 12 32 12
v 12 32 -12
v 13 30 13
v 13 30 -13
v 13 31 13
v 13 31 -13
v 14 8 -20
v 14 8 -21
v 14 16 -20
v 14 16 -21
v 14 29 14
v 14 29 -14
v 14 30 14
v 14 30 -14
v 15 28 15
v 15 28 -15
v 15 29 15
v 15 29 -15
v 16 27 16
v 16 27 -16
v 16 28 16
v 16 28 -16
v 17 26 17
v 17 26 -17
v 17 27 17
v 17 27 -17
v 18 7 21
v 18 7 20
v 18 15 21
v 18 15 20
v 18 25 18
v 18 25 -18
v 18 26 18
v 18 26 -18
v 19 24 19
v 19 24 -19
v 19 25 19
v 19 25 -19
v 20 0 20
v 20 0 -20
v 20 7 14
v 20 7 6
v 20 7 -6
v 20 7 -14
v 20 15 14
v 20 15 6
v 20 15 -6
v 20 15 -14
v 20 22 20
v 20 22 -20
v 20 23 20
v 20 23 -20
v 20 24 20
v 20 24 -20
v 21 7 14
v 21 7 6
v 21 7 -6
v 21 7 -14
v 21 15 14
v 21 15 6
v 21 15 -6
v 21 15 -14
v 21 22 21
v 21 22 -21
v 21 23 21
v 21 23 -21
v -5 7 22
v -5 8 22
v -3 7 22
v -3 8 22
v -21 22 21
v -21 23 21
v -18 7 21
v -18 15 21
v -10 7 21
v -10 15 21
v -5 0 21
v -5 7 21
v -5 8 21
v -5 15 21
v -3 7 21
v -3 8 21
v 5 0 21
v 5 15 21
v 10 7 21
v 10 15 21
v 18 7 21
v 18 15 21
v 21 22 21
v 21 23 21
v -20 0 20
v -20 22 20
v -20 23 20
v -20 24 20
v -18 7 20
v -18 15 20
v -10 7 20
v -10 15 20
v -5 0 20
v -5 15 20
v 5 0 20
v 5 15 20
v 10 7 20
v 10 15 20
v 18 7 20
v 18 15 20
v 20 0 20
v 20 22 20
v 20 23 20
v 20 24 20
v -19 24 19
v -19 25 19
v 19 24 19
v 19 25 19
v -18 25 18
v -18 26 18
v 18 25 18
v 18 26 18
v -17 26 17
v -17 27 17
v 17 26 17
v 17 27 17
v -16 27 16
v -16 28 16
v 16 27 16
v 16 28 16
v -15 28 15
v -15 29 15
v 15 28 15
v 15 29 15
v -21 7 14
v -21 15 14
v -20 7 14
v -20 15 14
v -14 29 14
v -14 30 14
v 14 29 14
v 14 30 14
v 20 7 14
v 20 15 14
v 21 7 14
v 21 15 14
v -13 30 13
v -13 31 13
v 13 30 13
v 13 31 13
v -12 31 12
v -12 32 12
v 12 31 12
v 12 32 12
v -11 32 11
v -11 33 11
v 11 32 11
v 11 33 11
v -10 33 10
v -10 34 10
v 10 33 10
v 10 34 10
v -9 34 9
v -9 35 9
v 9 34 9
v 9 35 9
v -8 35 8
v -8 36 8
v 8 35 8
v 8 36 8
v -7 36 7
v -7 37 7
v 7 36 7
v 7 37 7
v -6 37 6
v -6 38 6
v 6 37 6
v 6 38 6
v -5 38 5
v -5 39 5
v 5 38 5
v 5 39 5
v -4 39 4
v -4 40 4
v 4 39 4
v 4 40 4
v -3 40 3
v -3 41 3
v 3 40 3
v 3 41 3
v -14 30 2
v -14 40 2
v -13 30 2
v -13 31 2
v -12 31 2
v -12 32 2
v -11 32 2
v -11 33 2
v -10 33 2
v -10 34 2
v -9 34 2
v -9 35 2
v -9 40 2
v -2 41 2
v -2 42 2
v 2 41 2
v 2 42 2
v -1 42 1
v -1 43 1
v 1 42 1
v 1 43 1
v -21 7 -6
v -21 15 -6
v -20 7 -6
v -20 15 -6
v 20 7 -6
v 20 15 -6
v 21 7 -6
v 21 15 -6
v -21 7 6
v -21 15 6
v -20 7 6
v -20 15 6
v 20 7 6
v 20 15 6
v 21 7 6
v 21 15 6
v -1 42 -1
v -1 43 -1
v 1 42 -1
v 1 43 -1
v -2 41 -2
v -2 42 -2
v 2 41 -2
v 2 42 -2
v -14 30 -3
v -14 40 -3
v -13 30 -3
v -13 31 -3
v -12 31 -3
v -12 32 -3
v -11 32 -3
v -11 33 -3
v -10 33 -3
v -10 34 -3
v -9 34 -3
v -9 35 -3
v -9 40 -3
v -3 40 -3
v -3 41 -3
v 3 40 -3
v 3 41 -3
v -4 39 -4
v -4 40 -4
v 4 39 -4
v 4 40 -4
v -5 38 -5
v -5 39 -5
v 5 38 -5
v 5 39 -5
v -6 37 -6
v -6 38 -6
v 6 37 -6
v 6 38 -6
v -7 36 -7
v -7 37 -7
v 7 36 -7
v 7 37 -7
v -8 35 -8
v -8 36 -8
v 8 35 -8
v 8 36 -8
v -9 34 -9
v -9 35 -9
v 9 34 -9
v 9 35 -9
v -10 33 -10
v -10 34 -10
v 10 33 -10
v 10 34 -10
v -11 32 -11
v -11 33 -11
v 11 32 -11
v 11 33 -11
v -12 31 -12
v -12 32 -12
v 12 31 -12
v 12 32 -12
v -13 30 -13
v -13 31 -13
v 13 30 -13
v 13 31 -13
v -21 7 -14
v -21 15 -14
v -20 7 -14
v -20 15 -14
v -14 29 -14
v -14 30 -14
v 14 29 -14
v 14 30 -14
v 20 7 -14
v 20 15 -14
v 21 7 -14
v 21 15 -14
v -15 28 -15
v -15 29 -15
v 15 28 -15
v 15 29 -15
v -16 27 -16
v -16 28 -16
v 16 27 -16
v 16 28 -16
v -17 26 -17
v -17 27 -17
v 17 26 -17
v 17 27 -17
v -18 25 -18
v -18 26 -18
v 18 25 -18
v 18 26 -18
v -19 24 -19
v -19 25 -19
v 19 24 -19
v 19 25 -19
v -20 0 -20
v -20 22 -20
v -20 23 -20
v -20 24 -20
v -14 8 -20
v -14 16 -20
v -6 8 -20
v -6 16 -20
v 6 8 -20
v 6 16 -20
v 14 8 -20
v 14 16 -20
v 20 0 -20
v 20 22 -20
v 20 23 -20
v 20 24 -20
v -21 22 -21
v -21 23 -21
v -14 8 -21
v -14 16 -21
v -6 8 -21
v -6 16 -21
v 6 8 -21
v 6 16 -21
v 14 8 -21
v 14 16 -21
v 21 22 -21
v 21 23 -21
v -5 0 21
v 5 0 21
v -20 0 20
v -5 0 20
v 5 0 20
v 20 0 20
v -20 0 -20
v 20 0 -20
v -5 7 22
v -3 7 22
v -18 7 21
v -10 7 21
v -5 7 21
v -3 7 21
v 10 7 21
v 18 7 21
v -18 7 20
v -10 7 20
v 10 7 20
v 18 7 20
v -21 7 14
v -20 7 14
v 20 7 14
v 21 7 14
v -21 7 6
v -20 7 6
v 20 7 6
v 21 7 6
v -21 7 -6
v -20 7 -6
v 20 7 -6
v 21 7 -6
v -21 7 -14
v -20 7 -14
v 20 7 -14
v 21 7 -14
v -14 8 -20
v -6 8 -20
v 6 8 -20
v 14 8 -20
v -14 8 -21
v -6 8 -21
v 6 8 -21
v 14 8 -21
v -21 22 21
v 21 22 21
v -20 22 20
v 20 22 20
v -20 22 -20
v 20 22 -20
v -21 22 -21
v 21 22 -21
v -5 8 22
v -3 8 22
v -5 8 21
v -3 8 21
v -18 15 21
v -10 15 21
v -5 15 21
v 5 15 21
v 10 15 21
v 18 15 21
v -18 15 20
v -10 15 20
v -5 15 20
v 5 15 20
v 10 15 20
v 18 15 20
v -21 15 14
v -20 15 14
v 20 15 14
v 21 15 14
v -21 15 6
v -20 15 6
v 20 15 6
v 21 15 6
v -21 15 -6
v -20 15 -6
v 20 15 -6
v 21 15 -6
v -21 15 -14
v -20 15 -14
v 20 15 -14
v 21 15 -14
v -14 16 -20
v -6 16 -20
v 6 16 -20
v 14 16 -20
v -14 16 -21
v -6 16 -21
v 6 16 -21
v 14 16 -21
v -21 23 21
v 21 23 21
v -20 23 20
v 20 23 20
v -20 23 -20
v 20 23 -20
v -21 23 -21
v 21 23 -21
v -20 24 20
v 20 24 20
v -19 24 19
v 19 24 19
v -19 24 -19
v 19 24 -19
v -20 24 -20
v 20 24 -20
v -19 25 19
v 19 25 19
v -18 25 18
v 18 25 18
v -18 25 -18
v 18 25 -18
v -19 25 -19
v 19 25 -19
v -18 26 18
v 18 26 18
v -17 26 17
v 17 26 17
v -17 26 -17
v 17 26 -17
v -18 26 -18
v 18 26 -18
v -17 27 17
v 17 27 17
v -16 27 16
v 16 27 16
v -16 27 -16
v 16 27 -16
v -17 27 -17
v 17 27 -17
v -16 28 16
v 16 28 16
v -15 28 15
v 15 28 15
v -15 28 -15
v 15 28 -15
v -16 28 -16
v 16 28 -16
v -15 29 15
v 15 29 15
v -14 29 14
v 14 29 14
v -14 29 -14
v 14 29 -14
v -15 29 -15
v 15 29 -15
v -14 30 14
v 14 30 14
v -13 30 13
v 13 30 13
v -14 30 2
v -13 30 2
v -14 30 -3
v -13 30 -3
v -13 30 -13
v 13 30 -13
v -14 30 -14
v 14 30 -14
v -13 31 13
v 13 31 13
v -12 31 12
v 12 31 12
v -13 31 2
v -12 31 2
v -13 31 -3
v -12 31 -3
v -12 31 -12
v 12 31 -12
v -13 31 -13
v 13 31 -13
v -12 32 12
v 12 32 12
v -11 32 11
v 11 32 11
v -12 32 2
v -11 32 2
v -12 32 -3
v -11 32 -3
v -11 32 -11
v 11 32 -11
v -12 32 -12
v 12 32 -12
v -11 33 11
v 11 33 11
v -10 33 10
v 10 33 10
v -11 33 2
v -10 33 2
v -11 33 -3
v -10 33 -3
v -10 33 -10
v 10 33 -10
v -11 33 -11
v 11 33 -11
v -10 34 10
v 10 34 10
v -9 34 9
v 9 34 9
v -10 34 2
v -9 34 2
v -10 34 -3
v -9 34 -3
v -9 34 -9
v 9 34 -9
v -10 34 -10
v 10 34 -10
v -9 35 9
v 9 35 9
v -8 35 8
v 8 35 8
v -9 35 2
v -9 35 1
v -9 35 -3
v -8 35 -8
v 8 35 -8
v -9 35 -9
v 9 35 -9
v -8 36 8
v 8 36 8
v -7 36 7
v 7 36 7
v -7 36 -7
v 7 36 -7
v -8 36 -8
v 8 36 -8
v -7 37 7
v 7 37 7
v -6 37 6
v 6 37 6
v -6 37 -6
v 6 37 -6
v -7 37 -7
v 7 37 -7
v -6 38 6
v 6 38 6
v -5 38 5
v 5 38 5
v -5 38 -5
v 5 38 -5
v -6 38 -6
v 6 38 -6
v -5 39 5
v 5 39 5
v -4 39 4
v 4 39 4
v -4 39 -4
v 4 39 -4
v -5 39 -5
v 5 39 -5
v -4 40 4
v 4 40 4
v -3 40 3
v 3 40 3
v -14 40 2
v -9 40 2
v -14 40 1
v -9 40 1
v -14 40 -3
v -9 40 -3
v -3 40 -3
v 3 40 -3
v -4 40 -4
v 4 40 -4
v -3 41 3
v 3 41 3
v -2 41 2
v 2 41 2
v -2 41 -2
v 2 41 -2
v -3 41 -3
v 3 41 -3
v -2 42 2
v 2 42 2
v -1 42 1
v 1 42 1
v -1 42 -1
v 1 42 -1
v -2 42 -2
v 2 42 -2
v -1 43 1
v 1 43 1
v -1 43 -1
v 1 43 -1

# faces
f 5/4/1 2/4/1 1/4/1
f 6/4/1 2/4/1 5/4/1
f 7/4/1 4/4/1 3/4/1
f 8/4/1 4/4/1 7/4/1
f 11/5/1 10/5/1 9/5/1
f 12/5/1 10/5/1 11/5/1
f 15/1/1 14/1/1 13/1/1
f 16/1/1 14/1/1 15/1/1
f 17/1/1 14/1/1 16/1/1
f 18/1/1 14/1/1 17/1/1
f 19/1/1 15/1/1 13/1/1
f 20/1/1 17/1/1 16/1/1
f 21/1/1 17/1/1 20/1/1
f 22/1/1 14/1/1 18/1/1
f 23/1/1 21/1/1 20/1/1
f 23/1/1 22/1/1 21/1/1
f 23/1/1 19/1/1 13/1/1
f 23/1/1 20/1/1 19/1/1
f 24/1/1 14/1/1 22/1/1
f 24/1/1 22/1/1 23/1/1
f 27/5/1 26/5/1 25/5/1
f 28/5/1 26/5/1 27/5/1
f 31/5/1 30/5/1 29/5/1
f 32/5/1 30/5/1 31/5/1
f 35/4/1 34/4/1 33/4/1
f 36/4/1 34/4/1 35/4/1
f 39/5/1 38/5/1 37/5/1
f 40/5/1 38/5/1 39/5/1
f 43/5/1 42/5/1 41/5/1
f 44/5/1 42/5/1 43/5/1
f 47/5/1 46/5/1 45/5/1
f 48/5/1 46/5/1 47/5/1
f 51/5/1 50/5/1 49/5/1
f 52/5/1 50/5/1 51/5/1
f 55/4/1 54/4/1 53/4/1
f 56/4/1 54/4/1 55/4/1
f 59/5/1 58/5/1 57/5/1
f 60/5/1 58/5/1 59/5/1
f 61/5/1 58/5/1 60/5/1
f 62/5/1 58/5/1 61/5/1
f 63/5/1 58/5/1 62/5/1
f 64/4/1 61/4/1 60/4/1
f 65/5/1 62/5/1 61/5/1
f 65/4/1 61/4/1 64/4/1
f 66/5/1 62/5/1 65/5/1
f 71/5/1 68/5/1 67/5/1
f 72/5/1 68/5/1 71/5/1
f 73/5/1 70/5/1 69/5/1
f 74/5/1 70/5/1 73/5/1
f 79/5/1 76/5/1 75/5/1
f 80/5/1 76/5/1 79/5/1
f 81/5/1 78/5/1 77/5/1
f 82/5/1 78/5/1 81/5/1
f 87/5/1 84/5/1 83/5/1
f 88/5/1 84/5/1 87/5/1
f 89/5/1 86/5/1 85/5/1
f 90/5/1 86/5/1 89/5/1
f 95/5/1 92/5/1 91/5/1
f 96/5/1 92/5/1 95/5/1
f 97/5/1 94/5/1 93/5/1
f 98/5/1 94/5/1 97/5/1
f 103/5/1 100/5/1 99/5/1
f 104/5/1 100/5/1 103/5/1
f 105/5/1 102/5/1 101/5/1
f 106/5/1 102/5/1 105/5/1
f 109/5/1 108/5/1 107/5/1
f 110/5/1 108/5/1 109/5/1
f 113/5/1 112/5/1 111/5/1
f 114/5/1 112/5/1 113/5/1
f 117/5/1 116/5/1 115/5/1
f 118/5/1 116/5/1 117/5/1
f 122/2/1 120/2/1 119/2/1
f 123/3/1 122/3/1 121/3/1
f 124/2/1 120/2/1 122/2/1
f 124/3/1 122/3/1 123/3/1
f 125/2/1 120/2/1 124/2/1
f 126/2/1 120/2/1 125/2/1
f 129/5/1 128/5/1 127/5/1
f 130/5/1 128/5/1 129/5/1
f 133/5/1 132/5/1 131/5/1
f 134/5/1 132/5/1 133/5/1
f 137/5/1 136/5/1 135/5/1
f 138/5/1 136/5/1 137/5/1
f 141/5/1 140/5/1 139/5/1
f 142/5/1 140/5/1 141/5/1
f 145/5/1 144/5/1 143/5/1
f 146/5/1 144/5/1 145/5/1
f 149/4/1 148/4/1 147/4/1
f 150/4/1 148/4/1 149/4/1
f 153/4/1 152/4/1 151/4/1
f 154/4/1 152/4/1 153/4/1
f 155/4/2 156/4/2 157/4/2
f 157/4/2 156/4/2 158/4/2
f 159/4/2 160/4/2 162/4/2
f 160/5/2 161/5/2 163/5/2
f 162/4/2 160/4/2 163/4/2
f 163/5/2 161/5/2 164/5/2
f 165/4/2 166/4/2 167/4/2
f 167/4/2 166/4/2 168/4/2
f 169/3/2 170/3/2 171/3/2
f 171/3/2 170/3/2 172/3/2
f 173/5/2 174/5/2 175/5/2
f 175/5/2 174/5/2 176/5/2
f 177/5/2 178/5/2 179/5/2
f 179/5/2 178/5/2 180/5/2
f 181/5/2 182/5/2 183/5/2
f 183/5/2 182/5/2 184/5/2
f 185/5/2 186/5/2 187/5/2
f 187/5/2 186/5/2 188/5/2
f 189/2/2 190/2/2 191/2/2
f 191/2/2 190/2/2 192/2/2
f 193/5/2 194/5/2 195/5/2
f 195/5/2 194/5/2 196/5/2
f 197/5/2 198/5/2 199/5/2
f 199/5/2 198/5/2 200/5/2
f 201/5/2 202/5/2 203/5/2
f 203/5/2 202/5/2 204/5/2
f 205/5/2 206/5/2 207/5/2
f 207/5/2 206/5/2 208/5/2
f 209/5/2 210/5/2 211/5/2
f 211/5/2 210/5/2 212/5/2
f 213/5/2 214/5/2 215/5/2
f 215/5/2 214/5/2 216/5/2
f 217/5/2 218/5/2 219/5/2
f 219/5/2 218/5/2 220/5/2
f 221/5/2 222/5/2 223/5/2
f 223/5/2 222/5/2 224/5/2
f 225/5/2 226/5/2 227/5/2
f 227/5/2 226/5/2 228/5/2
f 229/4/2 230/4/2 231/4/2
f 231/4/2 230/4/2 232/4/2
f 233/5/2 234/5/2 235/5/2
f 235/5/2 234/5/2 236/5/2
f 237/5/2 238/5/2 239/5/2
f 239/5/2 238/5/2 240/5/2
f 241/5/2 242/5/2 243/5/2
f 243/5/2 242/5/2 244/5/2
f 245/5/2 246/5/2 247/5/2
f 247/5/2 246/5/2 248/5/2
f 249/4/2 250/4/2 251/4/2
f 251/4/2 250/4/2 252/4/2
f 253/5/2 254/5/2 255/5/2
f 255/5/2 254/5/2 256/5/2
f 257/5/2 258/5/2 259/5/2
f 259/5/2 258/5/2 260/5/2
f 261/1/2 262/1/2 263/1/2
f 263/1/2 262/1/2 264/1/2
f 264/1/2 262/1/2 265/1/2
f 265/1/2 262/1/2 266/1/2
f 261/1/2 263/1/2 267/1/2
f 264/1/2 265/1/2 268/1/2
f 268/1/2 265/1/2 269/1/2
f 266/1/2 262/1/2 270/1/2
f 268/1/2 269/1/2 271/1/2
f 269/1/2 270/1/2 271/1/2
f 261/1/2 267/1/2 271/1/2
f 267/1/2 268/1/2 271/1/2
f 270/1/2 262/1/2 272/1/2
f 271/1/2 270/1/2 272/1/2
f 273/5/2 274/5/2 275/5/2
f 275/5/2 274/5/2 276/5/2
f 277/4/2 278/4/2 281/4/2
f 281/4/2 278/4/2 282/4/2
f 279/4/2 280/4/2 283/4/2
f 283/4/2 280/4/2 284/4/2
f 285/5/2 286/5/2 287/5/2
f 287/5/2 286/5/2 288/5/2
f 291/3/3 290/3/3 289/3/3
f 292/3/3 290/3/3 291/3/3
f 297/4/3 296/4/3 295/4/3
f 298/4/3 296/4/3 297/4/3
f 303/2/3 300/2/3 299/2/3
f 304/2/3 302/2/3 301/2/3
f 305/2/3 303/2/3 299/2/3
f 305/2/3 304/2/3 303/2/3
f 306/2/3 302/2/3 304/2/3
f 306/2/3 304/2/3 305/2/3
f 309/4/3 308/4/3 307/4/3
f 310/4/3 308/4/3 309/4/3
f 311/5/3 294/5/3 293/5/3
f 312/5/3 294/5/3 311/5/3
f 317/1/3 314/1/3 313/1/3
f 318/1/3 314/1/3 317/1/3
f 319/1/3 317/1/3 313/1/3
f 320/1/3 314/1/3 318/1/3
f 321/1/3 319/1/3 313/1/3
f 321/1/3 320/1/3 319/1/3
f 322/1/3 314/1/3 320/1/3
f 322/1/3 320/1/3 321/1/3
f 324/1/3 314/1/3 322/1/3
f 325/1/3 324/1/3 323/1/3
f 326/1/3 314/1/3 324/1/3
f 326/1/3 324/1/3 325/1/3
f 327/1/3 325/1/3 323/1/3
f 328/1/3 314/1/3 326/1/3
f 329/1/3 327/1/3 323/1/3
f 329/1/3 328/1/3 327/1/3
f 330/1/3 314/1/3 328/1/3
f 330/1/3 328/1/3 329/1/3
f 331/5/3 316/5/3 315/5/3
f 332/5/3 316/5/3 331/5/3
f 335/5/3 334/5/3 333/5/3
f 336/5/3 334/5/3 335/5/3
f 339/5/3 338/5/3 337/5/3
f 340/5/3 338/5/3 339/5/3
f 343/5/3 342/5/3 341/5/3
f 344/5/3 342/5/3 343/5/3
f 347/5/3 346/5/3 345/5/3
f 348/5/3 346/5/3 347/5/3
f 351/5/3 350/5/3 349/5/3
f 352/5/3 350/5/3 351/5/3
f 355/4/3 354/4/3 353/4/3
f 356/4/3 354/4/3 355/4/3
f 359/5/3 358/5/3 357/5/3
f 360/5/3 358/5/3 359/5/3
f 363/4/3 362/4/3 361/4/3
f 364/4/3 362/4/3 363/4/3
f 367/5/3 366/5/3 365/5/3
f 368/5/3 366/5/3 367/5/3
f 371/5/3 370/5/3 369/5/3
f 372/5/3 370/5/3 371/5/3
f 375/5/3 374/5/3 373/5/3
f 376/5/3 374/5/3 375/5/3
f 379/5/3 378/5/3 377/5/3
f 380/5/3 378/5/3 379/5/3
f 383/5/3 382/5/3 381/5/3
f 384/5/3 382/5/3 383/5/3
f 387/5/3 386/5/3 385/5/3
f 388/5/3 386/5/3 387/5/3
f 391/5/3 390/5/3 389/5/3
f 392/5/3 390/5/3 391/5/3
f 395/5/3 394/5/3 393/5/3
f 396/5/3 394/5/3 395/5/3
f 399/5/3 398/5/3 397/5/3
f 400/5/3 398/5/3 399/5/3
f 403/5/3 402/5/3 401/5/3
f 404/5/3 402/5/3 403/5/3
f 407/5/3 406/5/3 405/5/3
f 408/5/3 406/5/3 407/5/3
f 411/4/3 410/4/3 409/4/3
f 412/4/3 410/4/3 411/4/3
f 413/4/3 410/4/3 412/4/3
f 414/4/3 410/4/3 413/4/3
f 415/4/3 410/4/3 414/4/3
f 416/4/3 410/4/3 415/4/3
f 417/4/3 410/4/3 416/4/3
f 418/4/3 410/4/3 417/4/3
f 419/4/3 410/4/3 418/4/3
f 420/4/3 410/4/3 419/4/3
f 421/4/3 410/4/3 420/4/3
f 424/5/3 423/5/3 422/5/3
f 425/5/3 423/5/3 424/5/3
f 428/5/3 427/5/3 426/5/3
f 429/5/3 427/5/3 428/5/3
f 432/4/3 431/4/3 430/4/3
f 433/4/3 431/4/3 432/4/3
f 436/4/3 435/4/3 434/4/3
f 437/4/3 435/4/3 436/4/3
f 438/4/4 439/4/4 440/4/4
f 440/4/4 439/4/4 441/4/4
f 442/4/4 443/4/4 444/4/4
f 444/4/4 443/4/4 445/4/4
f 446/5/4 447/5/4 448/5/4
f 448/5/4 447/5/4 449/5/4
f 450/5/4 451/5/4 452/5/4
f 452/5/4 451/5/4 453/5/4
f 454/5/4 455/5/4 456/5/4
f 456/5/4 455/5/4 457/5/4
f 457/5/4 455/5/4 458/5/4
f 458/5/4 455/5/4 459/5/4
f 459/5/4 455/5/4 460/5/4
f 460/5/4 455/5/4 461/5/4
f 461/5/4 455/5/4 462/5/4
f 462/5/4 455/5/4 463/5/4
f 463/5/4 455/5/4 464/5/4
f 464/5/4 455/5/4 465/5/4
f 465/5/4 455/5/4 466/5/4
f 467/5/4 468/5/4 469/5/4
f 469/5/4 468/5/4 470/5/4
f 471/5/4 472/5/4 473/5/4
f 473/5/4 472/5/4 474/5/4
f 475/5/4 476/5/4 477/5/4
f 477/5/4 476/5/4 478/5/4
f 479/5/4 480/5/4 481/5/4
f 481/5/4 480/5/4 482/5/4
f 483/5/4 484/5/4 485/5/4
f 485/5/4 484/5/4 486/5/4
f 487/5/4 488/5/4 489/5/4
f 489/5/4 488/5/4 490/5/4
f 491/5/4 492/5/4 493/5/4
f 493/5/4 492/5/4 494/5/4
f 495/5/4 496/5/4 497/5/4
f 497/5/4 496/5/4 498/5/4
f 499/5/4 500/5/4 501/5/4
f 501/5/4 500/5/4 502/5/4
f 503/5/4 504/5/4 505/5/4
f 505/5/4 504/5/4 506/5/4
f 507/5/4 508/5/4 509/5/4
f 509/5/4 508/5/4 510/5/4
f 511/4/4 512/4/4 513/4/4
f 513/4/4 512/4/4 514/4/4
f 515/5/4 516/5/4 517/5/4
f 517/5/4 516/5/4 518/5/4
f 519/4/4 520/4/4 521/4/4
f 521/4/4 520/4/4 522/4/4
f 523/5/4 524/5/4 525/5/4
f 525/5/4 524/5/4 526/5/4
f 527/5/4 528/5/4 529/5/4
f 529/5/4 528/5/4 530/5/4
f 531/5/4 532/5/4 533/5/4
f 533/5/4 532/5/4 534/5/4
f 535/5/4 536/5/4 537/5/4
f 537/5/4 536/5/4 538/5/4
f 539/5/4 540/5/4 541/5/4
f 541/5/4 540/5/4 542/5/4
f 543/1/4 544/1/4 547/1/4
f 547/1/4 544/1/4 548/1/4
f 543/1/4 547/1/4 549/1/4
f 548/1/4 544/1/4 550/1/4
f 543/1/4 549/1/4 551/1/4
f 549/1/4 550/1/4 551/1/4
f 550/1/4 544/1/4 552/1/4
f 551/1/4 550/1/4 552/1/4
f 543/1/4 551/1/4 553/1/4
f 552/1/4 544/1/4 554/1/4
f 543/1/4 553/1/4 555/1/4
f 553/1/4 554/1/4 555/1/4
f 554/1/4 544/1/4 556/1/4
f 555/1/4 554/1/4 556/1/4
f 545/5/4 546/5/4 557/5/4
f 557/5/4 546/5/4 558/5/4
f 561/4/4 562/4/4 563/4/4
f 563/4/4 562/4/4 564/4/4
f 565/4/4 566/4/4 567/4/4
f 567/4/4 566/4/4 568/4/4
f 559/5/4 560/5/4 569/5/4
f 569/5/4 560/5/4 570/5/4
f 574/2/5 572/2/5 571/2/5
f 575/2/5 572/2/5 574/2/5
f 577/1/5 574/1/5 573/1/5
f 577/1/5 576/1/5 575/1/5
f 577/1/5 575/1/5 574/1/5
f 578/1/5 576/1/5 577/1/5
f 583/3/5 580/3/5 579/3/5
f 584/3/5 580/3/5 583/3/5
f 587/4/5 582/4/5 581/4/5
f 588/4/5 582/4/5 587/4/5
f 589/4/5 586/4/5 585/4/5
f 590/4/5 586/4/5 589/4/5
f 595/4/5 592/4/5 591/4/5
f 596/4/5 592/4/5 595/4/5
f 597/4/5 594/4/5 593/4/5
f 598/4/5 594/4/5 597/4/5
f 603/4/5 600/4/5 599/4/5
f 604/4/5 600/4/5 603/4/5
f 605/4/5 602/4/5 601/4/5
f 606/4/5 602/4/5 605/4/5
f 611/4/5 608/4/5 607/4/5
f 612/4/5 608/4/5 611/4/5
f 613/4/5 610/4/5 609/4/5
f 614/4/5 610/4/5 613/4/5
f 617/5/5 616/5/5 615/5/5
f 618/5/5 616/5/5 617/5/5
f 619/5/5 617/5/5 615/5/5
f 620/5/5 616/5/5 618/5/5
f 621/5/5 619/5/5 615/5/5
f 621/5/5 620/5/5 619/5/5
f 622/5/5 616/5/5 620/5/5
f 622/5/5 620/5/5 621/5/5
f 623/3/6 624/3/6 625/3/6
f 625/3/6 624/3/6 626/3/6
f 627/4/6 628/4/6 633/4/6
f 633/4/6 628/4/6 634/4/6
f 629/2/6 630/2/6 635/2/6
f 635/2/6 630/2/6 636/2/6
f 631/4/6 632/4/6 637/4/6
f 637/4/6 632/4/6 638/4/6
f 639/4/6 640/4/6 643/4/6
f 643/4/6 640/4/6 644/4/6
f 641/4/6 642/4/6 645/4/6
f 645/4/6 642/4/6 646/4/6
f 647/4/6 648/4/6 651/4/6
f 651/4/6 648/4/6 652/4/6
f 649/4/6 650/4/6 653/4/6
f 653/4/6 650/4/6 654/4/6
f 655/4/6 656/4/6 659/4/6
f 659/4/6 656/4/6 660/4/6
f 657/4/6 658/4/6 661/4/6
f 661/4/6 658/4/6 662/4/6
f 663/5/6 664/5/6 665/5/6
f 665/5/6 664/5/6 666/5/6
f 663/5/6 665/5/6 667/5/6
f 666/5/6 664/5/6 668/5/6
f 663/5/6 667/5/6 669/5/6
f 667/5/6 668/5/6 669/5/6
f 668/5/6 664/5/6 670/5/6
f 669/5/6 668/5/6 670/5/6
f 671/5/6 672/5/6 673/5/6
f 673/5/6 672/5/6 674/5/6
f 671/5/6 673/5/6 675/5/6
f 674/5/6 672/5/6 676/5/6
f 671/5/6 675/5/6 677/5/6
f 675/5/6 676/5/6 677/5/6
f 676/5/6 672/5/6 678/5/6
f 677/5/6 676/5/6 678/5/6
f 679/5/6 680/5/6 681/5/6
f 681/5/6 680/5/6 682/5/6
f 679/5/6 681/5/6 683/5/6
f 682/5/6 680/5/6 684/5/6
f 679/5/6 683/5/6 685/5/6
f 683/5/6 684/5/6 685/5/6
f 684/5/6 680/5/6 686/5/6
f 685/5/6 684/5/6 686/5/6
f 687/5/6 688/5/6 689/5/6
f 689/5/6 688/5/6 690/5/6
f 687/5/6 689/5/6 691/5/6
f 690/5/6 688/5/6 692/5/6
f 687/5/6 691/5/6 693/5/6
f 691/5/6 692/5/6 693/5/6
f 692/5/6 688/5/6 694/5/6
f 693/5/6 692/5/6 694/5/6
f 695/5/6 696/5/6 697/5/6
f 697/5/6 696/5/6 698/5/6
f 695/5/6 697/5/6 699/5/6
f 698/5/6 696/5/6 700/5/6
f 695/5/6 699/5/6 701/5/6
f 699/5/6 700/5/6 701/5/6
f 700/5/6 696/5/6 702/5/6
f 701/5/6 700/5/6 702/5/6
f 703/5/6 704/5/6 705/5/6
f 705/5/6 704/5/6 706/5/6
f 703/5/6 705/5/6 707/5/6
f 706/5/6 704/5/6 708/5/6
f 703/5/6 707/5/6 709/5/6
f 707/5/6 708/5/6 709/5/6
f 708/5/6 704/5/6 710/5/6
f 709/5/6 708/5/6 710/5/6
f 711/5/6 712/5/6 713/5/6
f 713/5/6 712/5/6 714/5/6
f 711/5/6 713/5/6 715/5/6
f 714/5/6 712/5/6 716/5/6
f 711/5/6 715/5/6 717/5/6
f 715/5/6 716/5/6 717/5/6
f 716/5/6 712/5/6 718/5/6
f 717/5/6 716/5/6 718/5/6
f 719/5/6 720/5/6 721/5/6
f 721/5/6 720/5/6 722/5/6
f 719/5/6 721/5/6 723/5/6
f 723/5/6 721/5/6 724/5/6
f 725/5/6 726/5/6 727/5/6
f 722/5/6 720/5/6 728/5/6
f 725/5/6 727/5/6 729/5/6
f 727/5/6 728/5/6 729/5/6
f 728/5/6 720/5/6 730/5/6
f 729/5/6 728/5/6 730/5/6
f 731/5/6 732/5/6 733/5/6
f 733/5/6 732/5/6 734/5/6
f 731/5/6 733/5/6 735/5/6
f 735/5/6 733/5/6 736/5/6
f 737/5/6 738/5/6 739/5/6
f 734/5/6 732/5/6 740/5/6
f 737/5/6 739/5/6 741/5/6
f 739/5/6 740/5/6 741/5/6
f 740/5/6 732/5/6 742/5/6
f 741/5/6 740/5/6 742/5/6
f 743/5/6 744/5/6 745/5/6
f 745/5/6 744/5/6 746/5/6
f 743/5/6 745/5/6 747/5/6
f 747/5/6 745/5/6 748/5/6
f 749/5/6 750/5/6 751/5/6
f 746/5/6 744/5/6 752/5/6
f 749/5/6 751/5/6 753/5/6
f 751/5/6 752/5/6 753/5/6
f 752/5/6 744/5/6 754/5/6
f 753/5/6 752/5/6 754/5/6
f 755/5/6 756/5/6 757/5/6
f 757/5/6 756/5/6 758/5/6
f 755/5/6 757/5/6 759/5/6
f 759/5/6 757/5/6 760/5/6
f 761/5/6 762/5/6 763/5/6
f 758/5/6 756/5/6 764/5/6
f 761/5/6 763/5/6 765/5/6
f 763/5/6 764/5/6 765/5/6
f 764/5/6 756/5/6 766/5/6
f 765/5/6 764/5/6 766/5/6
f 767/5/6 768/5/6 769/5/6
f 769/5/6 768/5/6 770/5/6
f 767/5/6 769/5/6 771/5/6
f 771/5/6 769/5/6 772/5/6
f 773/5/6 774/5/6 775/5/6
f 770/5/6 768/5/6 776/5/6
f 773/5/6 775/5/6 777/5/6
f 775/5/6 776/5/6 777/5/6
f 776/5/6 768/5/6 778/5/6
f 777/5/6 776/5/6 778/5/6
f 779/5/6 780/5/6 781/5/6
f 781/5/6 780/5/6 782/5/6
f 779/5/6 781/5/6 783/5/6
f 783/5/6 781/5/6 784/5/6
f 784/5/6 781/5/6 785/5/6
f 785/5/6 781/5/6 786/5/6
f 782/5/6 780/5/6 787/5/6
f 785/5/6 786/5/6 788/5/6
f 786/5/6 787/5/6 788/5/6
f 787/5/6 780/5/6 789/5/6
f 788/5/6 787/5/6 789/5/6
f 790/5/6 791/5/6 792/5/6
f 792/5/6 791/5/6 793/5/6
f 790/5/6 792/5/6 794/5/6
f 793/5/6 791/5/6 795/5/6
f 790/5/6 794/5/6 796/5/6
f 794/5/6 795/5/6 796/5/6
f 795/5/6 791/5/6 797/5/6
f 796/5/6 795/5/6 797/5/6
f 798/5/6 799/5/6 800/5/6
f 800/5/6 799/5/6 801/5/6
f 798/5/6 800/5/6 802/5/6
f 801/5/6 799/5/6 803/5/6
f 798/5/6 802/5/6 804/5/6
f 802/5/6 803/5/6 804/5/6
f 803/5/6 799/5/6 805/5/6
f 804/5/6 803/5/6 805/5/6
f 806/5/6 807/5/6 808/5/6
f 808/5/6 807/5/6 809/5/6
f 806/5/6 808/5/6 810/5/6
f 809/5/6 807/5/6 811/5/6
f 806/5/6 810/5/6 812/5/6
f 810/5/6 811/5/6 812/5/6
f 811/5/6 807/5/6 813/5/6
f 812/5/6 811/5/6 813/5/6
f 814/5/6 815/5/6 816/5/6
f 816/5/6 815/5/6 817/5/6
f 814/5/6 816/5/6 818/5/6
f 817/5/6 815/5/6 819/5/6
f 814/5/6 818/5/6 820/5/6
f 818/5/6 819/5/6 820/5/6
f 819/5/6 815/5/6 821/5/6
f 820/5/6 819/5/6 821/5/6
f 822/5/6 823/5/6 824/5/6
f 824/5/6 823/5/6 825/5/6
f 826/4/6 827/4/6 828/4/6
f 828/4/6 827/4/6 829/4/6
f 828/5/6 829/5/6 830/5/6
f 830/5/6 829/5/6 831/5/6
f 822/5/6 824/5/6 832/5/6
f 825/5/6 823/5/6 833/5/6
f 832/5/6 833/5/6 834/5/6
f 822/5/6 832/5/6 834/5/6
f 833/5/6 823/5/6 835/5/6
f 834/5/6 833/5/6 835/5/6
f 836/5/6 837/5/6 838/5/6
f 838/5/6 837/5/6 839/5/6
f 836/5/6 838/5/6 840/5/6
f 839/5/6 837/5/6 841/5/6
f 836/5/6 840/5/6 842/5/6
f 840/5/6 841/5/6 842/5/6
f 841/5/6 837/5/6 843/5/6
f 842/5/6 841/5/6 843/5/6
f 844/5/6 845/5/6 846/5/6
f 846/5/6 845/5/6 847/5/6
f 844/5/6 846/5/6 848/5/6
f 847/5/6 845/5/6 849/5/6
f 844/5/6 848/5/6 850/5/6
f 848/5/6 849/5/6 850/5/6
f 849/5/6 845/5/6 851/5/6
f 850/5/6 849/5/6 851/5/6
f 852/5/6 853/5/6 854/5/6
f 854/5/6 853/5/6 855/5/6
