# MagicaVoxel @ Ephtracy

# group
g OrcWarchiefAxe

# material
mtllib OrcWarchiefAxe.mtl
usemtl palette

# normals
vn -1 0 0
vn 1 0 0
vn 0 0 1
vn 0 0 -1
vn 0 -1 0
vn 0 1 0

# texcoords
vt 0.279297 0.5
vt 0.982422 0.5
vt 0.986328 0.5

# verts
v -2 31 -0
v -2 31 -2
v -2 32 2
v -2 32 -0
v -2 33 -2
v -2 33 -3
v -2 34 -2
v -2 34 -3
v -2 35 2
v -2 35 -0
v -2 36 -0
v -2 36 -2
v -1 0 -0
v -1 0 -1
v -1 28 -0
v -1 28 -1
v -1 29 -0
v -1 29 -1
v -1 30 5
v -1 30 4
v -1 31 6
v -1 31 5
v -1 31 3
v -1 31 -0
v -1 31 -1
v -1 32 7
v -1 32 6
v -1 32 4
v -1 32 3
v -1 32 2
v -1 32 -0
v -1 32 -2
v -1 32 -4
v -1 33 8
v -1 33 7
v -1 33 -2
v -1 33 -3
v -1 33 -4
v -1 33 -5
v -1 34 8
v -1 34 7
v -1 34 4
v -1 34 3
v -1 34 -2
v -1 34 -3
v -1 34 -4
v -1 34 -5
v -1 35 7
v -1 35 6
v -1 35 3
v -1 35 2
v -1 35 -0
v -1 35 -2
v -1 35 -4
v -1 36 6
v -1 36 5
v -1 36 2
v -1 36 1
v -1 36 -0
v -1 36 -2
v -1 37 5
v -1 37 4
v -1 37 1
v -1 37 -2
v 0 0 1
v 0 0 -0
v 0 0 -1
v 0 0 -2
v 0 26 9
v 0 26 8
v 0 27 8
v 0 27 7
v 0 28 7
v 0 28 6
v 0 28 1
v 0 28 -0
v 0 28 -1
v 0 28 -2
v 0 29 6
v 0 29 5
v 0 29 1
v 0 29 -0
v 0 29 -1
v 0 29 -2
v 0 30 5
v 0 31 6
v 0 31 5
v 0 31 4
v 0 31 3
v 0 31 1
v 0 31 -0
v 0 31 -1
v 0 31 -2
v 0 31 -3
v 0 32 7
v 0 32 6
v 0 32 4
v 0 32 3
v 0 32 -2
v 0 32 -3
v 0 33 8
v 0 33 7
v 0 34 8
v 0 34 7
v 0 34 4
v 0 34 3
v 0 35 7
v 0 35 6
v 0 35 3
v 0 35 2
v 0 35 -2
v 0 35 -3
v 0 36 6
v 0 36 5
v 0 36 4
v 0 36 2
v 0 36 -2
v 0 36 -3
v 0 37 5
v 0 37 -0
v 0 37 -1
v 0 38 6
v 0 38 5
v 0 38 -0
v 0 38 -1
v 0 39 7
v 0 39 6
v 0 40 8
v 0 40 7
v 0 41 9
v 0 41 8
v 1 0 1
v 1 0 -0
v 1 0 -1
v 1 0 -2
v 1 26 9
v 1 26 8
v 1 27 8
v 1 27 7
v 1 28 7
v 1 28 6
v 1 28 1
v 1 28 -0
v 1 28 -1
v 1 28 -2
v 1 29 6
v 1 29 5
v 1 29 1
v 1 29 -0
v 1 29 -1
v 1 29 -2
v 1 30 5
v 1 31 6
v 1 31 5
v 1 31 4
v 1 31 3
v 1 31 1
v 1 31 -0
v 1 31 -1
v 1 31 -2
v 1 31 -3
v 1 32 7
v 1 32 6
v 1 32 4
v 1 32 3
v 1 32 -2
v 1 32 -3
v 1 33 8
v 1 33 7
v 1 34 8
v 1 34 7
v 1 34 4
v 1 34 3
v 1 35 7
v 1 35 6
v 1 35 3
v 1 35 2
v 1 35 -2
v 1 35 -3
v 1 36 6
v 1 36 5
v 1 36 4
v 1 36 2
v 1 36 -2
v 1 36 -3
v 1 37 5
v 1 37 -0
v 1 37 -1
v 1 38 6
v 1 38 5
v 1 38 -0
v 1 38 -1
v 1 39 7
v 1 39 6
v 1 40 8
v 1 40 7
v 1 41 9
v 1 41 8
v 2 0 -0
v 2 0 -1
v 2 28 -0
v 2 28 -1
v 2 29 -0
v 2 29 -1
v 2 30 5
v 2 30 4
v 2 31 6
v 2 31 5
v 2 31 3
v 2 31 -0
v 2 31 -1
v 2 32 7
v 2 32 6
v 2 32 4
v 2 32 3
v 2 32 2
v 2 32 -0
v 2 32 -2
v 2 32 -4
v 2 33 8
v 2 33 7
v 2 33 -2
v 2 33 -3
v 2 33 -4
v 2 33 -5
v 2 34 8
v 2 34 7
v 2 34 4
v 2 34 3
v 2 34 -2
v 2 34 -3
v 2 34 -4
v 2 34 -5
v 2 35 7
v 2 35 6
v 2 35 3
v 2 35 2
v 2 35 -0
v 2 35 -2
v 2 35 -4
v 2 36 6
v 2 36 5
v 2 36 2
v 2 36 1
v 2 36 -0
v 2 36 -2
v 2 37 5
v 2 37 4
v 2 37 1
v 2 37 -2
v 3 31 -0
v 3 31 -2
v 3 32 2
v 3 32 -0
v 3 33 -2
v 3 33 -3
v 3 34 -2
v 3 34 -3
v 3 35 2
v 3 35 -0
v 3 36 -0
v 3 36 -2
v 0 26 9
v 0 41 9
v 1 26 9
v 1 41 9
v -1 33 8
v -1 34 8
v 0 33 8
v 0 34 8
v 1 33 8
v 1 34 8
v 2 33 8
v 2 34 8
v -1 32 7
v -1 33 7
v -1 34 7
v -1 35 7
v 0 32 7
v 0 33 7
v 0 34 7
v 0 35 7
v 1 32 7
v 1 33 7
v 1 34 7
v 1 35 7
v 2 32 7
v 2 33 7
v 2 34 7
v 2 35 7
v -1 31 6
v -1 32 6
v -1 35 6
v -1 36 6
v 0 31 6
v 0 32 6
v 0 35 6
v 0 36 6
v 1 31 6
v 1 32 6
v 1 35 6
v 1 36 6
v 2 31 6
v 2 32 6
v 2 35 6
v 2 36 6
v -1 30 5
v -1 31 5
v -1 36 5
v -1 37 5
v 0 30 5
v 0 31 5
v 0 36 5
v 0 37 5
v 1 30 5
v 1 31 5
v 1 36 5
v 1 37 5
v 2 30 5
v 2 31 5
v 2 36 5
v 2 37 5
v -1 31 3
v -1 32 3
v -1 34 3
v -1 35 3
v 0 31 3
v 0 32 3
v 0 34 3
v 0 35 3
v 1 31 3
v 1 32 3
v 1 34 3
v 1 35 3
v 2 31 3
v 2 32 3
v 2 34 3
v 2 35 3
v -2 32 2
v -2 35 2
v -1 32 2
v -1 35 2
v -1 36 2
v 0 35 2
v 0 36 2
v 1 35 2
v 1 36 2
v 2 32 2
v 2 35 2
v 2 36 2
v 3 32 2
v 3 35 2
v -1 36 1
v -1 37 1
v 0 0 1
v 0 28 1
v 0 29 1
v 0 31 1
v 1 0 1
v 1 28 1
v 1 29 1
v 1 31 1
v 2 36 1
v 2 37 1
v -2 31 -0
v -2 32 -0
v -2 35 -0
v -2 36 -0
v -1 0 -0
v -1 28 -0
v -1 29 -0
v -1 31 -0
v -1 32 -0
v -1 35 -0
v -1 36 -0
v 0 0 -0
v 0 28 -0
v 0 29 -0
v 0 31 -0
v 0 37 -0
v 0 38 -0
v 1 0 -0
v 1 28 -0
v 1 29 -0
v 1 31 -0
v 1 37 -0
v 1 38 -0
v 2 0 -0
v 2 28 -0
v 2 29 -0
v 2 31 -0
v 2 32 -0
v 2 35 -0
v 2 36 -0
v 3 31 -0
v 3 32 -0
v 3 35 -0
v 3 36 -0
v 0 26 8
v 0 27 8
v 0 40 8
v 0 41 8
v 1 26 8
v 1 27 8
v 1 40 8
v 1 41 8
v 0 27 7
v 0 28 7
v 0 39 7
v 0 40 7
v 1 27 7
v 1 28 7
v 1 39 7
v 1 40 7
v 0 28 6
v 0 29 6
v 0 38 6
v 0 39 6
v 1 28 6
v 1 29 6
v 1 38 6
v 1 39 6
v 0 29 5
v 0 30 5
v 0 37 5
v 0 38 5
v 1 29 5
v 1 30 5
v 1 37 5
v 1 38 5
v -1 30 4
v -1 32 4
v -1 34 4
v -1 37 4
v 0 30 4
v 0 31 4
v 0 32 4
v 0 34 4
v 0 36 4
v 0 37 4
v 1 30 4
v 1 31 4
v 1 32 4
v 1 34 4
v 1 36 4
v 1 37 4
v 2 30 4
v 2 32 4
v 2 34 4
v 2 37 4
v -1 0 -1
v -1 28 -1
v -1 29 -1
v -1 31 -1
v 0 0 -1
v 0 28 -1
v 0 29 -1
v 0 31 -1
v 0 37 -1
v 0 38 -1
v 1 0 -1
v 1 28 -1
v 1 29 -1
v 1 31 -1
v 1 37 -1
v 1 38 -1
v 2 0 -1
v 2 28 -1
v 2 29 -1
v 2 31 -1
v -2 31 -2
v -2 33 -2
v -2 34 -2
v -2 36 -2
v -1 31 -2
v -1 32 -2
v -1 33 -2
v -1 34 -2
v -1 35 -2
v -1 36 -2
v -1 37 -2
v 0 0 -2
v 0 28 -2
v 0 29 -2
v 0 31 -2
v 0 32 -2
v 0 35 -2
v 0 36 -2
v 1 0 -2
v 1 28 -2
v 1 29 -2
v 1 31 -2
v 1 32 -2
v 1 35 -2
v 1 36 -2
v 2 31 -2
v 2 32 -2
v 2 33 -2
v 2 34 -2
v 2 35 -2
v 2 36 -2
v 2 37 -2
v 3 31 -2
v 3 33 -2
v 3 34 -2
v 3 36 -2
v -2 33 -3
v -2 34 -3
v -1 33 -3
v -1 34 -3
v 0 31 -3
v 0 32 -3
v 0 35 -3
v 0 36 -3
v 1 31 -3
v 1 32 -3
v 1 35 -3
v 1 36 -3
v 2 33 -3
v 2 34 -3
v 3 33 -3
v 3 34 -3
v -1 32 -4
v -1 33 -4
v -1 34 -4
v -1 35 -4
v 2 32 -4
v 2 33 -4
v 2 34 -4
v 2 35 -4
v -1 33 -5
v -1 34 -5
v 2 33 -5
v 2 34 -5
v 0 0 1
v 1 0 1
v -1 0 -0
v 0 0 -0
v 1 0 -0
v 2 0 -0
v -1 0 -1
v 0 0 -1
v 1 0 -1
v 2 0 -1
v 0 0 -2
v 1 0 -2
v 0 26 9
v 1 26 9
v 0 26 8
v 1 26 8
v 0 27 8
v 1 27 8
v 0 27 7
v 1 27 7
v 0 28 7
v 1 28 7
v 0 28 6
v 1 28 6
v 0 29 6
v 1 29 6
v 0 29 5
v 1 29 5
v -1 30 5
v 0 30 5
v 1 30 5
v 2 30 5
v -1 30 4
v 0 30 4
v 1 30 4
v 2 30 4
v -1 31 6
v 0 31 6
v 1 31 6
v 2 31 6
v -1 31 5
v 0 31 5
v 1 31 5
v 2 31 5
v 0 31 4
v 1 31 4
v -1 31 3
v 0 31 3
v 1 31 3
v 2 31 3
v 0 31 1
v 1 31 1
v -2 31 -0
v -1 31 -0
v 0 31 -0
v 1 31 -0
v 2 31 -0
v 3 31 -0
v -1 31 -1
v 0 31 -1
v 1 31 -1
v 2 31 -1
v -2 31 -2
v -1 31 -2
v 0 31 -2
v 1 31 -2
v 2 31 -2
v 3 31 -2
v 0 31 -3
v 1 31 -3
v -1 32 7
v 0 32 7
v 1 32 7
v 2 32 7
v -1 32 6
v 0 32 6
v 1 32 6
v 2 32 6
v -1 32 4
v 0 32 4
v 1 32 4
v 2 32 4
v -1 32 3
v 0 32 3
v 1 32 3
v 2 32 3
v -2 32 2
v -1 32 2
v 2 32 2
v 3 32 2
v -2 32 -0
v -1 32 -0
v 2 32 -0
v 3 32 -0
v -1 32 -2
v 0 32 -2
v 1 32 -2
v 2 32 -2
v 0 32 -3
v 1 32 -3
v -1 32 -4
v 2 32 -4
v -1 33 8
v 0 33 8
v 1 33 8
v 2 33 8
v -1 33 7
v 0 33 7
v 1 33 7
v 2 33 7
v -2 33 -2
v -1 33 -2
v 2 33 -2
v 3 33 -2
v -2 33 -3
v -1 33 -3
v 2 33 -3
v 3 33 -3
v -1 33 -4
v 2 33 -4
v -1 33 -5
v 2 33 -5
v -1 34 8
v 0 34 8
v 1 34 8
v 2 34 8
v -1 34 7
v 0 34 7
v 1 34 7
v 2 34 7
v -1 34 4
v 0 34 4
v 1 34 4
v 2 34 4
v -1 34 3
v 0 34 3
v 1 34 3
v 2 34 3
v -2 34 -2
v -1 34 -2
v 2 34 -2
v 3 34 -2
v -2 34 -3
v -1 34 -3
v 2 34 -3
v 3 34 -3
v -1 34 -4
v 2 34 -4
v -1 34 -5
v 2 34 -5
v -1 35 7
v 0 35 7
v 1 35 7
v 2 35 7
v -1 35 6
v 0 35 6
v 1 35 6
v 2 35 6
v -1 35 3
v 0 35 3
v 1 35 3
v 2 35 3
v -2 35 2
v -1 35 2
v 0 35 2
v 1 35 2
v 2 35 2
v 3 35 2
v -2 35 -0
v -1 35 -0
v 2 35 -0
v 3 35 -0
v -1 35 -2
v 0 35 -2
v 1 35 -2
v 2 35 -2
v 0 35 -3
v 1 35 -3
v -1 35 -4
v 2 35 -4
v -1 36 6
v 0 36 6
v 1 36 6
v 2 36 6
v -1 36 5
v 0 36 5
v 1 36 5
v 2 36 5
v 0 36 4
v 1 36 4
v -1 36 2
v 0 36 2
v 1 36 2
v 2 36 2
v -1 36 1
v 2 36 1
v -2 36 -0
v -1 36 -0
v 2 36 -0
v 3 36 -0
v -2 36 -2
v -1 36 -2
v 0 36 -2
v 1 36 -2
v 2 36 -2
v 3 36 -2
v 0 36 -3
v 1 36 -3
v -1 37 5
v 0 37 5
v 1 37 5
v 2 37 5
v -1 37 4
v 0 37 4
v 1 37 4
v 2 37 4
v -1 37 1
v 2 37 1
v 0 37 -0
v 1 37 -0
v 0 37 -1
v 1 37 -1
v -1 37 -2
v 2 37 -2
v 0 38 6
v 1 38 6
v 0 38 5
v 1 38 5
v 0 38 -0
v 1 38 -0
v 0 38 -1
v 1 38 -1
v 0 39 7
v 1 39 7
v 0 39 6
v 1 39 6
v 0 40 8
v 1 40 8
v 0 40 7
v 1 40 7
v 0 41 9
v 1 41 9
v 0 41 8
v 1 41 8

# faces
f 4/3/1 2/3/1 1/3/1
f 5/3/1 2/3/1 4/3/1
f 5/3/1 4/3/1 3/3/1
f 7/3/1 5/3/1 3/3/1
f 7/3/1 6/3/1 5/3/1
f 8/3/1 6/3/1 7/3/1
f 9/3/1 7/3/1 3/3/1
f 10/3/1 7/3/1 9/3/1
f 11/3/1 7/3/1 10/3/1
f 12/3/1 7/3/1 11/3/1
f 15/1/1 14/1/1 13/1/1
f 16/1/1 14/1/1 15/1/1
f 17/3/1 16/3/1 15/3/1
f 18/3/1 16/3/1 17/3/1
f 22/3/1 20/3/1 19/3/1
f 24/2/1 18/2/1 17/2/1
f 25/2/1 18/2/1 24/2/1
f 27/3/1 22/3/1 21/3/1
f 28/3/1 20/3/1 22/3/1
f 28/3/1 22/3/1 27/3/1
f 29/2/1 24/2/1 23/2/1
f 30/2/1 24/2/1 29/2/1
f 31/2/1 24/2/1 30/2/1
f 35/3/1 27/3/1 26/3/1
f 35/3/1 28/3/1 27/3/1
f 36/2/1 33/2/1 32/2/1
f 37/2/1 33/2/1 36/2/1
f 38/2/1 33/2/1 37/2/1
f 40/3/1 35/3/1 34/3/1
f 41/3/1 28/3/1 35/3/1
f 41/3/1 35/3/1 40/3/1
f 42/2/1 30/2/1 29/2/1
f 42/3/1 28/3/1 41/3/1
f 42/2/1 29/2/1 28/2/1
f 43/2/1 30/2/1 42/2/1
f 45/2/1 38/2/1 37/2/1
f 46/3/1 39/3/1 38/3/1
f 46/2/1 38/2/1 45/2/1
f 47/3/1 39/3/1 46/3/1
f 48/3/1 42/3/1 41/3/1
f 49/3/1 42/3/1 48/3/1
f 50/2/1 30/2/1 43/2/1
f 51/2/1 30/2/1 50/2/1
f 53/2/1 45/2/1 44/2/1
f 53/2/1 46/2/1 45/2/1
f 54/2/1 46/2/1 53/2/1
f 55/3/1 42/3/1 49/3/1
f 56/3/1 42/3/1 55/3/1
f 57/2/1 52/2/1 51/2/1
f 58/2/1 52/2/1 57/2/1
f 59/2/1 52/2/1 58/2/1
f 61/3/1 42/3/1 56/3/1
f 62/3/1 42/3/1 61/3/1
f 63/2/1 60/2/1 59/2/1
f 63/2/1 59/2/1 58/2/1
f 64/2/1 60/2/1 63/2/1
f 71/2/1 70/2/1 69/2/1
f 73/2/1 72/2/1 71/2/1
f 75/1/1 66/1/1 65/1/1
f 76/1/1 66/1/1 75/1/1
f 77/1/1 68/1/1 67/1/1
f 78/1/1 68/1/1 77/1/1
f 79/2/1 74/2/1 73/2/1
f 81/3/1 76/3/1 75/3/1
f 82/3/1 76/3/1 81/3/1
f 83/3/1 78/3/1 77/3/1
f 84/3/1 78/3/1 83/3/1
f 85/2/1 80/2/1 79/2/1
f 86/2/1 79/2/1 73/2/1
f 86/2/1 85/2/1 79/2/1
f 87/2/1 85/2/1 86/2/1
f 90/2/1 82/2/1 81/2/1
f 91/2/1 82/2/1 90/2/1
f 92/2/1 84/2/1 83/2/1
f 93/2/1 84/2/1 92/2/1
f 95/2/1 73/2/1 71/2/1
f 95/2/1 86/2/1 73/2/1
f 96/2/1 86/2/1 95/2/1
f 97/2/1 89/2/1 88/2/1
f 98/2/1 89/2/1 97/2/1
f 99/2/1 94/2/1 93/2/1
f 100/2/1 94/2/1 99/2/1
f 101/2/1 71/2/1 69/2/1
f 101/2/1 95/2/1 71/2/1
f 102/2/1 95/2/1 101/2/1
f 103/2/1 101/2/1 69/2/1
f 107/2/1 104/2/1 103/2/1
f 109/2/1 106/2/1 105/2/1
f 113/2/1 108/2/1 107/2/1
f 115/2/1 109/2/1 105/2/1
f 115/2/1 110/2/1 109/2/1
f 116/2/1 110/2/1 115/2/1
f 117/2/1 112/2/1 111/2/1
f 118/2/1 112/2/1 117/2/1
f 119/2/1 114/2/1 113/2/1
f 122/2/1 113/2/1 107/2/1
f 122/2/1 119/2/1 113/2/1
f 123/2/1 119/2/1 122/2/1
f 124/3/1 121/3/1 120/3/1
f 125/3/1 121/3/1 124/3/1
f 126/2/1 107/2/1 103/2/1
f 126/2/1 122/2/1 107/2/1
f 127/2/1 122/2/1 126/2/1
f 128/2/1 103/2/1 69/2/1
f 128/2/1 126/2/1 103/2/1
f 129/2/1 126/2/1 128/2/1
f 130/2/1 128/2/1 69/2/1
f 131/2/1 128/2/1 130/2/1
f 136/2/2 137/2/2 138/2/2
f 138/2/2 139/2/2 140/2/2
f 132/1/2 133/1/2 142/1/2
f 142/1/2 133/1/2 143/1/2
f 134/1/2 135/1/2 144/1/2
f 144/1/2 135/1/2 145/1/2
f 140/2/2 141/2/2 146/2/2
f 142/3/2 143/3/2 148/3/2
f 148/3/2 143/3/2 149/3/2
f 144/3/2 145/3/2 150/3/2
f 150/3/2 145/3/2 151/3/2
f 146/2/2 147/2/2 152/2/2
f 140/2/2 146/2/2 153/2/2
f 146/2/2 152/2/2 153/2/2
f 153/2/2 152/2/2 154/2/2
f 148/2/2 149/2/2 157/2/2
f 157/2/2 149/2/2 158/2/2
f 150/2/2 151/2/2 159/2/2
f 159/2/2 151/2/2 160/2/2
f 138/2/2 140/2/2 162/2/2
f 140/2/2 153/2/2 162/2/2
f 162/2/2 153/2/2 163/2/2
f 155/2/2 156/2/2 164/2/2
f 164/2/2 156/2/2 165/2/2
f 160/2/2 161/2/2 166/2/2
f 166/2/2 161/2/2 167/2/2
f 136/2/2 138/2/2 168/2/2
f 138/2/2 162/2/2 168/2/2
f 168/2/2 162/2/2 169/2/2
f 136/2/2 168/2/2 170/2/2
f 170/2/2 171/2/2 174/2/2
f 172/2/2 173/2/2 176/2/2
f 174/2/2 175/2/2 180/2/2
f 172/2/2 176/2/2 182/2/2
f 176/2/2 177/2/2 182/2/2
f 182/2/2 177/2/2 183/2/2
f 178/2/2 179/2/2 184/2/2
f 184/2/2 179/2/2 185/2/2
f 180/2/2 181/2/2 186/2/2
f 174/2/2 180/2/2 189/2/2
f 180/2/2 186/2/2 189/2/2
f 189/2/2 186/2/2 190/2/2
f 187/3/2 188/3/2 191/3/2
f 191/3/2 188/3/2 192/3/2
f 170/2/2 174/2/2 193/2/2
f 174/2/2 189/2/2 193/2/2
f 193/2/2 189/2/2 194/2/2
f 136/2/2 170/2/2 195/2/2
f 170/2/2 193/2/2 195/2/2
f 195/2/2 193/2/2 196/2/2
f 136/2/2 195/2/2 197/2/2
f 197/2/2 195/2/2 198/2/2
f 199/1/2 200/1/2 201/1/2
f 201/1/2 200/1/2 202/1/2
f 201/3/2 202/3/2 203/3/2
f 203/3/2 202/3/2 204/3/2
f 205/3/2 206/3/2 208/3/2
f 203/2/2 204/2/2 210/2/2
f 210/2/2 204/2/2 211/2/2
f 207/3/2 208/3/2 213/3/2
f 208/3/2 206/3/2 214/3/2
f 213/3/2 208/3/2 214/3/2
f 209/2/2 210/2/2 215/2/2
f 215/2/2 210/2/2 216/2/2
f 216/2/2 210/2/2 217/2/2
f 212/3/2 213/3/2 221/3/2
f 213/3/2 214/3/2 221/3/2
f 218/2/2 219/2/2 222/2/2
f 222/2/2 219/2/2 223/2/2
f 223/2/2 219/2/2 224/2/2
f 220/3/2 221/3/2 226/3/2
f 221/3/2 214/3/2 227/3/2
f 226/3/2 221/3/2 227/3/2
f 215/2/2 216/2/2 228/2/2
f 227/3/2 214/3/2 228/3/2
f 214/2/2 215/2/2 228/2/2
f 228/2/2 216/2/2 229/2/2
f 223/2/2 224/2/2 231/2/2
f 224/3/2 225/3/2 232/3/2
f 231/2/2 224/2/2 232/2/2
f 232/3/2 225/3/2 233/3/2
f 227/3/2 228/3/2 234/3/2
f 234/3/2 228/3/2 235/3/2
f 229/2/2 216/2/2 236/2/2
f 236/2/2 216/2/2 237/2/2
f 230/2/2 231/2/2 239/2/2
f 231/2/2 232/2/2 239/2/2
f 239/2/2 232/2/2 240/2/2
f 235/3/2 228/3/2 241/3/2
f 241/3/2 228/3/2 242/3/2
f 237/2/2 238/2/2 243/2/2
f 243/2/2 238/2/2 244/2/2
f 244/2/2 238/2/2 245/2/2
f 242/3/2 228/3/2 247/3/2
f 247/3/2 228/3/2 248/3/2
f 245/2/2 246/2/2 249/2/2
f 244/2/2 245/2/2 249/2/2
f 249/2/2 246/2/2 250/2/2
f 251/3/2 252/3/2 254/3/2
f 254/3/2 252/3/2 255/3/2
f 253/3/2 254/3/2 255/3/2
f 253/3/2 255/3/2 257/3/2
f 255/3/2 256/3/2 257/3/2
f 257/3/2 256/3/2 258/3/2
f 253/3/2 257/3/2 259/3/2
f 259/3/2 257/3/2 260/3/2
f 260/3/2 257/3/2 261/3/2
f 261/3/2 257/3/2 262/3/2
f 265/2/3 264/2/3 263/2/3
f 266/2/3 264/2/3 265/2/3
f 269/3/3 268/3/3 267/3/3
f 270/3/3 268/3/3 269/3/3
f 273/3/3 272/3/3 271/3/3
f 274/3/3 272/3/3 273/3/3
f 279/3/3 276/3/3 275/3/3
f 280/3/3 276/3/3 279/3/3
f 281/3/3 278/3/3 277/3/3
f 282/3/3 278/3/3 281/3/3
f 287/3/3 284/3/3 283/3/3
f 288/3/3 284/3/3 287/3/3
f 289/3/3 286/3/3 285/3/3
f 290/3/3 286/3/3 289/3/3
f 295/3/3 292/3/3 291/3/3
f 296/3/3 292/3/3 295/3/3
f 297/3/3 294/3/3 293/3/3
f 298/3/3 294/3/3 297/3/3
f 303/3/3 300/3/3 299/3/3
f 304/3/3 300/3/3 303/3/3
f 305/3/3 302/3/3 301/3/3
f 306/3/3 302/3/3 305/3/3
f 311/3/3 308/3/3 307/3/3
f 312/3/3 308/3/3 311/3/3
f 313/3/3 310/3/3 309/3/3
f 314/3/3 310/3/3 313/3/3
f 319/3/3 316/3/3 315/3/3
f 320/3/3 316/3/3 319/3/3
f 321/3/3 318/3/3 317/3/3
f 322/3/3 318/3/3 321/3/3
f 327/2/3 324/2/3 323/2/3
f 328/2/3 324/2/3 327/2/3
f 329/2/3 326/2/3 325/2/3
f 330/2/3 326/2/3 329/2/3
f 335/2/3 332/2/3 331/2/3
f 336/2/3 332/2/3 335/2/3
f 337/2/3 334/2/3 333/2/3
f 338/2/3 334/2/3 337/2/3
f 341/3/3 340/3/3 339/3/3
f 342/3/3 340/3/3 341/3/3
f 344/2/3 343/2/3 342/2/3
f 345/2/3 343/2/3 344/2/3
f 349/2/3 347/2/3 346/2/3
f 350/2/3 347/2/3 349/2/3
f 351/3/3 349/3/3 348/3/3
f 352/3/3 349/3/3 351/3/3
f 359/1/3 356/1/3 355/1/3
f 360/3/3 357/3/3 356/3/3
f 360/1/3 356/1/3 359/1/3
f 361/2/3 358/2/3 357/2/3
f 361/3/3 357/3/3 360/3/3
f 362/2/3 358/2/3 361/2/3
f 363/2/3 354/2/3 353/2/3
f 364/2/3 354/2/3 363/2/3
f 372/3/3 366/3/3 365/3/3
f 373/3/3 366/3/3 372/3/3
f 374/3/3 368/3/3 367/3/3
f 375/3/3 368/3/3 374/3/3
f 376/1/3 370/1/3 369/1/3
f 377/3/3 371/3/3 370/3/3
f 377/1/3 370/1/3 376/1/3
f 378/2/3 372/2/3 371/2/3
f 378/3/3 371/3/3 377/3/3
f 379/2/3 372/2/3 378/2/3
f 386/3/3 381/3/3 380/3/3
f 387/3/3 381/3/3 386/3/3
f 388/1/3 383/1/3 382/1/3
f 389/3/3 384/3/3 383/3/3
f 389/1/3 383/1/3 388/1/3
f 390/2/3 385/2/3 384/2/3
f 390/3/3 384/3/3 389/3/3
f 391/2/3 385/2/3 390/2/3
f 395/3/3 392/3/3 391/3/3
f 396/3/3 392/3/3 395/3/3
f 397/3/3 394/3/3 393/3/3
f 398/3/3 394/3/3 397/3/3
f 399/2/4 400/2/4 403/2/4
f 403/2/4 400/2/4 404/2/4
f 401/2/4 402/2/4 405/2/4
f 405/2/4 402/2/4 406/2/4
f 407/2/4 408/2/4 411/2/4
f 411/2/4 408/2/4 412/2/4
f 409/2/4 410/2/4 413/2/4
f 413/2/4 410/2/4 414/2/4
f 415/2/4 416/2/4 419/2/4
f 419/2/4 416/2/4 420/2/4
f 417/2/4 418/2/4 421/2/4
f 421/2/4 418/2/4 422/2/4
f 423/2/4 424/2/4 427/2/4
f 427/2/4 424/2/4 428/2/4
f 425/2/4 426/2/4 429/2/4
f 429/2/4 426/2/4 430/2/4
f 431/3/4 432/3/4 435/3/4
f 435/3/4 432/3/4 436/3/4
f 436/3/4 432/3/4 437/3/4
f 433/3/4 434/3/4 438/3/4
f 438/3/4 434/3/4 439/3/4
f 439/3/4 434/3/4 440/3/4
f 435/2/4 436/2/4 441/2/4
f 441/2/4 436/2/4 442/2/4
f 439/2/4 440/2/4 445/2/4
f 445/2/4 440/2/4 446/2/4
f 442/3/4 443/3/4 447/3/4
f 441/3/4 442/3/4 447/3/4
f 447/3/4 443/3/4 448/3/4
f 445/3/4 446/3/4 449/3/4
f 444/3/4 445/3/4 449/3/4
f 449/3/4 446/3/4 450/3/4
f 451/1/4 452/1/4 455/1/4
f 452/3/4 453/3/4 456/3/4
f 455/1/4 452/1/4 456/1/4
f 453/2/4 454/2/4 457/2/4
f 456/3/4 453/3/4 457/3/4
f 457/2/4 454/2/4 458/2/4
f 459/3/4 460/3/4 465/3/4
f 465/3/4 460/3/4 466/3/4
f 461/1/4 462/1/4 467/1/4
f 462/3/4 463/3/4 468/3/4
f 467/1/4 462/1/4 468/1/4
f 463/2/4 464/2/4 469/2/4
f 468/3/4 463/3/4 469/3/4
f 469/2/4 464/2/4 470/2/4
f 471/3/4 472/3/4 475/3/4
f 475/3/4 472/3/4 476/3/4
f 476/3/4 472/3/4 477/3/4
f 473/3/4 474/3/4 478/3/4
f 478/3/4 474/3/4 479/3/4
f 479/3/4 474/3/4 480/3/4
f 475/2/4 476/2/4 485/2/4
f 485/2/4 476/2/4 486/2/4
f 480/2/4 481/2/4 487/2/4
f 479/2/4 480/2/4 487/2/4
f 487/2/4 481/2/4 488/2/4
f 482/1/4 483/1/4 489/1/4
f 483/3/4 484/3/4 490/3/4
f 489/1/4 483/1/4 490/1/4
f 484/2/4 485/2/4 491/2/4
f 490/3/4 484/3/4 491/3/4
f 491/2/4 485/2/4 492/2/4
f 488/2/4 481/2/4 495/2/4
f 492/2/4 493/2/4 496/2/4
f 496/2/4 493/2/4 497/2/4
f 494/2/4 495/2/4 500/2/4
f 495/2/4 481/2/4 501/2/4
f 500/2/4 495/2/4 501/2/4
f 501/2/4 481/2/4 502/2/4
f 497/3/4 498/3/4 503/3/4
f 496/3/4 497/3/4 503/3/4
f 503/3/4 498/3/4 504/3/4
f 499/3/4 500/3/4 505/3/4
f 500/3/4 501/3/4 505/3/4
f 505/3/4 501/3/4 506/3/4
f 507/3/4 508/3/4 509/3/4
f 509/3/4 508/3/4 510/3/4
f 511/2/4 512/2/4 515/2/4
f 515/2/4 512/2/4 516/2/4
f 513/2/4 514/2/4 517/2/4
f 517/2/4 514/2/4 518/2/4
f 519/3/4 520/3/4 521/3/4
f 521/3/4 520/3/4 522/3/4
f 523/2/4 524/2/4 527/2/4
f 527/2/4 524/2/4 528/2/4
f 525/2/4 526/2/4 529/2/4
f 529/2/4 526/2/4 530/2/4
f 531/3/4 532/3/4 533/3/4
f 533/3/4 532/3/4 534/3/4
f 538/1/5 536/1/5 535/1/5
f 539/1/5 536/1/5 538/1/5
f 541/1/5 538/1/5 537/1/5
f 541/1/5 540/1/5 539/1/5
f 541/1/5 539/1/5 538/1/5
f 542/1/5 540/1/5 541/1/5
f 543/1/5 540/1/5 542/1/5
f 544/1/5 540/1/5 543/1/5
f 545/1/5 543/1/5 542/1/5
f 546/1/5 543/1/5 545/1/5
f 549/2/5 548/2/5 547/2/5
f 550/2/5 548/2/5 549/2/5
f 553/2/5 552/2/5 551/2/5
f 554/2/5 552/2/5 553/2/5
f 557/2/5 556/2/5 555/2/5
f 558/2/5 556/2/5 557/2/5
f 561/2/5 560/2/5 559/2/5
f 562/2/5 560/2/5 561/2/5
f 567/3/5 564/3/5 563/3/5
f 568/2/5 565/2/5 564/2/5
f 568/3/5 564/3/5 567/3/5
f 569/3/5 566/3/5 565/3/5
f 569/2/5 565/2/5 568/2/5
f 570/3/5 566/3/5 569/3/5
f 575/3/5 572/3/5 571/3/5
f 576/3/5 572/3/5 575/3/5
f 577/3/5 574/3/5 573/3/5
f 578/3/5 574/3/5 577/3/5
f 582/2/5 580/2/5 579/2/5
f 583/2/5 580/2/5 582/2/5
f 585/2/5 582/2/5 581/2/5
f 585/2/5 584/2/5 583/2/5
f 585/2/5 583/2/5 582/2/5
f 586/2/5 584/2/5 585/2/5
f 588/2/5 585/2/5 581/2/5
f 589/2/5 585/2/5 588/2/5
f 590/2/5 584/2/5 586/2/5
f 591/2/5 584/2/5 590/2/5
f 593/3/5 588/3/5 587/3/5
f 596/3/5 592/3/5 591/3/5
f 597/3/5 593/3/5 587/3/5
f 598/2/5 594/2/5 593/2/5
f 598/3/5 593/3/5 597/3/5
f 599/2/5 594/2/5 598/2/5
f 600/2/5 596/2/5 595/2/5
f 601/3/5 592/3/5 596/3/5
f 601/2/5 596/2/5 600/2/5
f 602/3/5 592/3/5 601/3/5
f 603/2/5 600/2/5 599/2/5
f 604/2/5 600/2/5 603/2/5
f 609/3/5 606/3/5 605/3/5
f 610/3/5 606/3/5 609/3/5
f 611/3/5 608/3/5 607/3/5
f 612/3/5 608/3/5 611/3/5
f 617/2/5 614/2/5 613/2/5
f 618/2/5 614/2/5 617/2/5
f 619/2/5 616/2/5 615/2/5
f 620/2/5 616/2/5 619/2/5
f 625/3/5 622/3/5 621/3/5
f 626/3/5 622/3/5 625/3/5
f 627/3/5 624/3/5 623/3/5
f 628/3/5 624/3/5 627/3/5
f 633/2/5 630/2/5 629/2/5
f 634/2/5 632/2/5 631/2/5
f 635/2/5 633/2/5 629/2/5
f 635/2/5 634/2/5 633/2/5
f 636/2/5 632/2/5 634/2/5
f 636/2/5 634/2/5 635/2/5
f 641/3/5 638/3/5 637/3/5
f 642/3/5 638/3/5 641/3/5
f 643/3/5 640/3/5 639/3/5
f 644/3/5 640/3/5 643/3/5
f 649/3/5 646/3/5 645/3/5
f 650/3/5 646/3/5 649/3/5
f 651/3/5 648/3/5 647/3/5
f 652/3/5 648/3/5 651/3/5
f 655/3/5 654/3/5 653/3/5
f 656/3/5 654/3/5 655/3/5
f 657/3/6 658/3/6 661/3/6
f 661/3/6 658/3/6 662/3/6
f 659/3/6 660/3/6 663/3/6
f 663/3/6 660/3/6 664/3/6
f 665/2/6 666/2/6 669/2/6
f 669/2/6 666/2/6 670/2/6
f 667/2/6 668/2/6 671/2/6
f 671/2/6 668/2/6 672/2/6
f 673/3/6 674/3/6 677/3/6
f 677/3/6 674/3/6 678/3/6
f 675/3/6 676/3/6 679/3/6
f 679/3/6 676/3/6 680/3/6
f 681/3/6 682/3/6 683/3/6
f 683/3/6 682/3/6 684/3/6
f 685/3/6 686/3/6 689/3/6
f 689/3/6 686/3/6 690/3/6
f 687/3/6 688/3/6 691/3/6
f 691/3/6 688/3/6 692/3/6
f 693/2/6 694/2/6 698/2/6
f 698/2/6 694/2/6 699/2/6
f 695/2/6 696/2/6 700/2/6
f 700/2/6 696/2/6 701/2/6
f 697/3/6 698/3/6 703/3/6
f 703/3/6 698/3/6 704/3/6
f 701/3/6 702/3/6 705/3/6
f 705/3/6 702/3/6 706/3/6
f 707/2/6 708/2/6 711/2/6
f 709/2/6 710/2/6 712/2/6
f 707/2/6 711/2/6 713/2/6
f 711/2/6 712/2/6 713/2/6
f 712/2/6 710/2/6 714/2/6
f 713/2/6 712/2/6 714/2/6
f 715/3/6 716/3/6 719/3/6
f 719/3/6 716/3/6 720/3/6
f 717/3/6 718/3/6 721/3/6
f 721/3/6 718/3/6 722/3/6
f 723/2/6 724/2/6 726/2/6
f 726/2/6 724/2/6 727/2/6
f 725/2/6 726/2/6 729/2/6
f 727/2/6 728/2/6 729/2/6
f 726/2/6 727/2/6 729/2/6
f 729/2/6 728/2/6 730/2/6
f 731/3/6 732/3/6 735/3/6
f 735/3/6 732/3/6 736/3/6
f 733/3/6 734/3/6 739/3/6
f 739/3/6 734/3/6 740/3/6
f 737/2/6 738/2/6 741/2/6
f 741/2/6 738/2/6 742/2/6
f 743/3/6 744/3/6 747/3/6
f 744/2/6 745/2/6 748/2/6
f 747/3/6 744/3/6 748/3/6
f 745/3/6 746/3/6 749/3/6
f 748/2/6 745/2/6 749/2/6
f 749/3/6 746/3/6 750/3/6
f 751/2/6 752/2/6 753/2/6
f 753/2/6 752/2/6 754/2/6
f 751/2/6 753/2/6 755/2/6
f 754/2/6 752/2/6 756/2/6
f 751/2/6 755/2/6 757/2/6
f 755/2/6 756/2/6 757/2/6
f 756/2/6 752/2/6 758/2/6
f 757/2/6 756/2/6 758/2/6
f 759/2/6 760/2/6 761/2/6
f 761/2/6 760/2/6 762/2/6
f 763/3/6 764/3/6 765/3/6
f 765/3/6 764/3/6 766/3/6
f 767/2/6 768/2/6 769/2/6
f 769/2/6 768/2/6 770/2/6
f 771/2/6 772/2/6 773/2/6
f 773/2/6 772/2/6 774/2/6
f 775/2/6 776/2/6 777/2/6
f 777/2/6 776/2/6 778/2/6
