# MagicaVoxel @ Ephtracy

# group
g Staff_Projectile

# material
mtllib Staff_Projectile.mtl
usemtl palette

# normals
vn -1 0 0
vn 1 0 0
vn 0 0 1
vn 0 0 -1
vn 0 -1 0
vn 0 1 0

# texcoords
vt 0.408203 0.5
vt 0.529297 0.5
vt 0.552734 0.5
vt 0.560547 0.5

# verts
v -5 4 1
v -5 4 -1
v -5 6 1
v -5 6 -1
v -4 3 1
v -4 3 -1
v -4 4 2
v -4 4 1
v -4 4 -1
v -4 4 -2
v -4 6 2
v -4 6 1
v -4 6 -1
v -4 6 -2
v -4 7 1
v -4 7 -1
v -3 2 1
v -3 2 -1
v -3 3 2
v -3 3 1
v -3 3 -1
v -3 3 -2
v -3 4 3
v -3 4 2
v -3 4 1
v -3 4 -1
v -3 4 -2
v -3 4 -3
v -3 6 3
v -3 6 2
v -3 6 1
v -3 6 -1
v -3 6 -2
v -3 6 -3
v -3 7 2
v -3 7 1
v -3 7 -1
v -3 7 -2
v -3 8 1
v -3 8 -1
v 2 5 1
v 2 5 -0
v 2 6 1
v 2 6 -0
v 3 4 -0
v 3 4 -1
v 3 5 -0
v 3 5 -1
v 4 5 1
v 4 5 -0
v 4 6 1
v 4 6 -0
v -2 2 1
v -2 2 -1
v -2 3 1
v -2 3 -1
v -2 4 3
v -2 4 2
v -2 4 -2
v -2 4 -3
v -2 6 3
v -2 6 2
v -2 6 -2
v -2 6 -3
v -2 7 1
v -2 7 -1
v -2 8 1
v -2 8 -1
v -1 3 2
v -1 3 1
v -1 3 -1
v -1 3 -2
v -1 4 2
v -1 4 1
v -1 4 -1
v -1 4 -2
v -1 6 2
v -1 6 1
v -1 6 -1
v -1 6 -2
v -1 7 2
v -1 7 1
v -1 7 -1
v -1 7 -2
v 0 3 1
v 0 3 -1
v 0 4 2
v 0 4 1
v 0 4 -1
v 0 4 -2
v 0 5 1
v 0 5 -0
v 0 6 2
v 0 6 1
v 0 6 -0
v 0 6 -1
v 0 6 -2
v 0 7 1
v 0 7 -1
v 1 4 -0
v 1 4 -1
v 1 5 -0
v 1 6 -0
v 1 6 -1
v 2 4 1
v 2 4 -0
v 2 5 1
v 2 5 -0
v 3 5 1
v 3 5 -0
v 3 6 1
v 3 6 -0
v 4 4 -0
v 4 4 -1
v 4 5 -0
v 4 5 -1
v 5 5 1
v 5 5 -0
v 5 6 1
v 5 6 -0
v -3 4 3
v -3 6 3
v -2 4 3
v -2 6 3
v -4 4 2
v -4 6 2
v -3 3 2
v -3 4 2
v -3 6 2
v -3 7 2
v -2 4 2
v -2 6 2
v -1 3 2
v -1 4 2
v -1 6 2
v -1 7 2
v 0 4 2
v 0 6 2
v -5 4 1
v -5 6 1
v -4 3 1
v -4 4 1
v -4 6 1
v -4 7 1
v -3 2 1
v -3 3 1
v -3 4 1
v -3 6 1
v -3 7 1
v -3 8 1
v -2 2 1
v -2 3 1
v -2 7 1
v -2 8 1
v -1 3 1
v -1 4 1
v -1 6 1
v -1 7 1
v 0 3 1
v 0 4 1
v 0 5 1
v 0 6 1
v 0 7 1
v 2 4 1
v 2 5 1
v 2 6 1
v 3 5 1
v 3 6 1
v 4 5 1
v 4 6 1
v 5 5 1
v 5 6 1
v 0 5 -0
v 0 6 -0
v 1 5 -0
v 1 6 -0
v 3 4 -0
v 3 5 -0
v 4 4 -0
v 4 5 -0
v 1 4 -0
v 1 5 -0
v 2 4 -0
v 2 5 -0
v 2 6 -0
v 3 5 -0
v 3 6 -0
v 4 5 -0
v 4 6 -0
v 5 5 -0
v 5 6 -0
v -5 4 -1
v -5 6 -1
v -4 3 -1
v -4 4 -1
v -4 6 -1
v -4 7 -1
v -3 2 -1
v -3 3 -1
v -3 4 -1
v -3 6 -1
v -3 7 -1
v -3 8 -1
v -2 2 -1
v -2 3 -1
v -2 7 -1
v -2 8 -1
v -1 3 -1
v -1 4 -1
v -1 6 -1
v -1 7 -1
v 0 3 -1
v 0 4 -1
v 0 6 -1
v 0 7 -1
v 1 4 -1
v 1 6 -1
v 3 4 -1
v 3 5 -1
v 4 4 -1
v 4 5 -1
v -4 4 -2
v -4 6 -2
v -3 3 -2
v -3 4 -2
v -3 6 -2
v -3 7 -2
v -2 4 -2
v -2 6 -2
v -1 3 -2
v -1 4 -2
v -1 6 -2
v -1 7 -2
v 0 4 -2
v 0 6 -2
v -3 4 -3
v -3 6 -3
v -2 4 -3
v -2 6 -3
v -3 2 1
v -2 2 1
v -3 2 -1
v -2 2 -1
v -3 3 2
v -1 3 2
v -4 3 1
v -3 3 1
v -2 3 1
v -1 3 1
v 0 3 1
v -4 3 -1
v -3 3 -1
v -2 3 -1
v -1 3 -1
v 0 3 -1
v -3 3 -2
v -1 3 -2
v -3 4 3
v -2 4 3
v -4 4 2
v -3 4 2
v -2 4 2
v -1 4 2
v 0 4 2
v -5 4 1
v -4 4 1
v -3 4 1
v -1 4 1
v 0 4 1
v 2 4 1
v 1 4 -0
v 2 4 -0
v 3 4 -0
v 4 4 -0
v -5 4 -1
v -4 4 -1
v -3 4 -1
v -1 4 -1
v 0 4 -1
v 1 4 -1
v 3 4 -1
v 4 4 -1
v -4 4 -2
v -3 4 -2
v -2 4 -2
v -1 4 -2
v 0 4 -2
v -3 4 -3
v -2 4 -3
v 2 5 1
v 3 5 1
v 4 5 1
v 5 5 1
v 2 5 -0
v 3 5 -0
v 4 5 -0
v 5 5 -0
v 0 5 1
v 2 5 1
v 0 5 -0
v 1 5 -0
v 2 5 -0
v 3 5 -0
v 4 5 -0
v 3 5 -1
v 4 5 -1
v -3 6 3
v -2 6 3
v -4 6 2
v -3 6 2
v -2 6 2
v -1 6 2
v 0 6 2
v -5 6 1
v -4 6 1
v -3 6 1
v -1 6 1
v 0 6 1
v 2 6 1
v 3 6 1
v 4 6 1
v 5 6 1
v 0 6 -0
v 1 6 -0
v 2 6 -0
v 3 6 -0
v 4 6 -0
v 5 6 -0
v -5 6 -1
v -4 6 -1
v -3 6 -1
v -1 6 -1
v 0 6 -1
v 1 6 -1
v -4 6 -2
v -3 6 -2
v -2 6 -2
v -1 6 -2
v 0 6 -2
v -3 6 -3
v -2 6 -3
v -3 7 2
v -1 7 2
v -4 7 1
v -3 7 1
v -2 7 1
v -1 7 1
v 0 7 1
v -4 7 -1
v -3 7 -1
v -2 7 -1
v -1 7 -1
v 0 7 -1
v -3 7 -2
v -1 7 -2
v -3 8 1
v -2 8 1
v -3 8 -1
v -2 8 -1

# faces
f 3/1/1 2/1/1 1/1/1
f 4/1/1 2/1/1 3/1/1
f 8/1/1 6/1/1 5/1/1
f 9/1/1 6/1/1 8/1/1
f 11/1/1 8/1/1 7/1/1
f 12/1/1 8/1/1 11/1/1
f 13/1/1 10/1/1 9/1/1
f 14/1/1 10/1/1 13/1/1
f 15/1/1 13/1/1 12/1/1
f 16/1/1 13/1/1 15/1/1
f 20/3/1 18/3/1 17/3/1
f 21/3/1 18/3/1 20/3/1
f 24/3/1 20/3/1 19/3/1
f 25/3/1 20/3/1 24/3/1
f 26/3/1 22/3/1 21/3/1
f 27/3/1 22/3/1 26/3/1
f 29/3/1 24/3/1 23/3/1
f 30/3/1 24/3/1 29/3/1
f 33/3/1 28/3/1 27/3/1
f 34/3/1 28/3/1 33/3/1
f 35/3/1 31/3/1 30/3/1
f 36/3/1 31/3/1 35/3/1
f 37/3/1 33/3/1 32/3/1
f 38/3/1 33/3/1 37/3/1
f 39/3/1 37/3/1 36/3/1
f 40/3/1 37/3/1 39/3/1
f 43/2/1 42/2/1 41/2/1
f 44/2/1 42/2/1 43/2/1
f 47/2/1 46/2/1 45/2/1
f 48/2/1 46/2/1 47/2/1
f 51/2/1 50/2/1 49/2/1
f 52/2/1 50/2/1 51/2/1
f 53/3/2 54/3/2 55/3/2
f 55/3/2 54/3/2 56/3/2
f 57/3/2 58/3/2 61/3/2
f 61/3/2 58/3/2 62/3/2
f 59/3/2 60/3/2 63/3/2
f 63/3/2 60/3/2 64/3/2
f 65/3/2 66/3/2 67/3/2
f 67/3/2 66/3/2 68/3/2
f 69/3/2 70/3/2 73/3/2
f 73/3/2 70/3/2 74/3/2
f 71/3/2 72/3/2 75/3/2
f 75/3/2 72/3/2 76/3/2
f 77/3/2 78/3/2 81/3/2
f 81/3/2 78/3/2 82/3/2
f 79/3/2 80/3/2 83/3/2
f 83/3/2 80/3/2 84/3/2
f 85/4/2 86/4/2 88/4/2
f 88/4/2 86/4/2 89/4/2
f 87/4/2 88/4/2 91/4/2
f 87/4/2 91/4/2 93/4/2
f 91/4/2 92/4/2 93/4/2
f 93/4/2 92/4/2 94/4/2
f 94/4/2 92/4/2 95/4/2
f 89/4/2 90/4/2 96/4/2
f 96/4/2 90/4/2 97/4/2
f 94/4/2 95/4/2 98/4/2
f 95/4/2 96/4/2 98/4/2
f 98/4/2 96/4/2 99/4/2
f 100/4/2 101/4/2 102/4/2
f 102/4/2 101/4/2 103/4/2
f 103/4/2 101/4/2 104/4/2
f 105/4/2 106/4/2 107/4/2
f 107/4/2 106/4/2 108/4/2
f 109/2/2 110/2/2 111/2/2
f 111/2/2 110/2/2 112/2/2
f 113/2/2 114/2/2 115/2/2
f 115/2/2 114/2/2 116/2/2
f 117/2/2 118/2/2 119/2/2
f 119/2/2 118/2/2 120/2/2
f 123/3/3 122/3/3 121/3/3
f 124/3/3 122/3/3 123/3/3
f 128/1/3 126/1/3 125/1/3
f 129/1/3 126/1/3 128/1/3
f 131/3/3 128/3/3 127/3/3
f 132/3/3 130/3/3 129/3/3
f 133/3/3 131/3/3 127/3/3
f 133/3/3 132/3/3 131/3/3
f 134/3/3 132/3/3 133/3/3
f 135/3/3 130/3/3 132/3/3
f 135/3/3 132/3/3 134/3/3
f 136/3/3 130/3/3 135/3/3
f 137/4/3 135/4/3 134/4/3
f 138/4/3 135/4/3 137/4/3
f 142/1/3 140/1/3 139/1/3
f 143/1/3 140/1/3 142/1/3
f 146/1/3 142/1/3 141/1/3
f 147/1/3 142/1/3 146/1/3
f 148/1/3 144/1/3 143/1/3
f 149/1/3 144/1/3 148/1/3
f 151/3/3 146/3/3 145/3/3
f 152/3/3 146/3/3 151/3/3
f 153/3/3 150/3/3 149/3/3
f 154/3/3 150/3/3 153/3/3
f 159/4/3 156/4/3 155/4/3
f 160/4/3 156/4/3 159/4/3
f 162/4/3 158/4/3 157/4/3
f 163/4/3 158/4/3 162/4/3
f 164/4/3 161/4/3 160/4/3
f 165/4/3 161/4/3 164/4/3
f 167/2/3 166/2/3 165/2/3
f 168/2/3 166/2/3 167/2/3
f 171/2/3 170/2/3 169/2/3
f 172/2/3 170/2/3 171/2/3
f 175/4/3 174/4/3 173/4/3
f 176/4/3 174/4/3 175/4/3
f 179/2/3 178/2/3 177/2/3
f 180/2/3 178/2/3 179/2/3
f 181/4/4 182/4/4 183/4/4
f 183/4/4 182/4/4 184/4/4
f 184/2/4 185/2/4 186/2/4
f 186/2/4 185/2/4 187/2/4
f 188/2/4 189/2/4 190/2/4
f 190/2/4 189/2/4 191/2/4
f 192/1/4 193/1/4 195/1/4
f 195/1/4 193/1/4 196/1/4
f 194/1/4 195/1/4 199/1/4
f 199/1/4 195/1/4 200/1/4
f 196/1/4 197/1/4 201/1/4
f 201/1/4 197/1/4 202/1/4
f 198/3/4 199/3/4 204/3/4
f 204/3/4 199/3/4 205/3/4
f 202/3/4 203/3/4 206/3/4
f 206/3/4 203/3/4 207/3/4
f 208/4/4 209/4/4 212/4/4
f 212/4/4 209/4/4 213/4/4
f 210/4/4 211/4/4 214/4/4
f 214/4/4 211/4/4 215/4/4
f 213/4/4 214/4/4 216/4/4
f 216/4/4 214/4/4 217/4/4
f 218/2/4 219/2/4 220/2/4
f 220/2/4 219/2/4 221/2/4
f 222/1/4 223/1/4 225/1/4
f 225/1/4 223/1/4 226/1/4
f 224/3/4 225/3/4 228/3/4
f 226/3/4 227/3/4 229/3/4
f 224/3/4 228/3/4 230/3/4
f 228/3/4 229/3/4 230/3/4
f 230/3/4 229/3/4 231/3/4
f 229/3/4 227/3/4 232/3/4
f 231/3/4 229/3/4 232/3/4
f 232/3/4 227/3/4 233/3/4
f 231/4/4 232/4/4 234/4/4
f 234/4/4 232/4/4 235/4/4
f 236/3/4 237/3/4 238/3/4
f 238/3/4 237/3/4 239/3/4
f 242/3/5 241/3/5 240/3/5
f 243/3/5 241/3/5 242/3/5
f 247/3/5 245/3/5 244/3/5
f 248/3/5 245/3/5 247/3/5
f 249/3/5 245/3/5 248/3/5
f 251/1/5 247/1/5 246/1/5
f 252/1/5 247/1/5 251/1/5
f 253/3/5 249/3/5 248/3/5
f 254/4/5 250/4/5 249/4/5
f 254/3/5 249/3/5 253/3/5
f 255/4/5 250/4/5 254/4/5
f 256/3/5 253/3/5 252/3/5
f 256/3/5 254/3/5 253/3/5
f 257/3/5 254/3/5 256/3/5
f 261/3/5 259/3/5 258/3/5
f 262/3/5 259/3/5 261/3/5
f 266/1/5 261/1/5 260/1/5
f 267/1/5 261/1/5 266/1/5
f 268/4/5 264/4/5 263/4/5
f 269/4/5 264/4/5 268/4/5
f 271/4/5 270/4/5 269/4/5
f 272/4/5 270/4/5 271/4/5
f 275/1/5 266/1/5 265/1/5
f 276/1/5 266/1/5 275/1/5
f 279/4/5 271/4/5 269/4/5
f 280/4/5 271/4/5 279/4/5
f 281/2/5 274/2/5 273/2/5
f 282/2/5 274/2/5 281/2/5
f 283/1/5 277/1/5 276/1/5
f 284/1/5 277/1/5 283/1/5
f 286/4/5 279/4/5 278/4/5
f 287/4/5 279/4/5 286/4/5
f 288/3/5 285/3/5 284/3/5
f 289/3/5 285/3/5 288/3/5
f 294/2/5 291/2/5 290/2/5
f 295/2/5 291/2/5 294/2/5
f 296/2/5 293/2/5 292/2/5
f 297/2/5 293/2/5 296/2/5
f 298/4/6 299/4/6 300/4/6
f 300/4/6 299/4/6 301/4/6
f 301/4/6 299/4/6 302/4/6
f 303/2/6 304/2/6 305/2/6
f 305/2/6 304/2/6 306/2/6
f 307/3/6 308/3/6 310/3/6
f 310/3/6 308/3/6 311/3/6
f 309/1/6 310/1/6 315/1/6
f 315/1/6 310/1/6 316/1/6
f 312/4/6 313/4/6 317/4/6
f 317/4/6 313/4/6 318/4/6
f 319/2/6 320/2/6 325/2/6
f 325/2/6 320/2/6 326/2/6
f 321/2/6 322/2/6 327/2/6
f 327/2/6 322/2/6 328/2/6
f 314/1/6 315/1/6 329/1/6
f 329/1/6 315/1/6 330/1/6
f 323/4/6 324/4/6 333/4/6
f 333/4/6 324/4/6 334/4/6
f 330/1/6 331/1/6 335/1/6
f 335/1/6 331/1/6 336/1/6
f 332/4/6 333/4/6 338/4/6
f 338/4/6 333/4/6 339/4/6
f 336/3/6 337/3/6 340/3/6
f 340/3/6 337/3/6 341/3/6
f 342/3/6 343/3/6 345/3/6
f 345/3/6 343/3/6 346/3/6
f 346/3/6 343/3/6 347/3/6
f 344/1/6 345/1/6 349/1/6
f 349/1/6 345/1/6 350/1/6
f 346/3/6 347/3/6 351/3/6
f 347/4/6 348/4/6 352/4/6
f 351/3/6 347/3/6 352/3/6
f 352/4/6 348/4/6 353/4/6
f 350/3/6 351/3/6 354/3/6
f 351/3/6 352/3/6 354/3/6
f 354/3/6 352/3/6 355/3/6
f 356/3/6 357/3/6 358/3/6
f 358/3/6 357/3/6 359/3/6
