# MagicaVoxel @ Ephtracy

# group
g cauldron

# material
mtllib cauldron.mtl
usemtl palette

# normals
vn -1 0 0
vn 1 0 0
vn 0 0 1
vn 0 0 -1
vn 0 -1 0
vn 0 1 0

# texcoords
vt 0.916016 0.5
vt 0.919922 0.5
vt 0.947266 0.5

# verts
v -3 2 -0
v -3 2 -4
v -3 5 -0
v -3 5 -4
v -2 0 -1
v -2 0 -3
v -2 1 -0
v -2 1 -1
v -2 1 -3
v -2 1 -4
v -2 2 1
v -2 2 -0
v -2 2 -4
v -2 2 -5
v -2 5 1
v -2 5 -0
v -2 5 -4
v -2 5 -5
v -1 0 -0
v -1 0 -1
v -1 0 -3
v -1 0 -4
v -1 1 1
v -1 1 -0
v -1 1 -1
v -1 1 -3
v -1 1 -4
v -1 1 -5
v -1 2 2
v -1 2 1
v -1 2 -0
v -1 2 -4
v -1 2 -5
v -1 2 -6
v -1 5 2
v -1 5 1
v -1 5 -5
v -1 5 -6
v 0 0 1
v 0 0 -0
v 0 0 -4
v 0 0 -5
v 0 1 1
v 0 1 -0
v 0 1 -4
v 0 1 -5
v 0 4 -1
v 0 4 -2
v 0 4 -3
v 0 4 -4
v 0 5 -1
v 0 5 -2
v 0 5 -3
v 0 5 -4
v 1 4 1
v 1 4 -0
v 1 4 -2
v 1 4 -3
v 1 5 1
v 1 5 -0
v 1 5 -2
v 1 5 -3
v 2 4 -0
v 2 4 -1
v 2 4 -3
v 2 4 -4
v 2 5 -0
v 2 5 -1
v 2 5 -3
v 2 5 -4
v 3 4 1
v 3 4 -0
v 3 4 -2
v 3 4 -3
v 3 4 -4
v 3 4 -5
v 3 5 1
v 3 5 -0
v 3 5 -2
v 3 5 -3
v 3 5 -4
v 3 5 -5
v 4 4 -0
v 4 4 -1
v 4 4 -2
v 4 4 -3
v 4 4 -4
v 4 5 -0
v 4 5 -2
v 4 5 -3
v 4 5 -4
v -2 4 -1
v -2 4 -2
v -2 4 -3
v -2 4 -4
v -2 5 -1
v -2 5 -2
v -2 5 -3
v -2 5 -4
v -1 4 -0
v -1 4 -1
v -1 4 -2
v -1 4 -3
v -1 5 -0
v -1 5 -1
v -1 5 -2
v -1 5 -3
v 0 4 1
v 0 4 -0
v 0 4 -4
v 0 4 -5
v 0 5 1
v 0 5 -0
v 0 5 -4
v 0 5 -5
v 1 4 -1
v 1 4 -2
v 1 4 -3
v 1 4 -4
v 1 5 -1
v 1 5 -2
v 1 5 -3
v 1 5 -4
v 2 0 1
v 2 0 -0
v 2 0 -4
v 2 0 -5
v 2 1 1
v 2 1 -0
v 2 1 -4
v 2 1 -5
v 2 4 1
v 2 4 -0
v 2 4 -2
v 2 4 -3
v 2 5 1
v 2 5 -0
v 2 5 -2
v 2 5 -3
v 3 0 -0
v 3 0 -1
v 3 0 -3
v 3 0 -4
v 3 1 1
v 3 1 -0
v 3 1 -1
v 3 1 -3
v 3 1 -4
v 3 1 -5
v 3 2 2
v 3 2 1
v 3 2 -0
v 3 2 -4
v 3 2 -5
v 3 2 -6
v 3 4 -0
v 3 4 -1
v 3 4 -3
v 3 4 -4
v 3 5 2
v 3 5 1
v 3 5 -0
v 3 5 -1
v 3 5 -3
v 3 5 -4
v 3 5 -5
v 3 5 -6
v 4 0 -1
v 4 0 -3
v 4 1 -0
v 4 1 -1
v 4 1 -3
v 4 1 -4
v 4 2 1
v 4 2 -0
v 4 2 -4
v 4 2 -5
v 4 5 1
v 4 5 -0
v 4 5 -4
v 4 5 -5
v 5 2 -0
v 5 2 -4
v 5 5 -0
v 5 5 -4
v -1 2 2
v -1 5 2
v 3 2 2
v 3 5 2
v -2 2 1
v -2 5 1
v -1 1 1
v -1 2 1
v -1 5 1
v 0 0 1
v 0 1 1
v 2 0 1
v 2 1 1
v 3 1 1
v 3 2 1
v 3 5 1
v 4 2 1
v 4 5 1
v -3 2 -0
v -3 5 -0
v -2 1 -0
v -2 2 -0
v -2 5 -0
v -1 0 -0
v -1 1 -0
v -1 2 -0
v 0 0 -0
v 0 1 -0
v 2 0 -0
v 2 1 -0
v 2 4 -0
v 2 5 -0
v 3 0 -0
v 3 1 -0
v 3 2 -0
v 3 4 -0
v 3 5 -0
v 4 1 -0
v 4 2 -0
v 4 5 -0
v 5 2 -0
v 5 5 -0
v -2 0 -1
v -2 1 -1
v -1 0 -1
v -1 1 -1
v 0 4 -1
v 0 5 -1
v 1 4 -1
v 1 5 -1
v 3 0 -1
v 3 1 -1
v 4 0 -1
v 4 1 -1
v -2 4 -2
v -2 5 -2
v -1 4 -2
v -1 5 -2
v 1 4 -2
v 1 5 -2
v 2 4 -2
v 2 5 -2
v 3 4 -2
v 3 5 -2
v 4 4 -2
v 4 5 -2
v 0 4 -3
v 0 5 -3
v 1 4 -3
v 1 5 -3
v 2 4 -3
v 2 5 -3
v 3 4 -3
v 3 5 -3
v -2 4 -4
v -2 5 -4
v -1 4 -4
v -1 5 -4
v 0 4 -4
v 0 5 -4
v 3 4 -4
v 3 5 -4
v 4 4 -4
v 4 5 -4
v 0 4 -5
v 0 5 -5
v 1 4 -5
v 2 4 -5
v 3 4 -5
v 3 5 -5
v 0 4 1
v 0 5 1
v 1 4 1
v 1 5 1
v 2 4 1
v 2 5 1
v 3 4 1
v 3 5 1
v -1 4 -0
v -1 5 -0
v 0 4 -0
v 0 5 -0
v 1 4 -0
v 1 5 -0
v 2 4 -0
v 2 5 -0
v 3 4 -0
v 3 5 -0
v 4 4 -0
v 4 5 -0
v -2 4 -1
v -2 5 -1
v -1 4 -1
v -1 5 -1
v 2 4 -1
v 2 5 -1
v 3 4 -1
v 3 5 -1
v 0 4 -2
v 0 5 -2
v 1 4 -2
v 1 5 -2
v -2 0 -3
v -2 1 -3
v -2 4 -3
v -2 5 -3
v -1 0 -3
v -1 1 -3
v -1 4 -3
v -1 5 -3
v 1 4 -3
v 1 5 -3
v 2 4 -3
v 2 5 -3
v 3 0 -3
v 3 1 -3
v 3 4 -3
v 3 5 -3
v 4 0 -3
v 4 1 -3
v 4 4 -3
v 4 5 -3
v -3 2 -4
v -3 5 -4
v -2 1 -4
v -2 2 -4
v -2 5 -4
v -1 0 -4
v -1 1 -4
v -1 2 -4
v 0 0 -4
v 0 1 -4
v 0 4 -4
v 0 5 -4
v 1 4 -4
v 1 5 -4
v 2 0 -4
v 2 1 -4
v 2 4 -4
v 2 5 -4
v 3 0 -4
v 3 1 -4
v 3 2 -4
v 3 4 -4
v 3 5 -4
v 4 1 -4
v 4 2 -4
v 4 5 -4
v 5 2 -4
v 5 5 -4
v -2 2 -5
v -2 5 -5
v -1 1 -5
v -1 2 -5
v -1 5 -5
v 0 0 -5
v 0 1 -5
v 2 0 -5
v 2 1 -5
v 3 1 -5
v 3 2 -5
v 3 5 -5
v 4 2 -5
v 4 5 -5
v -1 2 -6
v -1 5 -6
v 3 2 -6
v 3 5 -6
v 0 0 1
v 2 0 1
v -1 0 -0
v 0 0 -0
v 2 0 -0
v 3 0 -0
v -2 0 -1
v -1 0 -1
v 3 0 -1
v 4 0 -1
v -2 0 -3
v -1 0 -3
v 3 0 -3
v 4 0 -3
v -1 0 -4
v 0 0 -4
v 2 0 -4
v 3 0 -4
v 0 0 -5
v 2 0 -5
v -1 1 1
v 0 1 1
v 2 1 1
v 3 1 1
v -2 1 -0
v -1 1 -0
v 0 1 -0
v 2 1 -0
v 3 1 -0
v 4 1 -0
v -2 1 -1
v -1 1 -1
v 3 1 -1
v 4 1 -1
v -2 1 -3
v -1 1 -3
v 3 1 -3
v 4 1 -3
v -2 1 -4
v -1 1 -4
v 0 1 -4
v 2 1 -4
v 3 1 -4
v 4 1 -4
v -1 1 -5
v 0 1 -5
v 2 1 -5
v 3 1 -5
v -1 2 2
v 3 2 2
v -2 2 1
v -1 2 1
v 3 2 1
v 4 2 1
v -3 2 -0
v -2 2 -0
v -1 2 -0
v 3 2 -0
v 4 2 -0
v 5 2 -0
v -3 2 -4
v -2 2 -4
v -1 2 -4
v 3 2 -4
v 4 2 -4
v 5 2 -4
v -2 2 -5
v -1 2 -5
v 3 2 -5
v 4 2 -5
v -1 2 -6
v 3 2 -6
v 0 4 1
v 1 4 1
v 2 4 1
v 3 4 1
v -1 4 -0
v 0 4 -0
v 1 4 -0
v 2 4 -0
v 3 4 -0
v 4 4 -0
v -2 4 -1
v -1 4 -1
v 0 4 -1
v 1 4 -1
v 2 4 -1
v 3 4 -1
v 4 4 -1
v -2 4 -2
v -1 4 -2
v 0 4 -2
v 1 4 -2
v 2 4 -2
v 3 4 -2
v 4 4 -2
v -2 4 -3
v -1 4 -3
v 0 4 -3
v 1 4 -3
v 2 4 -3
v 3 4 -3
v 4 4 -3
v -2 4 -4
v -1 4 -4
v 0 4 -4
v 1 4 -4
v 2 4 -4
v 3 4 -4
v 4 4 -4
v 0 4 -5
v 1 4 -5
v 2 4 -5
v 3 4 -5
v -1 5 2
v 3 5 2
v -2 5 1
v -1 5 1
v 0 5 1
v 1 5 1
v 2 5 1
v 3 5 1
v 4 5 1
v -3 5 -0
v -2 5 -0
v -1 5 -0
v 0 5 -0
v 1 5 -0
v 2 5 -0
v 3 5 -0
v 4 5 -0
v 5 5 -0
v -2 5 -1
v -1 5 -1
v 0 5 -1
v 1 5 -1
v 2 5 -1
v 3 5 -1
v -2 5 -2
v -1 5 -2
v 0 5 -2
v 1 5 -2
v 2 5 -2
v 3 5 -2
v 4 5 -2
v -2 5 -3
v -1 5 -3
v 0 5 -3
v 1 5 -3
v 2 5 -3
v 3 5 -3
v 4 5 -3
v -3 5 -4
v -2 5 -4
v -1 5 -4
v 0 5 -4
v 1 5 -4
v 2 5 -4
v 3 5 -4
v 4 5 -4
v 5 5 -4
v -2 5 -5
v -1 5 -5
v 0 5 -5
v 3 5 -5
v 4 5 -5
v -1 5 -6
v 3 5 -6

# faces
f 3/3/1 2/3/1 1/3/1
f 4/3/1 2/3/1 3/3/1
f 8/3/1 6/3/1 5/3/1
f 9/3/1 6/3/1 8/3/1
f 12/3/1 8/3/1 7/3/1
f 12/3/1 10/3/1 9/3/1
f 12/3/1 9/3/1 8/3/1
f 13/3/1 10/3/1 12/3/1
f 15/3/1 12/3/1 11/3/1
f 16/3/1 12/3/1 15/3/1
f 17/3/1 14/3/1 13/3/1
f 18/3/1 14/3/1 17/3/1
f 24/3/1 20/3/1 19/3/1
f 25/3/1 20/3/1 24/3/1
f 26/3/1 22/3/1 21/3/1
f 27/3/1 22/3/1 26/3/1
f 30/3/1 24/3/1 23/3/1
f 31/3/1 24/3/1 30/3/1
f 32/3/1 28/3/1 27/3/1
f 33/3/1 28/3/1 32/3/1
f 35/3/1 30/3/1 29/3/1
f 36/3/1 30/3/1 35/3/1
f 37/3/1 34/3/1 33/3/1
f 38/3/1 34/3/1 37/3/1
f 43/3/1 40/3/1 39/3/1
f 44/3/1 40/3/1 43/3/1
f 45/3/1 42/3/1 41/3/1
f 46/3/1 42/3/1 45/3/1
f 51/2/1 48/2/1 47/2/1
f 52/2/1 48/2/1 51/2/1
f 53/2/1 50/2/1 49/2/1
f 54/2/1 50/2/1 53/2/1
f 59/1/1 56/1/1 55/1/1
f 60/1/1 56/1/1 59/1/1
f 61/1/1 58/1/1 57/1/1
f 62/1/1 58/1/1 61/1/1
f 67/2/1 64/2/1 63/2/1
f 68/2/1 64/2/1 67/2/1
f 69/2/1 66/2/1 65/2/1
f 70/2/1 66/2/1 69/2/1
f 77/3/1 72/3/1 71/3/1
f 78/3/1 72/3/1 77/3/1
f 79/1/1 74/1/1 73/1/1
f 80/1/1 74/1/1 79/1/1
f 81/3/1 76/3/1 75/3/1
f 82/3/1 76/3/1 81/3/1
f 88/3/1 84/3/1 83/3/1
f 88/3/1 85/3/1 84/3/1
f 89/3/1 85/3/1 88/3/1
f 90/3/1 87/3/1 86/3/1
f 91/3/1 87/3/1 90/3/1
f 92/3/2 93/3/2 96/3/2
f 96/3/2 93/3/2 97/3/2
f 94/3/2 95/3/2 98/3/2
f 98/3/2 95/3/2 99/3/2
f 100/2/2 101/2/2 104/2/2
f 104/2/2 101/2/2 105/2/2
f 102/1/2 103/1/2 106/1/2
f 106/1/2 103/1/2 107/1/2
f 108/2/2 109/2/2 112/2/2
f 112/2/2 109/2/2 113/2/2
f 110/1/2 111/1/2 114/1/2
f 114/1/2 111/1/2 115/1/2
f 116/2/2 117/2/2 120/2/2
f 120/2/2 117/2/2 121/2/2
f 118/2/2 119/2/2 122/2/2
f 122/2/2 119/2/2 123/2/2
f 124/3/2 125/3/2 128/3/2
f 128/3/2 125/3/2 129/3/2
f 126/3/2 127/3/2 130/3/2
f 130/3/2 127/3/2 131/3/2
f 132/1/2 133/1/2 136/1/2
f 136/1/2 133/1/2 137/1/2
f 134/1/2 135/1/2 138/1/2
f 138/1/2 135/1/2 139/1/2
f 140/3/2 141/3/2 145/3/2
f 145/3/2 141/3/2 146/3/2
f 142/3/2 143/3/2 147/3/2
f 147/3/2 143/3/2 148/3/2
f 144/3/2 145/3/2 151/3/2
f 151/3/2 145/3/2 152/3/2
f 148/3/2 149/3/2 153/3/2
f 153/3/2 149/3/2 154/3/2
f 150/3/2 151/3/2 160/3/2
f 160/3/2 151/3/2 161/3/2
f 156/2/2 157/2/2 162/2/2
f 162/2/2 157/2/2 163/2/2
f 158/2/2 159/2/2 164/2/2
f 164/2/2 159/2/2 165/2/2
f 154/3/2 155/3/2 166/3/2
f 166/3/2 155/3/2 167/3/2
f 168/3/2 169/3/2 171/3/2
f 171/3/2 169/3/2 172/3/2
f 170/3/2 171/3/2 175/3/2
f 172/3/2 173/3/2 175/3/2
f 171/3/2 172/3/2 175/3/2
f 175/3/2 173/3/2 176/3/2
f 174/3/2 175/3/2 178/3/2
f 178/3/2 175/3/2 179/3/2
f 176/3/2 177/3/2 180/3/2
f 180/3/2 177/3/2 181/3/2
f 182/3/2 183/3/2 184/3/2
f 184/3/2 183/3/2 185/3/2
f 188/3/3 187/3/3 186/3/3
f 189/3/3 187/3/3 188/3/3
f 193/3/3 191/3/3 190/3/3
f 194/3/3 191/3/3 193/3/3
f 196/3/3 193/3/3 192/3/3
f 197/3/3 196/3/3 195/3/3
f 198/3/3 193/3/3 196/3/3
f 198/3/3 196/3/3 197/3/3
f 199/3/3 193/3/3 198/3/3
f 200/3/3 193/3/3 199/3/3
f 202/3/3 201/3/3 200/3/3
f 203/3/3 201/3/3 202/3/3
f 207/3/3 205/3/3 204/3/3
f 208/3/3 205/3/3 207/3/3
f 210/3/3 207/3/3 206/3/3
f 211/3/3 207/3/3 210/3/3
f 212/3/3 210/3/3 209/3/3
f 213/3/3 210/3/3 212/3/3
f 218/3/3 215/3/3 214/3/3
f 219/3/3 215/3/3 218/3/3
f 221/2/3 217/2/3 216/2/3
f 222/2/3 217/2/3 221/2/3
f 223/3/3 220/3/3 219/3/3
f 224/3/3 220/3/3 223/3/3
f 226/3/3 225/3/3 224/3/3
f 227/3/3 225/3/3 226/3/3
f 230/3/3 229/3/3 228/3/3
f 231/3/3 229/3/3 230/3/3
f 234/2/3 233/2/3 232/2/3
f 235/2/3 233/2/3 234/2/3
f 238/3/3 237/3/3 236/3/3
f 239/3/3 237/3/3 238/3/3
f 242/1/3 241/1/3 240/1/3
f 243/1/3 241/1/3 242/1/3
f 246/1/3 245/1/3 244/1/3
f 247/1/3 245/1/3 246/1/3
f 250/1/3 249/1/3 248/1/3
f 251/1/3 249/1/3 250/1/3
f 254/2/3 253/2/3 252/2/3
f 255/2/3 253/2/3 254/2/3
f 258/2/3 257/2/3 256/2/3
f 259/2/3 257/2/3 258/2/3
f 262/3/3 261/3/3 260/3/3
f 263/3/3 261/3/3 262/3/3
f 264/1/3 263/1/3 262/1/3
f 265/1/3 263/1/3 264/1/3
f 268/3/3 267/3/3 266/3/3
f 269/3/3 267/3/3 268/3/3
f 272/3/3 271/3/3 270/3/3
f 273/3/3 271/3/3 272/3/3
f 274/3/3 271/3/3 273/3/3
f 275/3/3 271/3/3 274/3/3
f 276/3/4 277/3/4 278/3/4
f 278/3/4 277/3/4 279/3/4
f 280/3/4 281/3/4 282/3/4
f 282/3/4 281/3/4 283/3/4
f 284/2/4 285/2/4 286/2/4
f 286/2/4 285/2/4 287/2/4
f 288/1/4 289/1/4 290/1/4
f 290/1/4 289/1/4 291/1/4
f 292/3/4 293/3/4 294/3/4
f 294/3/4 293/3/4 295/3/4
f 296/2/4 297/2/4 298/2/4
f 298/2/4 297/2/4 299/2/4
f 300/2/4 301/2/4 302/2/4
f 302/2/4 301/2/4 303/2/4
f 304/2/4 305/2/4 306/2/4
f 306/2/4 305/2/4 307/2/4
f 308/3/4 309/3/4 312/3/4
f 312/3/4 309/3/4 313/3/4
f 310/1/4 311/1/4 314/1/4
f 314/1/4 311/1/4 315/1/4
f 316/1/4 317/1/4 318/1/4
f 318/1/4 317/1/4 319/1/4
f 320/3/4 321/3/4 324/3/4
f 324/3/4 321/3/4 325/3/4
f 322/1/4 323/1/4 326/1/4
f 326/1/4 323/1/4 327/1/4
f 328/3/4 329/3/4 331/3/4
f 331/3/4 329/3/4 332/3/4
f 330/3/4 331/3/4 334/3/4
f 334/3/4 331/3/4 335/3/4
f 333/3/4 334/3/4 336/3/4
f 336/3/4 334/3/4 337/3/4
f 338/2/4 339/2/4 340/2/4
f 340/2/4 339/2/4 341/2/4
f 342/3/4 343/3/4 346/3/4
f 346/3/4 343/3/4 347/3/4
f 344/2/4 345/2/4 349/2/4
f 349/2/4 345/2/4 350/2/4
f 347/3/4 348/3/4 351/3/4
f 351/3/4 348/3/4 352/3/4
f 352/3/4 353/3/4 354/3/4
f 354/3/4 353/3/4 355/3/4
f 356/3/4 357/3/4 359/3/4
f 359/3/4 357/3/4 360/3/4
f 358/3/4 359/3/4 362/3/4
f 361/3/4 362/3/4 363/3/4
f 362/3/4 359/3/4 364/3/4
f 363/3/4 362/3/4 364/3/4
f 364/3/4 359/3/4 365/3/4
f 365/3/4 359/3/4 366/3/4
f 366/3/4 367/3/4 368/3/4
f 368/3/4 367/3/4 369/3/4
f 370/3/4 371/3/4 372/3/4
f 372/3/4 371/3/4 373/3/4
f 377/3/5 375/3/5 374/3/5
f 378/3/5 375/3/5 377/3/5
f 381/3/5 377/3/5 376/3/5
f 381/3/5 379/3/5 378/3/5
f 381/3/5 378/3/5 377/3/5
f 382/3/5 379/3/5 381/3/5
f 384/3/5 381/3/5 380/3/5
f 384/3/5 383/3/5 382/3/5
f 384/3/5 382/3/5 381/3/5
f 385/3/5 383/3/5 384/3/5
f 386/3/5 383/3/5 385/3/5
f 387/3/5 383/3/5 386/3/5
f 388/3/5 386/3/5 385/3/5
f 389/3/5 386/3/5 388/3/5
f 390/3/5 386/3/5 389/3/5
f 391/3/5 386/3/5 390/3/5
f 392/3/5 390/3/5 389/3/5
f 393/3/5 390/3/5 392/3/5
f 399/3/5 395/3/5 394/3/5
f 400/3/5 395/3/5 399/3/5
f 401/3/5 397/3/5 396/3/5
f 402/3/5 397/3/5 401/3/5
f 404/3/5 399/3/5 398/3/5
f 405/3/5 399/3/5 404/3/5
f 406/3/5 403/3/5 402/3/5
f 407/3/5 403/3/5 406/3/5
f 412/3/5 409/3/5 408/3/5
f 413/3/5 409/3/5 412/3/5
f 416/3/5 411/3/5 410/3/5
f 417/3/5 411/3/5 416/3/5
f 418/3/5 414/3/5 413/3/5
f 419/3/5 414/3/5 418/3/5
f 420/3/5 416/3/5 415/3/5
f 421/3/5 416/3/5 420/3/5
f 425/3/5 423/3/5 422/3/5
f 426/3/5 423/3/5 425/3/5
f 429/3/5 425/3/5 424/3/5
f 430/3/5 425/3/5 429/3/5
f 431/3/5 427/3/5 426/3/5
f 432/3/5 427/3/5 431/3/5
f 434/3/5 429/3/5 428/3/5
f 435/3/5 429/3/5 434/3/5
f 438/3/5 433/3/5 432/3/5
f 439/3/5 433/3/5 438/3/5
f 440/3/5 436/3/5 435/3/5
f 441/3/5 436/3/5 440/3/5
f 442/3/5 438/3/5 437/3/5
f 443/3/5 438/3/5 442/3/5
f 444/3/5 442/3/5 441/3/5
f 445/3/5 442/3/5 444/3/5
f 446/2/6 447/2/6 451/2/6
f 451/2/6 447/2/6 452/2/6
f 448/2/6 449/2/6 453/2/6
f 453/2/6 449/2/6 454/2/6
f 450/2/6 451/2/6 457/2/6
f 451/1/6 452/1/6 458/1/6
f 457/2/6 451/2/6 458/2/6
f 452/2/6 453/2/6 459/2/6
f 458/1/6 452/1/6 459/1/6
f 459/2/6 453/2/6 460/2/6
f 454/1/6 455/1/6 461/1/6
f 461/1/6 455/1/6 462/1/6
f 456/1/6 457/1/6 463/1/6
f 457/2/6 458/2/6 464/2/6
f 463/1/6 457/1/6 464/1/6
f 464/2/6 458/2/6 465/2/6
f 459/1/6 460/1/6 466/1/6
f 460/1/6 461/1/6 466/1/6
f 466/1/6 461/1/6 467/1/6
f 461/2/6 462/2/6 468/2/6
f 467/1/6 461/1/6 468/1/6
f 468/2/6 462/2/6 469/2/6
f 464/1/6 465/1/6 471/1/6
f 465/1/6 466/1/6 471/1/6
f 471/1/6 466/1/6 472/1/6
f 472/1/6 466/1/6 473/1/6
f 467/2/6 468/2/6 474/2/6
f 474/2/6 468/2/6 475/2/6
f 470/1/6 471/1/6 477/1/6
f 471/2/6 472/2/6 478/2/6
f 477/1/6 471/1/6 478/1/6
f 478/2/6 472/2/6 479/2/6
f 473/1/6 474/1/6 480/1/6
f 480/1/6 474/1/6 481/1/6
f 475/1/6 476/1/6 482/1/6
f 482/1/6 476/1/6 483/1/6
f 479/2/6 480/2/6 484/2/6
f 480/1/6 481/1/6 485/1/6
f 484/2/6 480/2/6 485/2/6
f 481/2/6 482/2/6 486/2/6
f 485/1/6 481/1/6 486/1/6
f 486/2/6 482/2/6 487/2/6
f 488/3/6 489/3/6 491/3/6
f 491/3/6 489/3/6 492/3/6
f 492/3/6 489/3/6 493/3/6
f 493/3/6 489/3/6 494/3/6
f 494/3/6 489/3/6 495/3/6
f 490/3/6 491/3/6 498/3/6
f 491/2/6 492/2/6 499/2/6
f 498/3/6 491/3/6 499/3/6
f 499/2/6 492/2/6 500/2/6
f 493/1/6 494/1/6 501/1/6
f 501/1/6 494/1/6 502/1/6
f 495/3/6 496/3/6 503/3/6
f 503/3/6 496/3/6 504/3/6
f 497/3/6 498/3/6 506/3/6
f 498/2/6 499/2/6 506/2/6
f 506/2/6 499/2/6 507/2/6
f 502/2/6 503/2/6 510/2/6
f 510/2/6 503/2/6 511/2/6
f 497/3/6 506/3/6 512/3/6
f 508/2/6 509/2/6 514/2/6
f 514/2/6 509/2/6 515/2/6
f 504/3/6 505/3/6 518/3/6
f 512/1/6 513/1/6 519/1/6
f 497/3/6 512/3/6 519/3/6
f 519/1/6 513/1/6 520/1/6
f 515/1/6 516/1/6 522/1/6
f 522/1/6 516/1/6 523/1/6
f 517/1/6 518/1/6 524/1/6
f 518/3/6 505/3/6 525/3/6
f 524/1/6 518/1/6 525/1/6
f 497/3/6 519/3/6 526/3/6
f 526/3/6 519/3/6 527/3/6
f 521/2/6 522/2/6 529/2/6
f 529/2/6 522/2/6 530/2/6
f 523/2/6 524/2/6 531/2/6
f 531/2/6 524/2/6 532/2/6
f 525/3/6 505/3/6 533/3/6
f 533/3/6 505/3/6 534/3/6
f 527/3/6 528/3/6 535/3/6
f 528/1/6 529/1/6 536/1/6
f 535/3/6 528/3/6 536/3/6
f 536/1/6 529/1/6 537/1/6
f 532/3/6 533/3/6 538/3/6
f 538/3/6 533/3/6 539/3/6
f 536/3/6 537/3/6 540/3/6
f 537/3/6 538/3/6 540/3/6
f 540/3/6 538/3/6 541/3/6
