# MagicaVoxel @ Ephtracy

# group
g lamp

# material
mtllib lamp.mtl
usemtl palette

# normals
vn -1 0 0
vn 1 0 0
vn 0 0 1
vn 0 0 -1
vn 0 -1 0
vn 0 1 0

# texcoords
vt 0.0214844 0.5
vt 0.0683594 0.5
vt 0.373047 0.5
vt 0.978516 0.5
vt 0.994141 0.5

# verts
v -4 18 -0
v -4 18 -1
v -4 19 -0
v -4 19 -1
v -3 18 1
v -3 18 -0
v -3 18 -1
v -3 18 -2
v -3 19 1
v -3 19 -0
v -3 19 -1
v -3 19 -2
v -3 20 -0
v -3 20 -1
v -2 0 -0
v -2 0 -1
v -2 18 -0
v -2 18 -1
v -1 0 1
v -1 0 -0
v -1 0 -1
v -1 0 -2
v -1 18 1
v -1 18 -0
v -1 18 -1
v -1 18 -2
v -1 20 -0
v -1 20 -1
v -1 24 -0
v -1 24 -1
v 0 18 2
v 0 18 1
v 0 18 -2
v 0 18 -3
v 0 19 1
v 0 19 -0
v 0 19 -1
v 0 19 -2
v 0 20 2
v 0 20 1
v 0 20 -2
v 0 20 -3
v 0 24 1
v 0 24 -0
v 0 24 -1
v 0 24 -2
v 0 25 -0
v 0 25 -1
v 2 17 -0
v 2 17 -1
v 2 18 -0
v 2 18 -1
v 3 18 -0
v 3 18 -1
v 3 19 -0
v 3 19 -1
v 4 19 -0
v 4 19 -1
v 4 20 -0
v 4 20 -1
v 7 11 -0
v 7 11 -1
v 7 12 1
v 7 12 -0
v 7 12 -1
v 7 12 -2
v 7 13 1
v 7 13 -0
v 7 14 -1
v 7 14 -2
v 7 15 -1
v 7 15 -2
v 7 16 1
v 7 16 -0
v 7 16 -1
v 7 16 -2
v 7 17 -0
v 7 17 -1
v 8 11 1
v 8 11 -0
v 8 11 -1
v 8 11 -2
v 8 12 1
v 8 12 -0
v 8 12 -1
v 8 12 -2
v 8 16 1
v 8 16 -0
v 8 16 -1
v 8 16 -2
v 8 17 1
v 8 17 -0
v 8 17 -1
v 8 17 -2
v 8 20 -0
v 8 20 -1
v 0 0 1
v 0 0 -0
v 0 0 -1
v 0 0 -2
v 0 18 1
v 0 18 -0
v 0 18 -1
v 0 18 -2
v 1 0 -0
v 1 0 -1
v 1 15 -0
v 1 15 -1
v 1 17 -0
v 1 17 -1
v 1 18 2
v 1 18 -0
v 1 18 -1
v 1 18 -3
v 1 20 2
v 1 20 1
v 1 20 -2
v 1 20 -3
v 1 21 1
v 1 21 -0
v 1 21 -1
v 1 21 -2
v 1 22 -0
v 1 22 -1
v 1 24 1
v 1 24 -0
v 1 24 -1
v 1 24 -2
v 1 25 -0
v 1 25 -1
v 2 15 -0
v 2 15 -1
v 2 16 -0
v 2 16 -1
v 3 16 -0
v 3 16 -1
v 3 17 -0
v 3 17 -1
v 4 17 -0
v 4 17 -1
v 4 18 -0
v 4 18 -1
v 5 18 -0
v 5 18 -1
v 5 20 -0
v 5 20 -1
v 9 11 1
v 9 11 -0
v 9 11 -1
v 9 11 -2
v 9 12 1
v 9 12 -0
v 9 12 -1
v 9 12 -2
v 9 16 1
v 9 16 -0
v 9 16 -1
v 9 16 -2
v 9 17 1
v 9 17 -0
v 9 17 -1
v 9 17 -2
v 9 20 -0
v 9 20 -1
v 10 11 -0
v 10 11 -1
v 10 12 1
v 10 12 -0
v 10 12 -1
v 10 12 -2
v 10 13 -1
v 10 13 -2
v 10 14 1
v 10 14 -0
v 10 15 1
v 10 15 -0
v 10 16 1
v 10 16 -0
v 10 16 -1
v 10 16 -2
v 10 17 -0
v 10 17 -1
v 11 20 1
v 11 20 -0
v 11 20 -1
v 11 20 -2
v 11 21 1
v 11 21 -0
v 11 21 -1
v 11 21 -2
v 11 22 -0
v 11 22 -1
v 12 20 -0
v 12 20 -1
v 12 21 -0
v 12 21 -1
v 0 18 2
v 0 20 2
v 1 18 2
v 1 20 2
v -3 18 1
v -3 19 1
v -1 0 1
v -1 18 1
v 0 0 1
v 0 18 1
v 0 19 1
v 0 20 1
v 0 24 1
v 1 20 1
v 1 21 1
v 1 24 1
v 7 12 1
v 7 13 1
v 7 16 1
v 8 11 1
v 8 12 1
v 8 13 1
v 8 16 1
v 8 17 1
v 9 11 1
v 9 12 1
v 9 14 1
v 9 15 1
v 9 16 1
v 9 17 1
v 10 12 1
v 10 14 1
v 10 15 1
v 10 16 1
v 11 20 1
v 11 21 1
v -4 18 -0
v -4 19 -0
v -3 18 -0
v -3 19 -0
v -3 20 -0
v -2 0 -0
v -2 18 -0
v -1 0 -0
v -1 18 -0
v -1 20 -0
v -1 24 -0
v 0 0 -0
v 0 18 -0
v 0 19 -0
v 0 24 -0
v 0 25 -0
v 1 0 -0
v 1 15 -0
v 1 17 -0
v 1 18 -0
v 1 21 -0
v 1 22 -0
v 1 24 -0
v 1 25 -0
v 2 15 -0
v 2 16 -0
v 2 17 -0
v 2 18 -0
v 3 16 -0
v 3 17 -0
v 3 18 -0
v 3 19 -0
v 4 17 -0
v 4 18 -0
v 4 19 -0
v 4 20 -0
v 5 18 -0
v 5 20 -0
v 7 11 -0
v 7 12 -0
v 7 16 -0
v 7 17 -0
v 8 11 -0
v 8 12 -0
v 8 16 -0
v 8 17 -0
v 8 20 -0
v 9 11 -0
v 9 12 -0
v 9 16 -0
v 9 17 -0
v 9 20 -0
v 10 11 -0
v 10 12 -0
v 10 16 -0
v 10 17 -0
v 11 20 -0
v 11 21 -0
v 11 22 -0
v 12 20 -0
v 12 21 -0
v -4 18 -1
v -4 19 -1
v -3 18 -1
v -3 19 -1
v -3 20 -1
v -2 0 -1
v -2 18 -1
v -1 0 -1
v -1 18 -1
v -1 20 -1
v -1 24 -1
v 0 0 -1
v 0 18 -1
v 0 19 -1
v 0 24 -1
v 0 25 -1
v 1 0 -1
v 1 15 -1
v 1 17 -1
v 1 18 -1
v 1 21 -1
v 1 22 -1
v 1 24 -1
v 1 25 -1
v 2 15 -1
v 2 16 -1
v 2 17 -1
v 2 18 -1
v 3 16 -1
v 3 17 -1
v 3 18 -1
v 3 19 -1
v 4 17 -1
v 4 18 -1
v 4 19 -1
v 4 20 -1
v 5 18 -1
v 5 20 -1
v 7 11 -1
v 7 12 -1
v 7 16 -1
v 7 17 -1
v 8 11 -1
v 8 12 -1
v 8 16 -1
v 8 17 -1
v 8 20 -1
v 9 11 -1
v 9 12 -1
v 9 16 -1
v 9 17 -1
v 9 20 -1
v 10 11 -1
v 10 12 -1
v 10 16 -1
v 10 17 -1
v 11 20 -1
v 11 21 -1
v 11 22 -1
v 12 20 -1
v 12 21 -1
v -3 18 -2
v -3 19 -2
v -1 0 -2
v -1 18 -2
v 0 0 -2
v 0 18 -2
v 0 19 -2
v 0 20 -2
v 0 24 -2
v 1 20 -2
v 1 21 -2
v 1 24 -2
v 7 12 -2
v 7 14 -2
v 7 15 -2
v 7 16 -2
v 8 11 -2
v 8 12 -2
v 8 14 -2
v 8 15 -2
v 8 16 -2
v 8 17 -2
v 9 11 -2
v 9 12 -2
v 9 13 -2
v 9 16 -2
v 9 17 -2
v 10 12 -2
v 10 13 -2
v 10 16 -2
v 11 20 -2
v 11 21 -2
v 0 18 -3
v 0 20 -3
v 1 18 -3
v 1 20 -3
v -1 0 1
v 0 0 1
v -2 0 -0
v -1 0 -0
v 0 0 -0
v 1 0 -0
v -2 0 -1
v -1 0 -1
v 0 0 -1
v 1 0 -1
v -1 0 -2
v 0 0 -2
v 8 11 1
v 9 11 1
v 7 11 -0
v 8 11 -0
v 9 11 -0
v 10 11 -0
v 7 11 -1
v 8 11 -1
v 9 11 -1
v 10 11 -1
v 8 11 -2
v 9 11 -2
v 7 12 1
v 8 12 1
v 9 12 1
v 10 12 1
v 7 12 -0
v 8 12 -0
v 9 12 -0
v 10 12 -0
v 7 12 -1
v 8 12 -1
v 9 12 -1
v 10 12 -1
v 7 12 -2
v 8 12 -2
v 9 12 -2
v 10 12 -2
v 1 15 -0
v 2 15 -0
v 1 15 -1
v 2 15 -1
v 2 16 -0
v 3 16 -0
v 2 16 -1
v 3 16 -1
v 3 17 -0
v 4 17 -0
v 3 17 -1
v 4 17 -1
v 0 18 2
v 1 18 2
v -3 18 1
v -1 18 1
v 0 18 1
v -4 18 -0
v -3 18 -0
v -2 18 -0
v -1 18 -0
v 0 18 -0
v 1 18 -0
v 4 18 -0
v 5 18 -0
v -4 18 -1
v -3 18 -1
v -2 18 -1
v -1 18 -1
v 0 18 -1
v 1 18 -1
v 4 18 -1
v 5 18 -1
v -3 18 -2
v -1 18 -2
v 0 18 -2
v 0 18 -3
v 1 18 -3
v 1 20 1
v 11 20 1
v 4 20 -0
v 5 20 -0
v 8 20 -0
v 9 20 -0
v 11 20 -0
v 12 20 -0
v 4 20 -1
v 5 20 -1
v 8 20 -1
v 9 20 -1
v 11 20 -1
v 12 20 -1
v 1 20 -2
v 11 20 -2
v 7 16 1
v 8 16 1
v 9 16 1
v 10 16 1
v 7 16 -0
v 8 16 -0
v 9 16 -0
v 10 16 -0
v 7 16 -1
v 8 16 -1
v 9 16 -1
v 10 16 -1
v 7 16 -2
v 8 16 -2
v 9 16 -2
v 10 16 -2
v 8 17 1
v 9 17 1
v 1 17 -0
v 2 17 -0
v 7 17 -0
v 8 17 -0
v 9 17 -0
v 10 17 -0
v 1 17 -1
v 2 17 -1
v 7 17 -1
v 8 17 -1
v 9 17 -1
v 10 17 -1
v 8 17 -2
v 9 17 -2
v 2 18 -0
v 3 18 -0
v 2 18 -1
v 3 18 -1
v -3 19 1
v 0 19 1
v -4 19 -0
v -3 19 -0
v 0 19 -0
v 3 19 -0
v 4 19 -0
v -4 19 -1
v -3 19 -1
v 0 19 -1
v 3 19 -1
v 4 19 -1
v -3 19 -2
v 0 19 -2
v 0 20 2
v 1 20 2
v 0 20 1
v 1 20 1
v -3 20 -0
v -1 20 -0
v -3 20 -1
v -1 20 -1
v 0 20 -2
v 1 20 -2
v 0 20 -3
v 1 20 -3
v 1 21 1
v 11 21 1
v 1 21 -0
v 11 21 -0
v 12 21 -0
v 1 21 -1
v 11 21 -1
v 12 21 -1
v 1 21 -2
v 11 21 -2
v 1 22 -0
v 11 22 -0
v 1 22 -1
v 11 22 -1
v 0 24 1
v 1 24 1
v -1 24 -0
v 0 24 -0
v 1 24 -0
v -1 24 -1
v 0 24 -1
v 1 24 -1
v 0 24 -2
v 1 24 -2
v 0 25 -0
v 1 25 -0
v 0 25 -1
v 1 25 -1

# faces
f 3/3/1 2/3/1 1/3/1
f 4/3/1 2/3/1 3/3/1
f 9/3/1 6/3/1 5/3/1
f 10/3/1 6/3/1 9/3/1
f 11/3/1 8/3/1 7/3/1
f 12/3/1 8/3/1 11/3/1
f 13/3/1 11/3/1 10/3/1
f 14/3/1 11/3/1 13/3/1
f 17/3/1 16/3/1 15/3/1
f 18/3/1 16/3/1 17/3/1
f 23/3/1 20/3/1 19/3/1
f 24/3/1 20/3/1 23/3/1
f 25/3/1 22/3/1 21/3/1
f 26/3/1 22/3/1 25/3/1
f 29/3/1 28/3/1 27/3/1
f 30/3/1 28/3/1 29/3/1
f 35/3/1 32/3/1 31/3/1
f 38/3/1 34/3/1 33/3/1
f 39/3/1 36/3/1 35/3/1
f 39/3/1 35/3/1 31/3/1
f 40/3/1 36/3/1 39/3/1
f 41/3/1 38/3/1 37/3/1
f 41/3/1 34/3/1 38/3/1
f 42/3/1 34/3/1 41/3/1
f 43/3/1 36/3/1 40/3/1
f 44/3/1 36/3/1 43/3/1
f 45/3/1 41/3/1 37/3/1
f 46/3/1 41/3/1 45/3/1
f 47/3/1 45/3/1 44/3/1
f 48/3/1 45/3/1 47/3/1
f 51/3/1 50/3/1 49/3/1
f 52/3/1 50/3/1 51/3/1
f 55/3/1 54/3/1 53/3/1
f 56/3/1 54/3/1 55/3/1
f 59/3/1 58/3/1 57/3/1
f 60/3/1 58/3/1 59/3/1
f 64/5/1 62/5/1 61/5/1
f 65/5/1 62/5/1 64/5/1
f 67/2/1 64/2/1 63/2/1
f 68/5/1 65/5/1 64/5/1
f 68/2/1 64/2/1 67/2/1
f 69/1/1 66/1/1 65/1/1
f 69/5/1 65/5/1 68/5/1
f 70/1/1 66/1/1 69/1/1
f 71/5/1 69/5/1 68/5/1
f 71/2/1 70/2/1 69/2/1
f 72/2/1 70/2/1 71/2/1
f 73/1/1 68/1/1 67/1/1
f 74/5/1 71/5/1 68/5/1
f 74/1/1 68/1/1 73/1/1
f 75/1/1 72/1/1 71/1/1
f 75/5/1 71/5/1 74/5/1
f 76/1/1 72/1/1 75/1/1
f 77/5/1 75/5/1 74/5/1
f 78/5/1 75/5/1 77/5/1
f 83/5/1 80/5/1 79/5/1
f 84/5/1 80/5/1 83/5/1
f 85/5/1 82/5/1 81/5/1
f 86/5/1 82/5/1 85/5/1
f 91/5/1 88/5/1 87/5/1
f 92/5/1 88/5/1 91/5/1
f 93/5/1 90/5/1 89/5/1
f 94/5/1 90/5/1 93/5/1
f 95/4/1 93/4/1 92/4/1
f 96/4/1 93/4/1 95/4/1
f 97/3/2 98/3/2 101/3/2
f 101/3/2 98/3/2 102/3/2
f 99/3/2 100/3/2 103/3/2
f 103/3/2 100/3/2 104/3/2
f 105/3/2 106/3/2 107/3/2
f 107/3/2 106/3/2 108/3/2
f 109/3/2 110/3/2 112/3/2
f 112/3/2 110/3/2 113/3/2
f 112/3/2 113/3/2 115/3/2
f 113/3/2 114/3/2 115/3/2
f 111/3/2 112/3/2 115/3/2
f 115/3/2 114/3/2 116/3/2
f 116/3/2 114/3/2 117/3/2
f 117/3/2 114/3/2 118/3/2
f 119/3/2 120/3/2 123/3/2
f 121/3/2 122/3/2 124/3/2
f 119/3/2 123/3/2 125/3/2
f 123/3/2 124/3/2 125/3/2
f 125/3/2 124/3/2 126/3/2
f 124/3/2 122/3/2 127/3/2
f 126/3/2 124/3/2 127/3/2
f 127/3/2 122/3/2 128/3/2
f 126/3/2 127/3/2 129/3/2
f 129/3/2 127/3/2 130/3/2
f 131/3/2 132/3/2 133/3/2
f 133/3/2 132/3/2 134/3/2
f 135/3/2 136/3/2 137/3/2
f 137/3/2 136/3/2 138/3/2
f 139/3/2 140/3/2 141/3/2
f 141/3/2 140/3/2 142/3/2
f 143/3/2 144/3/2 145/3/2
f 145/3/2 144/3/2 146/3/2
f 147/5/2 148/5/2 151/5/2
f 151/5/2 148/5/2 152/5/2
f 149/5/2 150/5/2 153/5/2
f 153/5/2 150/5/2 154/5/2
f 155/5/2 156/5/2 159/5/2
f 159/5/2 156/5/2 160/5/2
f 157/5/2 158/5/2 161/5/2
f 161/5/2 158/5/2 162/5/2
f 160/4/2 161/4/2 163/4/2
f 163/4/2 161/4/2 164/4/2
f 165/5/2 166/5/2 168/5/2
f 168/5/2 166/5/2 169/5/2
f 168/5/2 169/5/2 171/5/2
f 169/2/2 170/2/2 171/2/2
f 171/2/2 170/2/2 172/2/2
f 167/1/2 168/1/2 173/1/2
f 168/5/2 171/5/2 174/5/2
f 173/1/2 168/1/2 174/1/2
f 173/2/2 174/2/2 175/2/2
f 174/5/2 171/5/2 176/5/2
f 175/2/2 174/2/2 176/2/2
f 175/1/2 176/1/2 177/1/2
f 176/5/2 171/5/2 178/5/2
f 177/1/2 176/1/2 178/1/2
f 171/1/2 172/1/2 179/1/2
f 178/5/2 171/5/2 179/5/2
f 179/1/2 172/1/2 180/1/2
f 178/5/2 179/5/2 181/5/2
f 181/5/2 179/5/2 182/5/2
f 183/3/2 184/3/2 187/3/2
f 187/3/2 184/3/2 188/3/2
f 185/3/2 186/3/2 189/3/2
f 189/3/2 186/3/2 190/3/2
f 188/3/2 189/3/2 191/3/2
f 191/3/2 189/3/2 192/3/2
f 193/3/2 194/3/2 195/3/2
f 195/3/2 194/3/2 196/3/2
f 199/3/3 198/3/3 197/3/3
f 200/3/3 198/3/3 199/3/3
f 204/3/3 202/3/3 201/3/3
f 205/3/3 204/3/3 203/3/3
f 206/3/3 202/3/3 204/3/3
f 206/3/3 204/3/3 205/3/3
f 207/3/3 202/3/3 206/3/3
f 210/3/3 209/3/3 208/3/3
f 211/3/3 209/3/3 210/3/3
f 212/3/3 209/3/3 211/3/3
f 217/2/3 214/2/3 213/2/3
f 218/1/3 215/1/3 214/1/3
f 218/2/3 214/2/3 217/2/3
f 219/1/3 215/1/3 218/1/3
f 221/5/3 217/5/3 216/5/3
f 221/5/3 220/5/3 219/5/3
f 221/5/3 219/5/3 218/5/3
f 221/5/3 218/5/3 217/5/3
f 222/5/3 220/5/3 221/5/3
f 223/5/3 220/5/3 222/5/3
f 224/5/3 220/5/3 223/5/3
f 225/5/3 220/5/3 224/5/3
f 226/5/3 220/5/3 225/5/3
f 227/1/3 223/1/3 222/1/3
f 228/2/3 224/2/3 223/2/3
f 228/1/3 223/1/3 227/1/3
f 229/1/3 225/1/3 224/1/3
f 229/2/3 224/2/3 228/2/3
f 230/1/3 225/1/3 229/1/3
f 231/3/3 211/3/3 210/3/3
f 232/3/3 211/3/3 231/3/3
f 235/3/3 234/3/3 233/3/3
f 236/3/3 234/3/3 235/3/3
f 240/3/3 239/3/3 238/3/3
f 241/3/3 239/3/3 240/3/3
f 242/3/3 237/3/3 236/3/3
f 246/3/3 243/3/3 242/3/3
f 246/3/3 242/3/3 236/3/3
f 247/3/3 243/3/3 246/3/3
f 249/3/3 245/3/3 244/3/3
f 250/3/3 245/3/3 249/3/3
f 251/3/3 245/3/3 250/3/3
f 252/3/3 245/3/3 251/3/3
f 255/3/3 248/3/3 247/3/3
f 256/3/3 248/3/3 255/3/3
f 257/3/3 251/3/3 250/3/3
f 258/3/3 251/3/3 257/3/3
f 259/3/3 251/3/3 258/3/3
f 261/3/3 260/3/3 259/3/3
f 261/3/3 259/3/3 258/3/3
f 262/3/3 260/3/3 261/3/3
f 263/3/3 260/3/3 262/3/3
f 265/3/3 264/3/3 263/3/3
f 265/3/3 263/3/3 262/3/3
f 266/3/3 264/3/3 265/3/3
f 267/3/3 264/3/3 266/3/3
f 269/3/3 268/3/3 267/3/3
f 269/3/3 267/3/3 266/3/3
f 270/3/3 268/3/3 269/3/3
f 275/5/3 272/5/3 271/5/3
f 276/5/3 272/5/3 275/5/3
f 277/5/3 274/5/3 273/5/3
f 278/5/3 274/5/3 277/5/3
f 283/4/3 279/4/3 278/4/3
f 284/4/3 279/4/3 283/4/3
f 285/5/3 281/5/3 280/5/3
f 286/5/3 281/5/3 285/5/3
f 287/5/3 283/5/3 282/5/3
f 288/5/3 283/5/3 287/5/3
f 290/3/3 254/3/3 253/3/3
f 291/3/3 254/3/3 290/3/3
f 292/3/3 290/3/3 289/3/3
f 293/3/3 290/3/3 292/3/3
f 294/3/4 295/3/4 296/3/4
f 296/3/4 295/3/4 297/3/4
f 299/3/4 300/3/4 301/3/4
f 301/3/4 300/3/4 302/3/4
f 297/3/4 298/3/4 303/3/4
f 303/3/4 304/3/4 307/3/4
f 297/3/4 303/3/4 307/3/4
f 307/3/4 304/3/4 308/3/4
f 305/3/4 306/3/4 310/3/4
f 310/3/4 306/3/4 311/3/4
f 311/3/4 306/3/4 312/3/4
f 312/3/4 306/3/4 313/3/4
f 308/3/4 309/3/4 316/3/4
f 316/3/4 309/3/4 317/3/4
f 311/3/4 312/3/4 318/3/4
f 318/3/4 312/3/4 319/3/4
f 319/3/4 312/3/4 320/3/4
f 320/3/4 321/3/4 322/3/4
f 319/3/4 320/3/4 322/3/4
f 322/3/4 321/3/4 323/3/4
f 323/3/4 321/3/4 324/3/4
f 324/3/4 325/3/4 326/3/4
f 323/3/4 324/3/4 326/3/4
f 326/3/4 325/3/4 327/3/4
f 327/3/4 325/3/4 328/3/4
f 328/3/4 329/3/4 330/3/4
f 327/3/4 328/3/4 330/3/4
f 330/3/4 329/3/4 331/3/4
f 332/5/4 333/5/4 336/5/4
f 336/5/4 333/5/4 337/5/4
f 334/5/4 335/5/4 338/5/4
f 338/5/4 335/5/4 339/5/4
f 339/4/4 340/4/4 344/4/4
f 344/4/4 340/4/4 345/4/4
f 341/5/4 342/5/4 346/5/4
f 346/5/4 342/5/4 347/5/4
f 343/5/4 344/5/4 348/5/4
f 348/5/4 344/5/4 349/5/4
f 314/3/4 315/3/4 351/3/4
f 351/3/4 315/3/4 352/3/4
f 350/3/4 351/3/4 353/3/4
f 353/3/4 351/3/4 354/3/4
f 355/3/4 356/3/4 358/3/4
f 357/3/4 358/3/4 359/3/4
f 358/3/4 356/3/4 360/3/4
f 359/3/4 358/3/4 360/3/4
f 360/3/4 356/3/4 361/3/4
f 362/3/4 363/3/4 364/3/4
f 364/3/4 363/3/4 365/3/4
f 365/3/4 363/3/4 366/3/4
f 367/1/4 368/1/4 372/1/4
f 368/2/4 369/2/4 373/2/4
f 372/1/4 368/1/4 373/1/4
f 369/1/4 370/1/4 374/1/4
f 373/2/4 369/2/4 374/2/4
f 374/1/4 370/1/4 375/1/4
f 372/5/4 373/5/4 377/5/4
f 375/5/4 376/5/4 377/5/4
f 374/5/4 375/5/4 377/5/4
f 373/5/4 374/5/4 377/5/4
f 371/5/4 372/5/4 377/5/4
f 377/5/4 376/5/4 378/5/4
f 378/5/4 376/5/4 379/5/4
f 379/5/4 376/5/4 380/5/4
f 380/5/4 376/5/4 381/5/4
f 378/2/4 379/2/4 382/2/4
f 379/1/4 380/1/4 383/1/4
f 382/2/4 379/2/4 383/2/4
f 383/1/4 380/1/4 384/1/4
f 364/3/4 365/3/4 385/3/4
f 385/3/4 365/3/4 386/3/4
f 387/3/4 388/3/4 389/3/4
f 389/3/4 388/3/4 390/3/4
f 394/3/5 392/3/5 391/3/5
f 395/3/5 392/3/5 394/3/5
f 397/3/5 394/3/5 393/3/5
f 397/3/5 396/3/5 395/3/5
f 397/3/5 395/3/5 394/3/5
f 398/3/5 396/3/5 397/3/5
f 399/3/5 396/3/5 398/3/5
f 400/3/5 396/3/5 399/3/5
f 401/3/5 399/3/5 398/3/5
f 402/3/5 399/3/5 401/3/5
f 406/5/5 404/5/5 403/5/5
f 407/5/5 404/5/5 406/5/5
f 409/5/5 406/5/5 405/5/5
f 409/5/5 408/5/5 407/5/5
f 409/5/5 407/5/5 406/5/5
f 410/5/5 408/5/5 409/5/5
f 411/5/5 408/5/5 410/5/5
f 412/5/5 408/5/5 411/5/5
f 413/5/5 411/5/5 410/5/5
f 414/5/5 411/5/5 413/5/5
f 419/2/5 416/2/5 415/2/5
f 420/2/5 416/2/5 419/2/5
f 421/1/5 418/1/5 417/1/5
f 422/1/5 418/1/5 421/1/5
f 427/1/5 424/1/5 423/1/5
f 428/1/5 424/1/5 427/1/5
f 429/2/5 426/2/5 425/2/5
f 430/2/5 426/2/5 429/2/5
f 433/3/5 432/3/5 431/3/5
f 434/3/5 432/3/5 433/3/5
f 437/3/5 436/3/5 435/3/5
f 438/3/5 436/3/5 437/3/5
f 441/3/5 440/3/5 439/3/5
f 442/3/5 440/3/5 441/3/5
f 447/3/5 444/3/5 443/3/5
f 449/3/5 446/3/5 445/3/5
f 450/3/5 446/3/5 449/3/5
f 451/3/5 446/3/5 450/3/5
f 452/3/5 444/3/5 447/3/5
f 453/3/5 444/3/5 452/3/5
f 456/3/5 449/3/5 448/3/5
f 456/3/5 450/3/5 449/3/5
f 457/3/5 450/3/5 456/3/5
f 458/3/5 450/3/5 457/3/5
f 462/3/5 455/3/5 454/3/5
f 463/3/5 455/3/5 462/3/5
f 464/3/5 458/3/5 457/3/5
f 464/3/5 459/3/5 458/3/5
f 465/3/5 459/3/5 464/3/5
f 466/3/5 461/3/5 460/3/5
f 467/3/5 461/3/5 466/3/5
f 468/3/5 461/3/5 467/3/5
f 471/3/5 470/3/5 469/3/5
f 472/3/5 470/3/5 471/3/5
f 473/3/5 470/3/5 472/3/5
f 474/3/5 470/3/5 473/3/5
f 475/3/5 470/3/5 474/3/5
f 477/3/5 471/3/5 469/3/5
f 478/3/5 473/3/5 472/3/5
f 479/3/5 473/3/5 478/3/5
f 480/3/5 476/3/5 475/3/5
f 480/3/5 475/3/5 474/3/5
f 481/3/5 476/3/5 480/3/5
f 482/3/5 476/3/5 481/3/5
f 483/3/5 479/3/5 478/3/5
f 483/3/5 478/3/5 477/3/5
f 483/3/5 481/3/5 480/3/5
f 483/3/5 480/3/5 479/3/5
f 483/3/5 477/3/5 469/3/5
f 484/3/5 481/3/5 483/3/5
f 485/1/6 486/1/6 489/1/6
f 489/1/6 486/1/6 490/1/6
f 487/1/6 488/1/6 491/1/6
f 491/1/6 488/1/6 492/1/6
f 493/1/6 494/1/6 497/1/6
f 497/1/6 494/1/6 498/1/6
f 495/1/6 496/1/6 499/1/6
f 499/1/6 496/1/6 500/1/6
f 501/5/6 502/5/6 506/5/6
f 506/5/6 502/5/6 507/5/6
f 503/3/6 504/3/6 509/3/6
f 509/3/6 504/3/6 510/3/6
f 505/5/6 506/5/6 511/5/6
f 511/5/6 506/5/6 512/5/6
f 507/5/6 508/5/6 513/5/6
f 513/5/6 508/5/6 514/5/6
f 512/5/6 513/5/6 515/5/6
f 515/5/6 513/5/6 516/5/6
f 517/3/6 518/3/6 519/3/6
f 519/3/6 518/3/6 520/3/6
f 521/3/6 522/3/6 524/3/6
f 524/3/6 522/3/6 525/3/6
f 523/3/6 524/3/6 528/3/6
f 528/3/6 524/3/6 529/3/6
f 526/3/6 527/3/6 531/3/6
f 531/3/6 527/3/6 532/3/6
f 529/3/6 530/3/6 533/3/6
f 533/3/6 530/3/6 534/3/6
f 535/3/6 536/3/6 537/3/6
f 537/3/6 536/3/6 538/3/6
f 539/3/6 540/3/6 541/3/6
f 541/3/6 540/3/6 542/3/6
f 543/3/6 544/3/6 545/3/6
f 545/3/6 544/3/6 546/3/6
f 547/3/6 548/3/6 549/3/6
f 549/3/6 548/3/6 550/3/6
f 550/3/6 551/3/6 553/3/6
f 553/3/6 551/3/6 554/3/6
f 552/3/6 553/3/6 555/3/6
f 555/3/6 553/3/6 556/3/6
f 557/3/6 558/3/6 559/3/6
f 559/3/6 558/3/6 560/3/6
f 561/3/6 562/3/6 564/3/6
f 564/3/6 562/3/6 565/3/6
f 563/3/6 564/3/6 566/3/6
f 566/3/6 564/3/6 567/3/6
f 567/3/6 568/3/6 569/3/6
f 569/3/6 568/3/6 570/3/6
f 571/3/6 572/3/6 573/3/6
f 573/3/6 572/3/6 574/3/6
